<?xml version="1.0" standalone="no"?>
<!DOCTYPE svg PUBLIC "-//W3C//DTD SVG 20010904//EN"
 "http://www.w3.org/TR/2001/REC-SVG-20010904/DTD/svg10.dtd">
<svg version="1.0" xmlns="http://www.w3.org/2000/svg"
 width="1633.000000pt" height="1633.000000pt" viewBox="0 0 1633.000000 1633.000000"
 preserveAspectRatio="xMidYMid meet">
<metadata>
Created by potrace 1.11, written by Peter Selinger 2001-2013
</metadata>
<g transform="translate(0.000000,1633.000000) scale(0.100000,-0.100000)"
fill="#000000" stroke="none">
<path d="M9120 15697 c0 -9 -5 -17 -12 -17 -6 0 -8 -3 -5 -6 4 -4 -2 -19 -13
-34 -11 -16 -20 -35 -20 -44 0 -9 -5 -16 -11 -16 -6 0 -8 -7 -5 -16 3 -8 2
-13 -3 -10 -5 3 -15 -9 -22 -27 -7 -17 -25 -53 -40 -79 -15 -25 -25 -49 -22
-52 4 -3 0 -6 -7 -6 -7 0 -11 -3 -7 -6 3 -4 -1 -13 -9 -21 -8 -8 -12 -19 -9
-24 4 -5 1 -9 -4 -9 -6 0 -11 -7 -11 -15 0 -8 -4 -15 -9 -15 -5 0 -12 -12 -16
-27 -3 -15 -15 -39 -26 -55 -11 -15 -17 -28 -12 -28 4 0 3 -4 -3 -8 -6 -4 -26
-38 -44 -77 -18 -38 -36 -72 -40 -75 -9 -7 -24 -43 -22 -52 1 -5 -2 -8 -8 -8
-5 0 -10 -7 -10 -15 0 -8 -4 -15 -10 -15 -5 0 -10 -7 -10 -15 0 -8 -10 -31
-22 -52 -12 -21 -35 -64 -51 -96 -27 -53 -30 -56 -43 -40 -7 10 -14 24 -14 31
0 6 -5 12 -12 12 -6 0 -9 3 -5 6 3 3 -7 27 -22 52 -15 26 -33 62 -40 80 -7 17
-17 32 -22 32 -5 0 -9 9 -9 20 0 11 -6 23 -14 26 -8 3 -13 13 -12 22 2 9 -6
25 -16 34 -11 9 -19 20 -19 25 1 17 -11 43 -20 43 -5 0 -8 3 -7 8 2 8 -32 84
-42 92 -9 7 -24 43 -22 53 1 4 -2 7 -7 7 -9 0 -25 37 -23 50 0 3 -5 12 -12 20
-7 8 -29 47 -49 85 -89 175 -136 260 -145 263 -9 3 -26 -34 -23 -50 1 -5 -4
-8 -9 -8 -6 0 -10 -6 -10 -14 0 -7 -7 -19 -15 -26 -8 -7 -13 -16 -10 -20 3 -4
-5 -19 -16 -34 -11 -14 -17 -26 -13 -26 4 0 -1 -9 -10 -19 -10 -11 -18 -26
-20 -34 -1 -8 -7 -21 -13 -28 -6 -8 -14 -24 -17 -36 -4 -13 -12 -23 -17 -23
-6 0 -7 -4 -4 -10 3 -5 2 -10 -3 -10 -6 0 -13 -12 -17 -27 -3 -15 -10 -30 -13
-33 -4 -3 -16 -23 -27 -45 -11 -22 -37 -70 -57 -107 -20 -38 -33 -68 -30 -68
4 0 2 -4 -4 -8 -5 -4 -19 -25 -30 -47 -11 -22 -37 -73 -57 -112 -21 -40 -37
-76 -36 -79 0 -4 -3 -10 -8 -13 -15 -10 -92 -159 -85 -165 3 -3 0 -6 -7 -6 -7
0 -10 -4 -7 -9 4 -5 3 -11 -2 -13 -8 -3 -46 -72 -103 -188 -18 -36 -37 -68
-43 -72 -6 -4 -7 -8 -3 -8 5 0 -1 -13 -13 -30 -12 -16 -18 -30 -13 -30 4 0 4
-4 -2 -8 -5 -4 -23 -34 -40 -67 -16 -33 -34 -63 -40 -67 -5 -4 -6 -8 -2 -8 5
0 0 -12 -11 -27 -10 -16 -33 -58 -51 -95 -18 -37 -37 -70 -42 -74 -5 -3 -7
-10 -4 -15 4 -5 1 -9 -6 -9 -7 0 -9 -3 -6 -6 4 -4 -3 -20 -14 -35 -11 -16 -17
-34 -13 -40 4 -8 3 -9 -4 -5 -11 6 -16 -6 -13 -26 0 -5 -3 -8 -7 -8 -5 0 -19
-24 -33 -52 -13 -29 -30 -59 -37 -66 -7 -8 -10 -18 -7 -23 4 -5 3 -9 -2 -9 -4
0 -21 -28 -37 -62 -16 -35 -32 -65 -35 -68 -3 -3 -33 -59 -66 -125 -33 -66
-63 -122 -66 -125 -3 -3 -14 -23 -24 -45 -10 -22 -25 -48 -33 -57 -8 -10 -12
-18 -8 -18 4 0 -2 -13 -13 -29 -11 -15 -18 -31 -14 -35 3 -3 1 -6 -6 -6 -7 0
-9 -4 -6 -10 3 -5 3 -10 -2 -10 -4 0 -19 -24 -32 -52 -13 -29 -32 -65 -43 -80
-11 -16 -17 -32 -14 -37 3 -5 -1 -11 -9 -15 -8 -3 -15 -15 -15 -26 0 -11 -4
-20 -9 -20 -5 0 -15 -16 -22 -35 -7 -19 -17 -35 -23 -35 -5 0 -7 -3 -4 -6 3
-3 -18 -50 -48 -104 -30 -55 -54 -104 -54 -108 0 -5 -7 -15 -15 -22 -9 -7 -13
-15 -11 -18 3 -2 -5 -21 -17 -41 -12 -20 -33 -59 -47 -86 -14 -28 -28 -51 -32
-53 -5 -2 -8 -12 -8 -22 0 -10 -4 -21 -9 -24 -5 -3 -24 -36 -42 -73 -19 -38
-38 -71 -42 -74 -5 -3 -9 -13 -11 -21 -1 -9 -8 -23 -15 -32 -7 -9 -10 -16 -6
-16 4 0 3 -6 -3 -12 -20 -26 -131 -239 -133 -255 0 -5 -7 -12 -15 -16 -8 -5
-12 -12 -9 -18 4 -5 1 -9 -5 -9 -6 0 -9 -4 -6 -9 3 -5 -3 -20 -14 -33 -11 -14
-16 -28 -13 -32 3 -3 1 -6 -5 -6 -9 0 -28 -40 -23 -48 1 -1 -5 -10 -14 -18 -8
-9 -13 -20 -10 -25 4 -5 1 -9 -4 -9 -6 0 -11 -5 -11 -10 0 -6 -11 -28 -25 -50
-14 -22 -25 -47 -25 -55 0 -9 -7 -18 -16 -22 -8 -3 -13 -12 -10 -20 3 -7 -1
-16 -9 -19 -8 -4 -13 -10 -10 -14 3 -4 -2 -13 -10 -20 -8 -7 -15 -21 -15 -31
0 -10 -5 -21 -11 -24 -10 -7 -26 -42 -27 -59 0 -5 -4 -12 -9 -15 -8 -6 -35
-55 -96 -176 -16 -33 -34 -61 -38 -63 -5 -2 -9 -8 -9 -14 0 -12 -31 -81 -40
-88 -7 -6 -22 -43 -20 -49 1 -2 -2 -7 -7 -10 -5 -3 -23 -33 -38 -66 -16 -33
-32 -62 -35 -65 -8 -8 -51 -99 -50 -106 1 -4 -2 -10 -7 -13 -16 -11 -53 -82
-48 -91 3 -5 1 -10 -4 -12 -5 -1 -32 -48 -61 -103 -29 -55 -73 -138 -98 -185
-67 -126 -143 -273 -198 -380 -27 -52 -52 -96 -56 -98 -5 -2 -8 -10 -8 -19 0
-8 -8 -27 -18 -41 -10 -15 -24 -40 -32 -57 -8 -16 -23 -42 -33 -57 -10 -16
-16 -28 -13 -28 4 0 -5 -18 -19 -40 -14 -22 -23 -40 -19 -40 3 0 -2 -7 -10
-16 -9 -8 -14 -20 -11 -25 4 -5 2 -9 -3 -9 -5 0 -19 -24 -33 -52 -13 -29 -26
-55 -30 -58 -3 -3 -21 -36 -40 -75 -18 -38 -38 -73 -44 -77 -5 -4 -7 -8 -3 -8
4 0 -5 -22 -21 -48 -16 -27 -32 -59 -36 -70 -3 -12 -11 -22 -16 -22 -5 0 -9
-7 -9 -15 0 -9 -11 -33 -24 -54 -14 -21 -22 -42 -19 -45 4 -3 1 -6 -6 -6 -7 0
-9 -4 -6 -10 3 -5 3 -10 -2 -10 -4 0 -15 -15 -22 -33 -8 -17 -27 -53 -43 -79
-15 -27 -25 -48 -21 -48 3 0 -1 -8 -10 -18 -10 -10 -14 -22 -10 -25 3 -4 1 -7
-6 -7 -7 0 -9 -4 -6 -10 3 -5 2 -10 -4 -10 -5 0 -12 -9 -16 -20 -3 -10 -23
-50 -43 -87 -21 -37 -39 -72 -40 -78 -1 -5 -9 -18 -17 -27 -8 -10 -17 -29 -21
-43 -3 -14 -10 -25 -14 -25 -8 0 -25 -49 -22 -62 1 -5 -2 -8 -7 -8 -5 0 -26
-33 -46 -72 -20 -40 -44 -86 -54 -103 -10 -16 -16 -33 -14 -37 2 -5 -1 -8 -6
-8 -6 0 -11 -8 -11 -19 0 -10 -6 -24 -13 -30 -8 -6 -22 -30 -33 -53 -10 -24
-21 -45 -24 -48 -3 -3 -14 -24 -24 -47 -11 -24 -23 -43 -29 -43 -5 0 -7 -7 -3
-15 3 -8 2 -15 -3 -15 -5 0 -14 -15 -22 -32 -7 -18 -15 -35 -19 -38 -8 -7 -33
-65 -28 -66 1 -1 -6 -11 -16 -23 -11 -12 -15 -21 -10 -21 5 0 4 -4 -2 -8 -14
-9 -84 -142 -84 -159 0 -7 -4 -13 -9 -13 -5 0 -15 -16 -21 -35 -6 -19 -15 -35
-20 -35 -5 0 -11 -13 -15 -30 -4 -16 -11 -32 -16 -36 -6 -3 -22 -31 -36 -62
-14 -32 -31 -60 -37 -64 -6 -4 -7 -8 -2 -8 5 0 1 -9 -9 -20 -10 -11 -15 -20
-11 -20 4 0 -1 -12 -12 -27 -19 -28 -29 -51 -30 -67 0 -5 -4 -12 -9 -15 -9 -7
-16 -19 -103 -186 -34 -66 -67 -126 -73 -132 -5 -7 -6 -13 -1 -13 5 0 4 -4 -1
-8 -6 -4 -24 -34 -40 -67 -17 -33 -32 -62 -35 -65 -9 -9 -44 -85 -42 -92 1 -5
-1 -8 -6 -8 -4 0 -14 -15 -21 -32 -8 -18 -29 -59 -47 -90 -18 -32 -30 -58 -26
-58 4 0 2 -4 -3 -8 -6 -4 -19 -25 -30 -47 -11 -22 -32 -61 -47 -87 -15 -27
-24 -49 -20 -49 8 -2 3259 -10 6110 -15 1068 -2 1942 -1 1942 3 0 5 701 8
1557 7 857 0 1561 1 1565 3 9 4 -21 63 -33 63 -5 0 -8 4 -7 8 4 10 -44 106
-54 110 -5 2 -8 10 -8 17 0 8 -13 37 -30 65 -16 28 -30 55 -30 60 0 6 -5 10
-11 10 -5 0 -8 4 -5 8 3 5 -6 25 -20 45 -14 20 -22 37 -18 37 3 0 2 6 -4 13
-9 11 -73 130 -155 292 -17 33 -36 63 -42 67 -5 4 -6 8 -2 8 5 0 -2 15 -15 33
-13 17 -21 33 -18 34 3 1 -3 11 -12 23 -10 11 -15 20 -13 20 3 0 -9 25 -26 56
-17 31 -49 93 -72 138 -22 45 -45 84 -51 88 -6 4 -8 8 -3 8 4 0 0 12 -10 27
-9 14 -18 33 -19 41 -2 8 -7 18 -12 21 -5 3 -31 51 -59 106 -87 171 -118 230
-124 235 -6 6 -16 31 -17 44 0 5 -4 12 -9 15 -4 3 -21 33 -38 66 -16 33 -33
62 -37 63 -5 2 -8 12 -8 23 0 10 -4 19 -8 19 -5 0 -15 18 -22 40 -7 21 -17 37
-21 34 -5 -3 -9 4 -9 15 0 12 -4 21 -10 21 -5 0 -10 8 -10 19 0 10 -7 24 -15
31 -9 7 -14 15 -11 17 2 3 -13 36 -35 73 -21 38 -39 74 -39 80 0 5 -5 10 -12
10 -6 0 -8 3 -5 7 4 3 3 11 -2 17 -5 6 -30 54 -57 106 -27 52 -52 97 -56 98
-5 2 -8 12 -8 22 0 10 -3 20 -7 22 -5 2 -23 32 -41 68 -19 36 -57 110 -85 165
-29 55 -56 103 -62 107 -7 5 -7 8 0 8 7 0 7 3 0 8 -5 4 -32 52 -60 107 -27 55
-52 102 -55 105 -9 9 -34 65 -32 73 1 4 -2 7 -6 7 -5 0 -14 16 -22 35 -8 19
-18 35 -24 35 -5 0 -7 3 -4 6 4 3 -9 33 -28 66 -19 33 -34 66 -34 74 0 8 -4
14 -9 14 -5 0 -15 16 -22 35 -7 19 -17 35 -21 35 -4 0 -8 7 -8 16 0 9 -8 28
-18 42 -10 15 -29 50 -42 77 -13 28 -31 58 -39 68 -8 9 -11 17 -7 17 4 0 -1
12 -12 28 -10 15 -40 71 -67 125 -27 53 -52 97 -57 97 -4 0 -7 3 -5 8 4 12
-35 92 -45 92 -5 0 -6 5 -3 10 3 6 1 10 -6 10 -7 0 -10 3 -6 6 3 3 -7 27 -21
52 -15 26 -34 61 -42 77 -8 17 -20 37 -26 45 -7 8 -13 17 -13 20 0 9 -14 45
-20 50 -3 3 -17 29 -31 57 -14 29 -29 53 -33 53 -5 0 -6 4 -2 9 3 5 1 12 -5
16 -6 4 -8 10 -5 15 3 4 -2 11 -11 14 -8 3 -12 10 -9 16 3 5 1 10 -5 10 -6 0
-8 5 -5 10 3 6 1 10 -6 10 -7 0 -10 3 -6 6 3 3 -8 27 -24 54 -16 26 -29 51
-29 55 0 4 -9 20 -21 36 -11 16 -17 29 -14 29 3 0 -3 13 -14 29 -11 15 -18 31
-14 35 3 3 1 6 -5 6 -7 0 -12 7 -12 15 0 8 -4 15 -8 15 -5 0 -9 6 -9 13 0 6
-16 40 -36 75 -20 34 -33 62 -29 62 4 0 2 4 -3 8 -6 4 -29 43 -51 87 -51 101
-67 128 -77 136 -5 3 -8 8 -6 10 5 9 -13 49 -22 49 -6 0 -7 5 -4 10 3 6 1 10
-5 10 -6 0 -8 5 -5 10 3 6 1 10 -5 10 -6 0 -8 5 -5 10 3 6 2 10 -2 10 -5 0
-15 16 -22 35 -7 19 -17 35 -22 35 -5 0 -8 3 -8 8 3 15 -23 72 -34 72 -6 0 -8
3 -5 6 4 3 -8 31 -26 62 -18 32 -39 72 -47 90 -7 17 -17 32 -21 32 -5 0 -8 9
-8 19 0 11 -7 26 -15 34 -8 8 -11 17 -8 21 4 3 1 6 -5 6 -7 0 -12 5 -12 12 0
6 -8 20 -17 31 -12 14 -13 18 -3 12 8 -5 5 4 -8 19 -12 16 -19 32 -16 37 3 5
1 9 -5 9 -5 0 -15 16 -22 35 -7 19 -17 35 -21 35 -4 0 -8 9 -8 19 0 11 -3 21
-7 23 -5 2 -21 30 -38 63 -16 33 -34 63 -40 67 -5 4 -6 8 -1 8 5 0 4 6 -2 13
-9 11 -77 139 -171 322 -20 39 -44 81 -54 95 -9 13 -17 32 -17 42 0 10 -5 18
-11 18 -5 0 -8 4 -5 9 3 5 -1 12 -9 15 -8 3 -15 9 -14 13 2 15 -13 53 -22 53
-5 0 -8 3 -7 8 3 9 -32 75 -44 83 -5 3 -9 8 -7 10 5 9 -13 49 -22 49 -5 0 -9
7 -9 15 0 18 -20 57 -35 67 -5 4 -6 8 -1 8 5 0 4 6 -2 13 -11 13 -68 120 -153
287 -30 58 -56 107 -59 110 -13 13 -40 70 -40 84 0 9 -4 16 -9 16 -5 0 -16 18
-25 40 -9 22 -21 40 -28 40 -6 0 -8 3 -5 7 4 3 2 12 -4 20 -6 7 -9 13 -5 13 3
0 -8 23 -24 50 -17 28 -30 55 -30 60 0 6 -5 10 -11 10 -5 0 -7 5 -4 10 3 6 1
10 -6 10 -7 0 -9 3 -6 7 4 3 3 11 -2 17 -9 12 -75 133 -124 231 -17 33 -35 63
-41 67 -6 4 -8 8 -3 8 7 0 -40 99 -53 110 -12 11 -69 130 -62 130 4 0 2 4 -4
8 -12 8 -53 83 -50 93 0 4 -6 15 -15 25 -9 11 -22 34 -30 52 -8 17 -18 32 -22
32 -5 0 -5 5 -2 10 3 6 1 10 -5 10 -6 0 -9 4 -6 9 3 5 -1 14 -9 21 -8 7 -13
16 -10 20 3 5 1 11 -4 14 -5 3 -28 45 -52 93 -24 49 -46 90 -49 93 -3 3 -21
37 -40 75 -19 39 -41 78 -49 88 -8 9 -11 17 -7 17 3 0 -5 18 -19 40 -14 22
-22 40 -18 40 5 0 4 4 -2 8 -10 7 -24 32 -98 177 -22 44 -49 92 -60 108 -10
15 -15 27 -11 27 3 0 2 6 -4 13 -6 7 -41 71 -78 142 -37 72 -72 133 -78 137
-6 4 -7 8 -3 8 4 0 -4 21 -19 48 -32 57 -34 60 -34 39z"/>
<path d="M4397 5133 c-8 -21 -31 -73 -51 -116 -20 -42 -36 -79 -36 -81 0 -2
-18 -42 -39 -88 -22 -45 -68 -148 -104 -228 -77 -172 -272 -606 -317 -705 -38
-84 -40 -88 -130 -290 -40 -88 -83 -185 -97 -215 -14 -30 -43 -95 -65 -145
-44 -99 -77 -171 -116 -255 -14 -30 -26 -57 -27 -60 -3 -9 -23 -55 -59 -133
-20 -43 -34 -82 -32 -86 3 -4 77 -7 167 -6 l162 0 67 150 c36 83 78 175 92
205 14 30 44 98 67 151 l42 96 499 0 498 0 33 -71 c33 -72 76 -168 109 -241
10 -22 34 -74 52 -115 19 -41 44 -98 57 -125 l22 -50 170 0 c93 0 169 1 169 2
0 3 -121 272 -170 378 -15 33 -38 83 -50 110 -37 81 -330 725 -356 783 -38 82
-63 137 -214 472 -78 173 -162 357 -186 408 -24 52 -44 95 -44 97 0 8 -90 195
-94 195 -2 0 -11 -17 -19 -37z m70 -808 c259 -572 324 -718 320 -722 -4 -3
-534 -6 -714 -3 l-32 0 19 38 c23 44 90 192 90 197 0 3 11 28 24 57 35 76 167
370 207 460 18 43 36 74 40 70 3 -4 24 -47 46 -97z"/>
<path d="M12396 4966 c-50 -110 -109 -241 -132 -291 -23 -49 -48 -106 -56
-125 -9 -19 -57 -127 -108 -240 -51 -113 -101 -225 -112 -250 -35 -77 -119
-262 -150 -330 -17 -36 -34 -74 -38 -85 -7 -18 -114 -257 -180 -400 -78 -172
-230 -512 -230 -516 0 -3 74 -4 165 -4 152 0 166 2 179 20 9 11 16 24 16 28 0
8 33 82 147 337 16 36 45 99 63 141 l34 76 497 0 498 0 30 -64 c17 -35 31 -66
31 -68 0 -5 98 -216 110 -237 6 -10 10 -25 10 -33 0 -8 5 -15 10 -15 6 0 10
-6 10 -13 0 -12 45 -115 69 -157 7 -12 38 -15 175 -15 91 0 166 2 166 4 0 5
-102 234 -161 360 -27 57 -49 105 -49 107 0 2 -13 32 -29 66 -70 151 -111 240
-111 243 0 2 -18 41 -39 87 -22 46 -57 124 -79 173 -22 50 -56 126 -77 170
-20 44 -45 98 -55 120 -33 73 -417 919 -439 968 -52 117 -61 136 -68 140 -5 3
-48 -86 -97 -197z m144 -643 c24 -54 56 -127 73 -162 114 -246 247 -546 247
-555 0 -8 -103 -11 -366 -9 -201 1 -368 3 -370 6 -4 3 73 181 168 387 19 41
70 155 113 253 43 97 82 177 85 177 4 0 26 -44 50 -97z"/>
<path d="M5913 5077 c-3 -6 -7 -2093 -3 -2322 l0 -30 542 0 543 0 0 158 c0 99
-3 157 -10 158 -5 1 -176 2 -380 3 l-370 1 -3 1018 c-1 559 -5 1017 -10 1018
-73 4 -305 2 -309 -4z"/>
<path d="M7475 5080 l-40 -5 0 -1175 0 -1175 158 0 c101 0 157 3 158 10 0 5 0
223 0 483 0 360 3 472 12 473 7 0 51 2 99 4 341 13 571 91 742 254 66 63 142
180 167 260 28 87 35 251 14 339 -73 309 -393 521 -803 531 -196 5 -469 6
-507 1z m544 -294 c3 -2 29 -6 56 -10 61 -7 148 -32 195 -56 74 -38 153 -138
176 -221 47 -177 -23 -351 -173 -427 -40 -21 -154 -58 -207 -68 -54 -11 -280
-30 -298 -26 -15 4 -16 39 -16 414 l0 411 130 -7 c72 -4 134 -8 137 -10z"/>
<path d="M9299 5070 c-5 -111 0 -2332 5 -2338 4 -3 75 -7 158 -7 121 -1 151 2
156 13 3 8 5 262 6 566 l1 551 558 1 c409 1 557 -1 558 -10 1 -6 3 -256 4
-556 1 -300 3 -550 4 -555 1 -11 310 -15 312 -5 1 3 2 533 3 1178 1 1166 1
1172 -19 1173 -26 1 -254 1 -280 0 -20 -1 -20 -7 -20 -443 1 -244 0 -447 -2
-453 -2 -7 -197 -10 -561 -9 l-557 1 0 452 c0 444 0 451 -20 452 -11 0 -84 1
-162 2 -121 2 -143 0 -144 -13z"/>
<path d="M13167 1799 c-132 -31 -231 -132 -291 -297 -32 -90 -37 -124 -41
-287 -8 -389 148 -621 425 -628 85 -2 204 28 295 76 89 47 82 20 82 315 l0
262 -218 0 -218 0 1 -70 1 -70 139 0 c76 0 139 -3 139 -7 1 -5 2 -74 3 -155
l1 -148 -46 -19 c-125 -54 -252 -48 -325 16 -45 40 -88 130 -110 228 -10 46
-13 305 -3 334 4 14 10 40 12 56 7 47 43 133 72 170 64 85 177 111 282 65 48
-20 115 -80 140 -125 10 -17 14 -16 72 19 33 20 63 41 65 45 8 13 -68 104
-119 143 -72 55 -145 80 -240 83 -44 2 -97 -1 -118 -6z"/>
<path d="M3303 1200 c0 -534 1 -590 16 -591 9 0 181 -1 384 -2 343 -2 367 -1
368 16 2 22 2 48 0 90 l-1 32 -301 0 c-172 0 -303 4 -306 9 -3 5 -6 240 -6
522 l0 514 -77 0 -77 0 0 -590z"/>
<path d="M4650 1198 l0 -593 343 2 c188 1 354 2 368 2 26 1 27 3 28 66 0 45
-3 65 -12 66 -6 1 -138 2 -292 3 l-280 1 0 208 0 207 45 1 c25 0 133 1 240 1
l195 0 1 69 0 69 -240 2 -241 3 0 170 0 170 291 3 291 2 1 70 1 70 -369 0
-370 0 0 -592z"/>
<path d="M6225 1703 c-39 -128 -282 -884 -314 -981 -19 -57 -25 -85 -17 -90
16 -13 137 -54 142 -49 4 4 14 34 81 255 l28 92 209 -2 209 -3 40 -130 c21
-71 44 -148 51 -170 7 -23 18 -40 26 -40 13 -1 129 42 138 49 3 3 3 5 -311
981 l-55 170 -99 3 -100 3 -28 -88z m174 -248 c17 -55 50 -164 74 -242 37
-120 42 -143 28 -144 -67 -3 -302 -1 -306 3 -4 4 87 311 147 498 11 34 11 35
19 10 4 -14 21 -70 38 -125z"/>
<path d="M7389 1778 c0 -7 -1 -272 -1 -587 0 -529 1 -575 17 -581 20 -7 125
-3 133 5 3 3 5 113 5 245 0 159 3 243 10 247 16 10 197 7 207 -3 8 -9 110
-184 110 -190 0 -2 15 -29 34 -61 18 -32 44 -78 58 -103 63 -114 91 -160 98
-165 8 -5 44 16 108 61 23 16 23 16 4 47 -10 18 -72 119 -136 226 -65 107
-120 199 -122 205 -3 7 12 20 33 30 20 10 53 30 73 46 36 29 97 120 105 158 3
12 7 32 10 45 7 29 7 115 0 148 -18 91 -77 164 -167 205 l-63 29 -257 3 c-211
3 -258 1 -259 -10z m514 -156 c90 -57 103 -216 24 -300 -49 -53 -92 -65 -243
-70 l-141 -4 0 193 c-1 107 1 198 4 202 3 5 76 7 162 5 143 -3 159 -5 194 -26z"/>
<path d="M8711 1200 c1 -543 2 -590 17 -591 31 -1 117 -1 130 0 10 1 12 85 8
434 -3 237 -7 458 -9 490 -1 31 -1 57 1 57 2 0 14 -24 26 -52 13 -29 43 -93
66 -143 23 -49 61 -133 85 -185 24 -52 61 -133 83 -180 21 -47 72 -157 112
-245 40 -88 76 -164 80 -169 9 -9 152 -14 177 -5 14 5 16 61 15 575 0 313 -1
577 -1 587 -1 15 -12 17 -76 17 -53 0 -75 -4 -76 -12 -3 -63 1 -725 5 -838 6
-161 11 -160 -55 -15 -68 151 -78 172 -107 235 -59 128 -150 326 -172 375 -12
28 -36 82 -55 120 -18 39 -39 85 -46 103 l-14 32 -97 0 -97 0 0 -590z"/>
<path d="M10243 1720 l0 -70 82 0 83 0 0 -450 c1 -341 -2 -450 -11 -451 -7 -1
-43 -2 -82 -3 l-70 -1 -2 -62 c-2 -51 1 -64 15 -70 13 -7 352 -9 455 -4 15 1
17 10 16 65 -1 38 -6 66 -13 69 -6 2 -44 3 -83 2 l-73 -1 0 453 0 453 83 0 84
0 1 70 1 70 -243 0 -244 0 1 -70z"/>
<path d="M11470 1733 c-1 -108 -1 -1078 -1 -1103 1 -25 3 -25 72 -24 39 1 73
5 76 8 8 7 7 619 0 821 l-7 160 20 -40 c30 -60 140 -296 140 -300 0 -2 18 -42
40 -90 52 -111 211 -457 235 -512 13 -30 25 -43 39 -44 99 -4 139 -3 155 3 17
6 18 34 18 592 l0 586 -78 0 -77 0 3 -432 c2 -238 5 -459 8 -490 2 -32 2 -58
-1 -58 -3 0 -58 114 -112 235 -12 28 -90 196 -172 375 -83 179 -154 335 -159
348 -8 21 -14 22 -104 22 l-95 0 0 -57z"/>
</g>
</svg>
