<?xml version="1.0" encoding="utf-8"?>
<!-- Generator: Adobe Illustrator 16.0.0, SVG Export Plug-In . SVG Version: 6.00 Build 0)  -->
<!DOCTYPE svg PUBLIC "-//W3C//DTD SVG 1.1//EN" "http://www.w3.org/Graphics/SVG/1.1/DTD/svg11.dtd">
<svg version="1.1" id="logo" xmlns="http://www.w3.org/2000/svg" xmlns:xlink="http://www.w3.org/1999/xlink" x="0px" y="0px"
	 width="139.189px" height="75.34px" viewBox="0 0 139.189 75.34" style="enable-background:new 0 0 139.189 75.34;"
	 xml:space="preserve">
<style type="text/css">
<![CDATA[
	.st0{opacity:0.75;fill:none;}
	.st1{fill:#006FBA;}
	.st2{fill:#007397;}
	.st3{fill:#009A49;}
	.st4{fill:#43B02A;}
]]>
</style>
<rect class="st0" width="139.262" height="75.5"/>
<g>
	<g>
		<path class="st1" d="M82.993,30.371c-3.887,0-6.723,0.584-7.817,1.124c-0.064,0.034-0.235,0.136-0.235,0.305v26.788
			c0,0.123,0.1,0.225,0.226,0.225h6.357c0.121,0,0.221-0.102,0.221-0.225v-5.672h3.078c5.977,0,8.878-5.295,8.878-11.188
			C93.7,34.299,89.936,30.371,82.993,30.371 M83.572,47.868h-1.828V35.6h1.939c2.796,0,3.188,3.061,3.188,6.129
			C86.872,44.733,86.479,47.868,83.572,47.868"/>
		<path class="st1" d="M116.303,51.468c-1.226-5.08-4.759-16.751-6.928-20.745c-0.041-0.074-0.117-0.119-0.197-0.119h-7.809
			c-0.084,0-0.155,0.045-0.199,0.122c-2.113,4.013-5.758,15.885-6.926,20.742c-0.003,0.017-0.009,0.034-0.009,0.049v1.175
			c0,0.123,0.103,0.225,0.228,0.225h5.951c0.104,0,0.19-0.071,0.215-0.172c0.117-0.482,0.238-1.011,0.369-1.568
			c0.189-0.809,0.397-1.862,0.613-2.761h6.918c0.189,0.796,0.354,1.747,0.516,2.493c0.139,0.659,0.271,1.277,0.403,1.836
			c0.026,0.101,0.118,0.172,0.22,0.172h6.416c0.124,0,0.225-0.102,0.225-0.225v-1.175C116.309,51.502,116.305,51.484,116.303,51.468
			 M102.699,43.707c0.304-1.222,2.357-8.017,2.357-8.017h0.217c0,0,1.955,6.802,2.229,8.017H102.699z"/>
		<path class="st1" d="M65.633,35.6c2.215,0,4.041,1.63,4.041,1.63c0.02,0.005,0.04,0.007,0.059,0.007h1.953
			c0.121,0,0.224-0.098,0.224-0.223v-4.899c0-0.087-0.057-0.161-0.135-0.203c-1.275-0.714-4.468-1.538-7.187-1.538
			c-7.064,0-11.111,4.912-11.111,11.391c0,6.473,4.268,11.387,11.111,11.387c2.763,0,5.911-0.864,7.187-1.542
			c0.078-0.041,0.135-0.12,0.135-0.206v-4.895c0-0.124-0.103-0.227-0.224-0.227h-1.953c-0.019,0-0.039,0.002-0.059,0.004
			c0,0-1.826,1.635-4.041,1.635c-3.686,0-5.162-3.082-5.162-6.156C60.471,38.682,61.947,35.6,65.633,35.6"/>
	</g>
	<g>
		<path class="st1" d="M37.532,35.248c-0.718,0-1.302,0.582-1.302,1.301c0,0.721,0.584,1.301,1.302,1.301
			c0.719,0,1.302-0.58,1.302-1.301C38.833,35.83,38.251,35.248,37.532,35.248 M37.532,38.544c-0.565,0-1.02,0.454-1.02,1.021
			c0,0.561,0.455,1.018,1.02,1.018c0.563,0,1.021-0.457,1.021-1.018C38.552,38.998,38.095,38.544,37.532,38.544 M40.772,28.817
			c-0.497,0-0.942,0.218-1.249,0.562c-0.161-0.3-0.388-0.555-0.658-0.755c0.286-0.317,0.465-0.739,0.465-1.199
			c0-0.718-0.422-1.334-1.031-1.621c0.497-0.273,0.833-0.8,0.833-1.406c0-0.882-0.716-1.6-1.6-1.6c-0.883,0-1.601,0.717-1.601,1.6
			c0,0.606,0.337,1.133,0.833,1.406c-0.606,0.286-1.028,0.902-1.028,1.621c0,0.46,0.178,0.882,0.464,1.199
			c-0.273,0.2-0.497,0.456-0.658,0.755c-0.309-0.344-0.753-0.562-1.25-0.562c-0.926,0-1.677,0.75-1.677,1.676
			c0,0.927,0.75,1.677,1.677,1.677c0.516,0,0.975-0.232,1.283-0.599c0.161,0.282,0.381,0.524,0.644,0.714
			c-0.29,0.314-0.467,0.732-0.467,1.193c0,0.977,0.792,1.77,1.767,1.77c0.978,0,1.77-0.793,1.77-1.77
			c0-0.457-0.174-0.871-0.46-1.184c0.271-0.191,0.496-0.436,0.659-0.724c0.309,0.366,0.768,0.599,1.284,0.599
			c0.926,0,1.677-0.75,1.677-1.677C42.449,29.567,41.698,28.817,40.772,28.817 M37.532,41.861c-0.399,0-0.724,0.326-0.724,0.727
			s0.325,0.727,0.724,0.727c0.401,0,0.725-0.326,0.725-0.727S37.933,41.861,37.532,41.861 M37.526,45.073
			c-0.301,0-0.547,0.244-0.547,0.547c0,0.304,0.246,0.544,0.547,0.544c0.302,0,0.547-0.24,0.547-0.544
			C38.073,45.317,37.829,45.073,37.526,45.073 M43.987,29.102c-0.847,0-1.535,0.687-1.535,1.535c0,0.848,0.688,1.533,1.535,1.533
			c0.848,0,1.536-0.686,1.536-1.533C45.522,29.789,44.835,29.102,43.987,29.102 M31.077,29.102c-0.846,0-1.535,0.687-1.535,1.535
			c0,0.848,0.689,1.533,1.535,1.533c0.849,0,1.537-0.686,1.537-1.533C32.613,29.789,31.925,29.102,31.077,29.102"/>
		<path class="st1" d="M37.531,22.777c0.774,0,1.403-0.628,1.403-1.405c0-0.771-0.629-1.399-1.403-1.399
			c-0.773,0-1.402,0.628-1.402,1.399C36.129,22.149,36.758,22.777,37.531,22.777"/>
		<path class="st1" d="M47.197,29.593c-0.707,0-1.279,0.573-1.279,1.28c0,0.706,0.572,1.278,1.279,1.278
			c0.706,0,1.278-0.572,1.278-1.278C48.475,30.167,47.903,29.593,47.197,29.593"/>
		<path class="st1" d="M29.146,30.873c0-0.707-0.572-1.28-1.278-1.28s-1.279,0.573-1.279,1.28c0,0.706,0.574,1.278,1.279,1.278
			S29.146,31.579,29.146,30.873"/>
		<path class="st2" d="M40.952,23.067c-0.763,0-1.381,0.618-1.381,1.382c0,0.761,0.618,1.38,1.381,1.38
			c0.761,0,1.38-0.619,1.38-1.38C42.332,23.685,41.713,23.067,40.952,23.067"/>
		<path class="st2" d="M40.862,25.98c-0.823,0-1.493,0.668-1.493,1.494c0,0.823,0.669,1.491,1.493,1.491
			c0.823,0,1.493-0.668,1.493-1.491C42.355,26.648,41.685,25.98,40.862,25.98"/>
		<path class="st2" d="M40.683,32.126c-0.779,0-1.414,0.634-1.414,1.411c0,0.782,0.634,1.415,1.414,1.415s1.415-0.633,1.415-1.415
			C42.098,32.76,41.462,32.126,40.683,32.126"/>
		<path class="st2" d="M40.593,35.074c-0.834,0-1.508,0.676-1.508,1.51s0.674,1.508,1.508,1.508c0.833,0,1.508-0.674,1.508-1.508
			S41.426,35.074,40.593,35.074"/>
		<path class="st2" d="M44.166,26.198c-0.785,0-1.419,0.633-1.419,1.416c0,0.785,0.634,1.417,1.419,1.417
			c0.783,0,1.416-0.632,1.416-1.417C45.581,26.831,44.948,26.198,44.166,26.198"/>
		<path class="st2" d="M34.113,23.067c-0.762,0-1.38,0.618-1.38,1.382c0,0.761,0.618,1.38,1.38,1.38c0.762,0,1.381-0.619,1.381-1.38
			C35.494,23.685,34.875,23.067,34.113,23.067"/>
		<path class="st2" d="M34.202,25.98c-0.824,0-1.494,0.668-1.494,1.494c0,0.823,0.669,1.491,1.494,1.491
			c0.823,0,1.494-0.668,1.494-1.491C35.696,26.648,35.025,25.98,34.202,25.98"/>
		<path class="st2" d="M34.381,32.126c-0.781,0-1.415,0.634-1.415,1.411c0,0.782,0.634,1.415,1.415,1.415
			c0.781,0,1.413-0.633,1.413-1.415C35.794,32.76,35.163,32.126,34.381,32.126"/>
		<path class="st2" d="M34.472,35.074c-0.833,0-1.508,0.676-1.508,1.51s0.675,1.508,1.508,1.508s1.507-0.674,1.507-1.508
			S35.305,35.074,34.472,35.074"/>
		<path class="st2" d="M30.899,26.198c-0.782,0-1.417,0.633-1.417,1.416c0,0.785,0.635,1.417,1.417,1.417
			c0.783,0,1.417-0.632,1.417-1.417C32.317,26.831,31.682,26.198,30.899,26.198"/>
		<path class="st2" d="M34.024,22.758c0.733,0,1.331-0.597,1.331-1.33c0-0.736-0.597-1.332-1.331-1.332
			c-0.734,0-1.332,0.595-1.332,1.332C32.692,22.161,33.29,22.758,34.024,22.758"/>
		<path class="st2" d="M29.992,33.678c0,0.699,0.567,1.263,1.265,1.263c0.699,0,1.267-0.563,1.267-1.263s-0.568-1.267-1.267-1.267
			C30.559,32.411,29.992,32.979,29.992,33.678"/>
		<path class="st2" d="M41.042,22.758c0.733,0,1.331-0.597,1.331-1.33c0-0.736-0.597-1.332-1.331-1.332
			c-0.735,0-1.332,0.595-1.332,1.332C39.71,22.161,40.307,22.758,41.042,22.758"/>
		<path class="st2" d="M37.531,19.584c0.695,0,1.257-0.562,1.257-1.258c0-0.693-0.562-1.256-1.257-1.256
			c-0.693,0-1.257,0.563-1.257,1.256C36.274,19.022,36.838,19.584,37.531,19.584"/>
		<path class="st2" d="M43.808,34.942c0.698,0,1.265-0.565,1.265-1.263c0-0.701-0.566-1.27-1.265-1.27
			c-0.699,0-1.267,0.568-1.267,1.27C42.541,34.377,43.109,34.942,43.808,34.942"/>
		<path class="st4" d="M31.615,38.878c-0.475,0-0.858,0.386-0.858,0.858c0,0.476,0.383,0.857,0.858,0.857s0.858-0.382,0.858-0.857
			C32.473,39.264,32.09,38.878,31.615,38.878"/>
		<path class="st4" d="M24.836,25.196c0-0.485-0.395-0.879-0.881-0.879s-0.879,0.394-0.879,0.879c0,0.489,0.393,0.881,0.879,0.881
			S24.836,25.685,24.836,25.196"/>
		<path class="st4" d="M27.07,22.689c0.471,0,0.853-0.382,0.853-0.854c0-0.471-0.382-0.852-0.853-0.852
			c-0.472,0-0.854,0.38-0.854,0.852C26.216,22.307,26.599,22.689,27.07,22.689"/>
		<path class="st4" d="M23.602,22.974c0.434,0,0.784-0.351,0.784-0.784c0-0.434-0.35-0.786-0.784-0.786s-0.787,0.353-0.787,0.786
			C22.815,22.624,23.167,22.974,23.602,22.974"/>
		<path class="st4" d="M41.131,19.442c0.585,0,1.062-0.476,1.062-1.062c0-0.586-0.477-1.062-1.062-1.062
			c-0.586,0-1.062,0.476-1.062,1.062C40.069,18.966,40.545,19.442,41.131,19.442"/>
		<path class="st4" d="M33.933,19.442c0.585,0,1.062-0.476,1.062-1.062c0-0.586-0.477-1.062-1.062-1.062
			c-0.585,0-1.061,0.476-1.061,1.062C32.872,18.966,33.348,19.442,33.933,19.442"/>
		<path class="st4" d="M37.531,13.095c0.451,0,0.816-0.365,0.816-0.815c0-0.448-0.365-0.813-0.816-0.813
			c-0.45,0-0.814,0.365-0.814,0.813C36.717,12.73,37.082,13.095,37.531,13.095"/>
		<path class="st4" d="M41.22,16.127c0.426,0,0.771-0.346,0.771-0.772c0-0.425-0.346-0.77-0.771-0.77s-0.77,0.344-0.77,0.77
			C40.45,15.781,40.794,16.127,41.22,16.127"/>
		<path class="st4" d="M33.845,16.127c0.424,0,0.771-0.346,0.771-0.772c0-0.425-0.346-0.77-0.771-0.77
			c-0.426,0-0.77,0.344-0.77,0.77C33.075,15.781,33.419,16.127,33.845,16.127"/>
		<path class="st4" d="M51.463,22.974c0.434,0,0.785-0.351,0.785-0.784c0-0.434-0.352-0.786-0.785-0.786s-0.784,0.353-0.784,0.786
			C50.679,22.624,51.029,22.974,51.463,22.974"/>
		<path class="st4" d="M46.392,39.328c-0.346,0-0.625,0.28-0.625,0.627c0,0.344,0.278,0.623,0.625,0.623
			c0.347,0,0.625-0.279,0.625-0.623C47.017,39.608,46.738,39.328,46.392,39.328"/>
		<path class="st4" d="M42.59,39.736c0,0.476,0.385,0.858,0.86,0.858c0.473,0,0.857-0.383,0.857-0.858
			c0-0.473-0.384-0.859-0.857-0.859C42.975,38.877,42.59,39.264,42.59,39.736"/>
		<path class="st4" d="M51.108,24.317c-0.486,0-0.882,0.394-0.882,0.879c0,0.489,0.396,0.881,0.882,0.881s0.88-0.392,0.88-0.881
			C51.988,24.71,51.595,24.317,51.108,24.317"/>
		<path class="st4" d="M47.729,23.657c-0.656,0-1.189,0.53-1.189,1.188c0,0.656,0.533,1.188,1.189,1.188
			c0.657,0,1.188-0.532,1.188-1.188C48.917,24.187,48.386,23.657,47.729,23.657"/>
		<path class="st4" d="M28.673,39.328c-0.347,0-0.625,0.28-0.625,0.627c0,0.344,0.278,0.623,0.625,0.623
			c0.345,0,0.624-0.279,0.624-0.623C29.297,39.608,29.018,39.328,28.673,39.328"/>
		<path class="st4" d="M47.995,22.689c0.47,0,0.854-0.382,0.854-0.854c0-0.471-0.384-0.852-0.854-0.852
			c-0.472,0-0.854,0.38-0.854,0.852C47.141,22.307,47.523,22.689,47.995,22.689"/>
		<path class="st4" d="M27.334,26.033c0.658,0,1.19-0.532,1.19-1.188c0-0.657-0.532-1.189-1.19-1.189
			c-0.654,0-1.189,0.533-1.189,1.189C26.146,25.501,26.681,26.033,27.334,26.033"/>
		<path class="st3" d="M31.437,35.611c-0.616,0-1.116,0.502-1.116,1.119c0,0.615,0.5,1.117,1.116,1.117
			c0.616,0,1.116-0.502,1.116-1.117C32.553,36.113,32.053,35.611,31.437,35.611"/>
		<path class="st3" d="M30.721,25.715c0.619,0,1.118-0.5,1.118-1.117s-0.5-1.118-1.118-1.118c-0.617,0-1.117,0.501-1.117,1.118
			S30.104,25.715,30.721,25.715"/>
		<path class="st3" d="M24.665,30.455c-0.411,0-0.747,0.334-0.747,0.746c0,0.414,0.336,0.748,0.747,0.748
			c0.415,0,0.749-0.334,0.749-0.748C25.414,30.789,25.079,30.455,24.665,30.455"/>
		<path class="st3" d="M37.531,16.339c0.572,0,1.038-0.465,1.038-1.037s-0.466-1.036-1.038-1.036c-0.573,0-1.037,0.464-1.037,1.036
			S36.958,16.339,37.531,16.339"/>
		<path class="st3" d="M46.926,32.94c-0.534,0-0.968,0.433-0.968,0.968c0,0.534,0.434,0.968,0.968,0.968
			c0.537,0,0.968-0.434,0.968-0.968C47.894,33.373,47.463,32.94,46.926,32.94"/>
		<path class="st3" d="M47.463,26.587c-0.705,0-1.275,0.571-1.275,1.274c0,0.704,0.57,1.274,1.275,1.274
			c0.702,0,1.272-0.57,1.272-1.274C48.736,27.158,48.165,26.587,47.463,26.587"/>
		<path class="st3" d="M50.398,30.455c-0.413,0-0.746,0.334-0.746,0.746c0,0.414,0.333,0.748,0.746,0.748
			c0.413,0,0.747-0.334,0.747-0.748C51.145,30.789,50.811,30.455,50.398,30.455"/>
		<path class="st3" d="M44.342,25.715c0.618,0,1.119-0.5,1.119-1.117s-0.5-1.118-1.119-1.118c-0.617,0-1.118,0.501-1.118,1.118
			S43.725,25.715,44.342,25.715"/>
		<path class="st3" d="M29.105,33.908c0-0.535-0.433-0.967-0.967-0.967c-0.536,0-0.969,0.432-0.969,0.967
			c0,0.534,0.434,0.968,0.969,0.968C28.672,34.876,29.105,34.442,29.105,33.908"/>
		<path class="st3" d="M27.602,29.136c0.704,0,1.274-0.57,1.274-1.274c0-0.704-0.57-1.274-1.274-1.274s-1.273,0.571-1.273,1.274
			C26.329,28.565,26.898,29.136,27.602,29.136"/>
		<path class="st3" d="M43.627,37.848c0.616,0,1.115-0.5,1.115-1.117s-0.5-1.119-1.115-1.119s-1.116,0.502-1.116,1.119
			S43.012,37.848,43.627,37.848"/>
	</g>
</g>
</svg>
