<?xml version="1.0" encoding="utf-8"?>
<!-- Generator: Adobe Illustrator 16.0.0, SVG Export Plug-In . SVG Version: 6.00 Build 0)  -->
<!DOCTYPE svg PUBLIC "-//W3C//DTD SVG 1.1//EN" "http://www.w3.org/Graphics/SVG/1.1/DTD/svg11.dtd">
<svg version="1.1" id="logo" xmlns="http://www.w3.org/2000/svg" xmlns:xlink="http://www.w3.org/1999/xlink" x="0px" y="0px"
	 width="93.494px" height="47.345px" viewBox="0 0 93.494 47.345" style="enable-background:new 0 0 93.494 47.345;"
	 xml:space="preserve">
<style type="text/css">
<![CDATA[
	.st0{opacity:0.75;fill:none;}
	.st1{fill:#006FBA;}
	.st2{fill:#007397;}
	.st3{fill:#009A49;}
	.st4{fill:#43B02A;}
]]>
</style>
<rect x="-22.815" y="-11.468" class="st0" width="139.262" height="75.5"/>
<g>
	<g>
		<path class="st1" d="M60.178,18.903c-3.887,0-6.723,0.584-7.817,1.124c-0.064,0.034-0.235,0.136-0.235,0.305V47.12
			c0,0.123,0.1,0.225,0.226,0.225h6.357c0.121,0,0.221-0.102,0.221-0.225v-5.672h3.078c5.977,0,8.878-5.295,8.878-11.188
			C70.885,22.831,67.121,18.903,60.178,18.903 M60.757,36.4h-1.828V24.132h1.939c2.796,0,3.188,3.061,3.188,6.129
			C64.057,33.266,63.665,36.4,60.757,36.4"/>
		<path class="st1" d="M93.488,40c-1.226-5.08-4.759-16.751-6.928-20.745c-0.041-0.074-0.117-0.119-0.197-0.119h-7.809
			c-0.084,0-0.155,0.045-0.199,0.122C76.242,23.271,72.597,35.143,71.429,40c-0.003,0.017-0.009,0.034-0.009,0.049v1.175
			c0,0.123,0.103,0.225,0.228,0.225h5.951c0.104,0,0.19-0.071,0.215-0.172c0.117-0.482,0.238-1.011,0.369-1.568
			c0.189-0.809,0.397-1.862,0.613-2.761h6.918c0.189,0.796,0.354,1.747,0.516,2.493c0.139,0.659,0.271,1.277,0.403,1.836
			c0.026,0.101,0.118,0.172,0.22,0.172h6.416c0.124,0,0.225-0.102,0.225-0.225v-1.175C93.494,40.034,93.49,40.017,93.488,40
			 M79.884,32.239c0.304-1.222,2.357-8.017,2.357-8.017h0.217c0,0,1.955,6.802,2.229,8.017H79.884z"/>
		<path class="st1" d="M42.818,24.132c2.215,0,4.041,1.63,4.041,1.63c0.02,0.005,0.04,0.007,0.059,0.007h1.953
			c0.121,0,0.224-0.098,0.224-0.223v-4.899c0-0.087-0.057-0.161-0.135-0.203c-1.275-0.714-4.468-1.538-7.187-1.538
			c-7.064,0-11.111,4.912-11.111,11.391c0,6.473,4.268,11.387,11.111,11.387c2.763,0,5.911-0.864,7.187-1.542
			c0.078-0.041,0.135-0.12,0.135-0.206V35.04c0-0.124-0.103-0.227-0.224-0.227h-1.953c-0.019,0-0.039,0.002-0.059,0.004
			c0,0-1.826,1.635-4.041,1.635c-3.686,0-5.162-3.082-5.162-6.156C37.656,27.214,39.132,24.132,42.818,24.132"/>
	</g>
	<g>
		<path class="st1" d="M14.717,23.78c-0.718,0-1.302,0.582-1.302,1.301c0,0.721,0.584,1.301,1.302,1.301
			c0.719,0,1.302-0.58,1.302-1.301C16.019,24.362,15.436,23.78,14.717,23.78 M14.717,27.076c-0.565,0-1.02,0.454-1.02,1.021
			c0,0.561,0.455,1.018,1.02,1.018c0.563,0,1.021-0.457,1.021-1.018C15.737,27.53,15.28,27.076,14.717,27.076 M17.957,17.349
			c-0.497,0-0.942,0.218-1.249,0.562c-0.161-0.3-0.388-0.555-0.658-0.755c0.286-0.317,0.465-0.739,0.465-1.199
			c0-0.718-0.422-1.334-1.031-1.621c0.497-0.273,0.833-0.8,0.833-1.406c0-0.882-0.716-1.6-1.6-1.6c-0.883,0-1.601,0.717-1.601,1.6
			c0,0.606,0.337,1.133,0.833,1.406c-0.606,0.286-1.028,0.902-1.028,1.621c0,0.46,0.178,0.882,0.464,1.199
			c-0.273,0.2-0.497,0.456-0.658,0.755c-0.309-0.344-0.753-0.562-1.25-0.562c-0.926,0-1.677,0.75-1.677,1.676
			c0,0.927,0.75,1.677,1.677,1.677c0.516,0,0.975-0.232,1.283-0.599c0.161,0.282,0.381,0.524,0.644,0.714
			c-0.29,0.314-0.467,0.732-0.467,1.193c0,0.977,0.792,1.77,1.767,1.77c0.978,0,1.77-0.793,1.77-1.77
			c0-0.457-0.174-0.871-0.46-1.184c0.271-0.191,0.496-0.436,0.659-0.724c0.309,0.366,0.768,0.599,1.284,0.599
			c0.926,0,1.677-0.75,1.677-1.677C19.634,18.1,18.883,17.349,17.957,17.349 M14.717,30.394c-0.399,0-0.724,0.326-0.724,0.727
			s0.325,0.727,0.724,0.727c0.401,0,0.725-0.326,0.725-0.727S15.118,30.394,14.717,30.394 M14.711,33.605
			c-0.301,0-0.547,0.244-0.547,0.547c0,0.304,0.246,0.544,0.547,0.544c0.302,0,0.547-0.24,0.547-0.544
			C15.258,33.85,15.014,33.605,14.711,33.605 M21.172,17.634c-0.847,0-1.535,0.687-1.535,1.535c0,0.848,0.688,1.533,1.535,1.533
			c0.848,0,1.536-0.686,1.536-1.533C22.708,18.321,22.02,17.634,21.172,17.634 M8.262,17.634c-0.846,0-1.535,0.687-1.535,1.535
			c0,0.848,0.689,1.533,1.535,1.533c0.849,0,1.537-0.686,1.537-1.533C9.798,18.321,9.11,17.634,8.262,17.634"/>
		<path class="st1" d="M14.716,11.31c0.774,0,1.403-0.628,1.403-1.405c0-0.771-0.629-1.399-1.403-1.399
			c-0.773,0-1.402,0.628-1.402,1.399C13.314,10.682,13.943,11.31,14.716,11.31"/>
		<path class="st1" d="M24.382,18.125c-0.707,0-1.279,0.573-1.279,1.28c0,0.706,0.572,1.278,1.279,1.278
			c0.706,0,1.278-0.572,1.278-1.278C25.66,18.699,25.088,18.125,24.382,18.125"/>
		<path class="st1" d="M6.332,19.405c0-0.707-0.572-1.28-1.278-1.28s-1.279,0.573-1.279,1.28c0,0.706,0.574,1.278,1.279,1.278
			S6.332,20.111,6.332,19.405"/>
		<path class="st2" d="M18.137,11.6c-0.763,0-1.381,0.618-1.381,1.382c0,0.761,0.618,1.38,1.381,1.38c0.761,0,1.38-0.619,1.38-1.38
			C19.517,12.217,18.898,11.6,18.137,11.6"/>
		<path class="st2" d="M18.047,14.512c-0.823,0-1.493,0.668-1.493,1.494c0,0.823,0.669,1.491,1.493,1.491
			c0.823,0,1.493-0.668,1.493-1.491C19.54,15.18,18.87,14.512,18.047,14.512"/>
		<path class="st2" d="M17.868,20.658c-0.779,0-1.414,0.634-1.414,1.411c0,0.782,0.634,1.415,1.414,1.415s1.415-0.633,1.415-1.415
			C19.283,21.292,18.647,20.658,17.868,20.658"/>
		<path class="st2" d="M17.778,23.606c-0.834,0-1.508,0.676-1.508,1.51s0.674,1.508,1.508,1.508c0.833,0,1.508-0.674,1.508-1.508
			S18.611,23.606,17.778,23.606"/>
		<path class="st2" d="M21.351,14.73c-0.785,0-1.419,0.633-1.419,1.416c0,0.785,0.634,1.417,1.419,1.417
			c0.783,0,1.416-0.632,1.416-1.417C22.766,15.363,22.133,14.73,21.351,14.73"/>
		<path class="st2" d="M11.298,11.6c-0.762,0-1.38,0.618-1.38,1.382c0,0.761,0.618,1.38,1.38,1.38c0.762,0,1.381-0.619,1.381-1.38
			C12.679,12.217,12.06,11.6,11.298,11.6"/>
		<path class="st2" d="M11.387,14.512c-0.824,0-1.494,0.668-1.494,1.494c0,0.823,0.669,1.491,1.494,1.491
			c0.823,0,1.494-0.668,1.494-1.491C12.881,15.18,12.21,14.512,11.387,14.512"/>
		<path class="st2" d="M11.566,20.658c-0.781,0-1.415,0.634-1.415,1.411c0,0.782,0.634,1.415,1.415,1.415
			c0.781,0,1.413-0.633,1.413-1.415C12.979,21.292,12.348,20.658,11.566,20.658"/>
		<path class="st2" d="M11.657,23.606c-0.833,0-1.508,0.676-1.508,1.51s0.675,1.508,1.508,1.508s1.507-0.674,1.507-1.508
			S12.49,23.606,11.657,23.606"/>
		<path class="st2" d="M8.084,14.73c-0.782,0-1.417,0.633-1.417,1.416c0,0.785,0.635,1.417,1.417,1.417
			c0.783,0,1.417-0.632,1.417-1.417C9.502,15.363,8.867,14.73,8.084,14.73"/>
		<path class="st2" d="M11.209,11.29c0.733,0,1.331-0.597,1.331-1.33c0-0.736-0.597-1.332-1.331-1.332
			c-0.734,0-1.332,0.595-1.332,1.332C9.877,10.693,10.475,11.29,11.209,11.29"/>
		<path class="st2" d="M7.177,22.21c0,0.699,0.567,1.263,1.265,1.263c0.699,0,1.267-0.563,1.267-1.263s-0.568-1.267-1.267-1.267
			C7.744,20.943,7.177,21.511,7.177,22.21"/>
		<path class="st2" d="M18.227,11.29c0.733,0,1.331-0.597,1.331-1.33c0-0.736-0.597-1.332-1.331-1.332
			c-0.735,0-1.332,0.595-1.332,1.332C16.896,10.693,17.492,11.29,18.227,11.29"/>
		<path class="st2" d="M14.716,8.116c0.695,0,1.257-0.562,1.257-1.258c0-0.693-0.562-1.256-1.257-1.256
			c-0.693,0-1.257,0.563-1.257,1.256C13.459,7.554,14.023,8.116,14.716,8.116"/>
		<path class="st2" d="M20.993,23.475c0.698,0,1.265-0.565,1.265-1.263c0-0.701-0.566-1.27-1.265-1.27
			c-0.699,0-1.267,0.568-1.267,1.27C19.726,22.909,20.294,23.475,20.993,23.475"/>
		<path class="st4" d="M8.8,27.41c-0.475,0-0.858,0.386-0.858,0.858c0,0.476,0.383,0.857,0.858,0.857s0.858-0.382,0.858-0.857
			C9.658,27.796,9.275,27.41,8.8,27.41"/>
		<path class="st4" d="M2.021,13.728c0-0.485-0.395-0.879-0.881-0.879s-0.879,0.394-0.879,0.879c0,0.489,0.393,0.881,0.879,0.881
			S2.021,14.217,2.021,13.728"/>
		<path class="st4" d="M4.255,11.221c0.471,0,0.853-0.382,0.853-0.854c0-0.471-0.382-0.852-0.853-0.852
			c-0.472,0-0.854,0.38-0.854,0.852C3.401,10.839,3.784,11.221,4.255,11.221"/>
		<path class="st4" d="M0.787,11.506c0.434,0,0.784-0.351,0.784-0.784c0-0.434-0.35-0.786-0.784-0.786S0,10.289,0,10.723
			C0,11.156,0.353,11.506,0.787,11.506"/>
		<path class="st4" d="M18.316,7.974c0.585,0,1.062-0.476,1.062-1.062c0-0.586-0.477-1.062-1.062-1.062
			c-0.586,0-1.062,0.476-1.062,1.062C17.254,7.498,17.73,7.974,18.316,7.974"/>
		<path class="st4" d="M11.118,7.974c0.585,0,1.062-0.476,1.062-1.062c0-0.586-0.477-1.062-1.062-1.062
			c-0.585,0-1.061,0.476-1.061,1.062C10.057,7.498,10.533,7.974,11.118,7.974"/>
		<path class="st4" d="M14.716,1.627c0.451,0,0.816-0.365,0.816-0.815C15.532,0.365,15.167,0,14.716,0
			c-0.45,0-0.814,0.365-0.814,0.813C13.902,1.263,14.267,1.627,14.716,1.627"/>
		<path class="st4" d="M18.405,4.66c0.426,0,0.771-0.346,0.771-0.772c0-0.425-0.346-0.77-0.771-0.77s-0.77,0.344-0.77,0.77
			C17.635,4.313,17.979,4.66,18.405,4.66"/>
		<path class="st4" d="M11.03,4.66c0.424,0,0.771-0.346,0.771-0.772c0-0.425-0.346-0.77-0.771-0.77c-0.426,0-0.77,0.344-0.77,0.77
			C10.26,4.313,10.604,4.66,11.03,4.66"/>
		<path class="st4" d="M28.648,11.506c0.434,0,0.785-0.351,0.785-0.784c0-0.434-0.352-0.786-0.785-0.786s-0.784,0.353-0.784,0.786
			C27.864,11.156,28.214,11.506,28.648,11.506"/>
		<path class="st4" d="M23.577,27.86c-0.346,0-0.625,0.28-0.625,0.627c0,0.344,0.278,0.623,0.625,0.623
			c0.347,0,0.625-0.279,0.625-0.623C24.202,28.141,23.923,27.86,23.577,27.86"/>
		<path class="st4" d="M19.775,28.269c0,0.476,0.385,0.858,0.86,0.858c0.473,0,0.857-0.383,0.857-0.858
			c0-0.473-0.384-0.859-0.857-0.859C20.16,27.409,19.775,27.796,19.775,28.269"/>
		<path class="st4" d="M28.293,12.849c-0.486,0-0.882,0.394-0.882,0.879c0,0.489,0.396,0.881,0.882,0.881s0.88-0.392,0.88-0.881
			C29.173,13.243,28.78,12.849,28.293,12.849"/>
		<path class="st4" d="M24.914,12.189c-0.656,0-1.189,0.53-1.189,1.188c0,0.656,0.533,1.188,1.189,1.188
			c0.657,0,1.188-0.532,1.188-1.188C26.102,12.719,25.571,12.189,24.914,12.189"/>
		<path class="st4" d="M5.858,27.86c-0.347,0-0.625,0.28-0.625,0.627c0,0.344,0.278,0.623,0.625,0.623
			c0.345,0,0.624-0.279,0.624-0.623C6.482,28.141,6.203,27.86,5.858,27.86"/>
		<path class="st4" d="M25.18,11.221c0.47,0,0.854-0.382,0.854-0.854c0-0.471-0.384-0.852-0.854-0.852
			c-0.472,0-0.854,0.38-0.854,0.852C24.326,10.839,24.708,11.221,25.18,11.221"/>
		<path class="st4" d="M4.52,14.565c0.658,0,1.19-0.532,1.19-1.188c0-0.657-0.532-1.189-1.19-1.189
			c-0.654,0-1.189,0.533-1.189,1.189C3.331,14.033,3.866,14.565,4.52,14.565"/>
		<path class="st3" d="M8.622,24.144c-0.616,0-1.116,0.502-1.116,1.119c0,0.615,0.5,1.117,1.116,1.117
			c0.616,0,1.116-0.502,1.116-1.117C9.738,24.646,9.238,24.144,8.622,24.144"/>
		<path class="st3" d="M7.906,14.248c0.619,0,1.118-0.5,1.118-1.117s-0.5-1.118-1.118-1.118c-0.617,0-1.117,0.501-1.117,1.118
			S7.29,14.248,7.906,14.248"/>
		<path class="st3" d="M1.85,18.987c-0.411,0-0.747,0.334-0.747,0.746c0,0.414,0.336,0.748,0.747,0.748
			c0.415,0,0.749-0.334,0.749-0.748C2.599,19.321,2.264,18.987,1.85,18.987"/>
		<path class="st3" d="M14.716,4.871c0.572,0,1.038-0.465,1.038-1.037s-0.466-1.036-1.038-1.036c-0.573,0-1.037,0.464-1.037,1.036
			S14.144,4.871,14.716,4.871"/>
		<path class="st3" d="M24.111,21.473c-0.534,0-0.968,0.433-0.968,0.968c0,0.534,0.434,0.968,0.968,0.968
			c0.537,0,0.968-0.434,0.968-0.968C25.079,21.905,24.648,21.473,24.111,21.473"/>
		<path class="st3" d="M24.648,15.119c-0.705,0-1.275,0.571-1.275,1.274c0,0.704,0.57,1.274,1.275,1.274
			c0.702,0,1.272-0.57,1.272-1.274C25.921,15.69,25.35,15.119,24.648,15.119"/>
		<path class="st3" d="M27.583,18.987c-0.413,0-0.746,0.334-0.746,0.746c0,0.414,0.333,0.748,0.746,0.748
			c0.413,0,0.747-0.334,0.747-0.748C28.33,19.321,27.996,18.987,27.583,18.987"/>
		<path class="st3" d="M21.527,14.248c0.618,0,1.119-0.5,1.119-1.117s-0.5-1.118-1.119-1.118c-0.617,0-1.118,0.501-1.118,1.118
			S20.91,14.248,21.527,14.248"/>
		<path class="st3" d="M6.29,22.44c0-0.535-0.433-0.967-0.967-0.967c-0.536,0-0.969,0.432-0.969,0.967
			c0,0.534,0.434,0.968,0.969,0.968C5.857,23.408,6.29,22.975,6.29,22.44"/>
		<path class="st3" d="M4.787,17.668c0.704,0,1.274-0.57,1.274-1.274c0-0.704-0.57-1.274-1.274-1.274s-1.273,0.571-1.273,1.274
			C3.514,17.098,4.083,17.668,4.787,17.668"/>
		<path class="st3" d="M20.813,26.38c0.616,0,1.115-0.5,1.115-1.117s-0.5-1.119-1.115-1.119s-1.116,0.502-1.116,1.119
			S20.197,26.38,20.813,26.38"/>
	</g>
</g>
</svg>
