<?xml version="1.0" encoding="utf-8"?>
<!-- Generator: Adobe Illustrator 16.0.0, SVG Export Plug-In . SVG Version: 6.00 Build 0)  -->
<!DOCTYPE svg PUBLIC "-//W3C//DTD SVG 1.1//EN" "http://www.w3.org/Graphics/SVG/1.1/DTD/svg11.dtd">
<svg version="1.1" id="Layer_1" xmlns="http://www.w3.org/2000/svg" xmlns:xlink="http://www.w3.org/1999/xlink" x="0px" y="0px"
	 width="1994.61px" height="1994.883px" viewBox="0 0 1994.61 1994.883" style="enable-background:new 0 0 1994.61 1994.883;"
	 xml:space="preserve">
<style type="text/css">
<![CDATA[
	.st0{fill-rule:evenodd;clip-rule:evenodd;fill:#590C06;}
	.st1{fill-rule:evenodd;clip-rule:evenodd;fill:#F4012E;}
	.st2{fill-rule:evenodd;clip-rule:evenodd;fill:#FFFFFE;}
]]>
</style>
<g>
	<path class="st1" d="M298.083,1375.769c-9.609-14.083-16.304-29.717-23.451-45.054c-29.976-64.329-50.758-131.602-62.385-201.58
		c-10.026-60.343-13.121-121.091-9.134-182.225c10.437-160.016,63.867-304.173,161.198-431.372
		c103.51-135.274,237.306-228.087,400.168-278.464c86.739-26.831,175.712-38.091,266.298-33.682
		c190.721,9.283,357.477,77.754,499.892,205.154c15.406,13.782,29.991,28.403,44.403,43.202c1.13,1.159,1.931,2.639,2.881,3.967
		c0.782,0.989,1.568,1.983,2.354,2.976c0,0-0.479-0.388-0.475-0.388c0.8,0.813,1.596,1.627,2.392,2.439c0,0-0.432-0.395-0.428-0.395
		c0.742,0.845,1.48,1.688,2.219,2.533c0,0-0.147-0.497-0.147-0.495c0.641,3.409,2.242,5.93,5.98,6.477l-0.144-0.166
		c-0.054,1.91,0.544,3.412,2.538,4.034c0,0-0.191-0.502-0.19-0.501c1.485,7.115,6.848,12.093,10.909,17.38
		c26.896,35.012,49.064,72.886,69,112.106c11.007,21.653,20.726,43.941,29.536,66.605c8.927,22.965,17.144,46.2,23.594,69.96
		c11.684,43.041,21.052,86.55,25.231,131.092c2.395,25.511,4.254,51.043,4.948,76.632c0.632,23.297-1.513,46.522-3.02,69.771
		c-1.4,21.619-3.92,43.074-7.461,64.381c-5.835,35.111-13.935,69.701-24.245,103.835c-11.389,37.699-25.676,74.222-42.432,109.757
		c-21.061,44.664-46.548,86.746-75.739,126.624c-18.109,24.738-37.54,48.347-58.397,70.763
		c-21.571,23.185-44.531,44.938-68.755,65.381c-24.949,21.055-50.933,40.739-78.307,58.454
		c-36.942,23.907-75.512,44.897-115.959,62.418c-31.794,13.772-64.179,25.844-97.485,35.333
		c-31.348,8.931-63.169,15.653-95.387,20.88c-28.625,4.644-57.365,7.791-86.25,8.883c-53.646,2.028-107.078-0.265-160.211-9.135
		c-30.219-5.045-60.116-11.226-89.613-19.348c-23.434-6.453-46.33-14.575-69.13-23.016c-57.129-21.15-110.608-49.444-160.938-83.47
		c-46.692-31.567-89.663-67.717-128.244-109.033c-25.427-27.23-49.957-55.073-70.974-85.939c-3.779-5.552-6.422-12.46-13.071-15.797
		l0.122,0.192c0.097-3.564-1.464-6.237-4.394-8.175c0,0,0.35,0.403,0.348,0.404c-0.635-0.83-1.268-1.661-1.9-2.491
		c0,0,0.041,0.104,0.041,0.104c-0.659-1.203-1.317-2.404-1.976-3.605l-0.617-0.247c0,0,0.058-0.663,0.063-0.655
		c-0.451-0.842-0.909-1.691-1.366-2.541c-0.711-0.301-1.001-0.832-0.864-1.585C298.771,1377.359,298.427,1376.564,298.083,1375.769z
		 M1167.725,806.578c0.58,0.574,1.16,1.148,1.74,1.722c8.953,15.809,13.607,33.177,18.352,50.515
		c2.356,8.613,4.286,10.132,13.219,10.463c1.991,0.073,3.99-0.076,5.985-0.123c2.612,8.58,6.078,17.009,7.639,25.776
		c2.35,13.197,9.266,12.685,18.901,11.779c5.974-0.561,7.495-3.147,6.681-9.53c-2.145-16.798-4.652-33.555-6.464-50.388
		c-2.524-23.455-5.285-46.894-6.516-70.477c-0.342-6.557-1.13-7.005-8.018-7.29c-5.654-0.233-11.313-0.379-16.969-0.563
		c-0.953-9.932-1.897-19.864-2.863-29.794c-0.67-6.885-0.681-6.938-7.794-7.268c-9.976-0.462-19.946-0.579-29.91-1.72
		c-19.517-2.233-38.761-6.39-58.373-7.918c-32.979-2.568-65.234,0.141-96.005,13.231c-38.073,16.196-67.313,42.033-82.684,80.953
		c-17.268,43.724-11.382,84.243,20.938,119.714c2.668,2.927,5.353,5.837,8.029,8.755c0.427,1.11,0.94,2.139,2.256,2.42l-0.095-0.153
		c-0.659,5.644,3.471,9.207,6.167,13.169c13.545,19.899,32.252,34.216,52.151,47.138c26.001,16.885,54.097,29.961,81.334,44.598
		c15.521,8.342,30.943,16.85,45.171,27.359c3.707,2.738,6.424,6.88,11.215,8.115c0.623,1.139,1.453,2.211,1.838,3.426
		c5.204,16.393,4.148,32.902,0.581,49.38c-6.076,28.063-22.888,46.387-50.891,52.976c-32.188,7.573-64.22,5.582-95.437-5.394
		c-12.326-4.334-23.448-11.063-32.064-21.275c-0.648-1.202-0.778-2.76-2.306-3.357l0.03,0.432
		c-5.275-17.321-13.714-33.476-18.752-50.897c-1.117-3.86-4.306-5.659-8.419-5.581c-2.308,0.044-4.616-0.011-6.925-0.021
		c-5.564-9.916-8.259-20.932-12.152-31.492c-2.266-6.143-8.162-8.017-16.938-5.952c-6.251,1.471-7.605,3.319-6.955,10.899
		c1.396,16.249,3.105,32.471,4.484,48.721c2.054,24.21,3.922,48.436,5.89,72.653c0.56,6.882,0.601,6.786,7.692,7.293
		c5.921,0.423,11.994-0.753,17.739,1.605c0.908,9.603,0.487,19.288,2.216,28.854c1.297,7.18,0.999,7.446,8.618,7.494
		c12.68,0.079,25.215,1.557,37.685,3.579c26.892,4.36,53.022,12.526,80.323,15.079c36.363,3.4,71.784,0.62,105.864-13.146
		c35.12-14.186,61.251-38.329,77.901-72.375c7.781-15.913,12.373-32.877,14.643-50.483c3.044-23.615,1.458-46.64-9.736-68.053
		c-5.955-11.39-11.992-23.027-23.198-30.572l0.122,0.14c-0.049-1.608-0.604-2.947-2.031-3.823
		c-12.555-23.999-30.557-43.145-52.293-59.04c-13.426-9.818-27.385-18.789-41.882-26.903
		c-24.046-13.457-48.327-26.496-72.251-40.165c-13.201-7.542-26.45-15.188-37.327-26.13c-0.068-8.318-0.885-16.711-0.066-24.942
		c2.612-26.305,14.974-46.188,40.781-55.025c29.475-10.094,58.762-8.966,87.213,4.616c3.162,1.509,5.898,4.69,10.053,3.173
		l-0.063-0.063c-0.824,2.367,0.379,3.484,2.492,4.04L1167.725,806.578z M408.186,1148.77l-0.135-0.519
		c-0.444,3.423,2.062,5.562,3.729,7.914c17.689,24.961,39.167,46.107,64.827,62.783c30.464,19.798,63.758,32.692,99.322,40.041
		c20.591,4.255,41.358,6.634,62.321,7.636c38.857,1.857,76.958-4.301,115.019-10.869c26.529-4.578,52.952-9.893,79.963-10.998
		c6.451-0.264,6.821-0.735,8.354-8.669c6.302-32.636,13.31-65.119,20.951-97.468c1.451-6.146,2.803-12.316,4.212-18.474
		c0.814-3.563,0.342-6.773-3.184-8.575c-6.521-3.332-15.824-0.148-19.411,6.514c-4.261,7.911-8.335,15.926-12.777,23.732
		c-1.494,2.626-1.949,6.778-6.571,6.33c0.083-6.716,2.236-13.063,3.648-19.521c3.337-15.257,7.004-30.441,10.502-45.663
		c0.666-2.896,1.609-5.846-1.572-8.109c-5.71-4.059-16.651-1.861-20.111,4.327c-2.268,4.056-4.054,8.379-6.197,12.508
		c-15.897,30.617-36.678,56.955-66.048,75.898c-25.117,16.2-52.803,24.952-82.228,28.392c-31.659,3.7-63.147,3.36-93.695-7.296
		c-27.165-9.477-50.856-24.279-69.354-46.708c-0.383-1.293-0.656-2.662-2.181-3.17l0.076,0.168
		c0.597-6.471-3.828-11.174-6.066-16.588c-13.942-33.726-18.442-69.17-19.54-105.229c-0.477-15.634,1.375-31.139,3.377-46.641
		c4.878-37.777,16.265-73.044,37.514-105.071c23.84-35.933,56.104-59.828,97.754-70.758c25.364-6.656,51.151-7.802,77.11-3.888
		c27.281,4.113,52.912,12.708,75.754,28.555c7.072,4.907,13.84,10.252,20.747,15.396l-0.54-0.245
		c0.632,0.744,1.265,1.489,1.896,2.233c5.252,6.971,7.558,15.24,10.029,23.379c1.47,4.837,4.287,7.145,9.283,6.995
		c1.969-0.059,3.942,0.066,5.913,0.107c3.748,9.204,7.717,18.325,11.185,27.634c3.733,10.021,5.378,11.255,16.031,9.985
		c6.611-0.788,7.843-2.194,7.685-8.948c-0.038-1.658-0.165-3.328-0.433-4.964c-6.163-37.624-12.284-75.257-15.889-113.234
		c-0.496-5.23-3.011-6.781-7.744-6.708c-5.314,0.082-10.634-0.162-15.95-0.265c-2.65-9.687-2.968-19.706-4.188-29.594
		c-0.896-7.264-0.818-7.539-7.515-7.626c-33.381-0.436-66.276-6.08-99.396-9.256c-42.269-4.053-84.336-5.108-126.367,2.488
		c-46.616,8.425-89.39,25.651-127.478,54.059c-100.147,74.691-128.75,212.701-66.636,321.068
		c7.639,13.327,17.385,25.128,26.173,37.624c0.318,1.693,1.467,2.593,2.992,3.132c1.285,0.229,2.074,0.956,2.287,2.267
		C406.04,1146.47,406.388,1148.096,408.186,1148.77z M1391.413,807.042c1.688,6.834,2.043,13.8,2.044,20.798
		c0.016,96.908,0.022,193.816,0.048,290.726c0.002,7.336-0.598,14.613-1.327,21.915c-2.148,21.522-13.582,35.36-33.73,42.743
		c-12.585,4.612-25.593,7.146-38.697,9.475c-7.813,1.389-10.961,6.736-9.851,16.387c0.995,8.646,3.544,11.133,12.138,10.812
		c14.964-0.56,29.939-0.796,44.861-2.447c9.561-1.058,19.209-1.313,28.818-1.929c-6.733,4.423-13.99,7.619-21.882,9.315
		c-9.101,1.956-18.211,3.864-27.304,5.854c-6.648,1.455-8.459,3.413-8.88,9.928c-0.192,2.979-0.251,6.041,0.208,8.974
		c0.971,6.189,4.16,8.76,10.276,8.418c20.591-1.146,41.199-2.102,61.759-3.674c29.516-2.257,58.943-4.567,88.626-1.988
		c29.81,2.591,59.729,3.9,89.6,5.8c3.084,0.195,6.478,0.314,8.255-2.377c3.679-5.573,3.779-11.903,2.408-18.286
		c-1.233-5.746-5.755-6.072-10.504-7.234c-11.193-2.738-23.178-2.977-33.213-9.699c2.856-1.393,5.868-0.387,8.803-0.562
		c2.038-0.121,4.108-0.428,5.172-2.351c3.402-6.148,3.195-12.66,1.599-19.254c-1.333-5.51-6.048-5.305-10.218-6.019
		c-2.932-0.501-5.892-0.882-8.784-1.55c-11.552-2.667-23.403-4.387-33.886-10.506c-2.098-29.92-1.604-59.887-1.613-89.844
		c-0.018-64.953,0.115-129.907-0.094-194.859c-0.049-15.331,0.732-30.604,1.649-45.871c1.084-18.049,8.07-32.9,25.193-41.19
		c6.569-3.181,13.308-6.105,20.543-7.614c9.109-1.9,18.163-4.098,27.319-5.724c4.211-0.748,6.376-2.705,7.528-6.73
		c1.034-3.612,1.607-7.196,0.97-10.832c-1.336-7.618-4.533-9.666-10.491-9.259c-8.626,0.591-17.311,0.438-25.969,0.42
		c-15.296-0.031-30.448,3.448-45.803,1.802c3.907-3.322,8.782-4.483,13.487-6.01c10.16-3.295,20.68-4.964,31.138-6.943
		c7.417-1.403,9.038-3.111,9.819-10.255c0.321-2.946,0.285-6.026-0.193-8.946c-1.037-6.317-2.741-7.856-9.215-7.872
		c-13.646-0.032-27.287,0.21-40.906,1.358c-46.174,3.893-92.377,4.937-138.642,1.465c-20.241-1.52-40.487-3.201-60.819-2.896
		c-8.188,0.123-10.588,2.249-11.707,10.183c-1.451,10.286,2.253,15.294,12.643,17.373c10.711,2.143,21.709,3.196,31.704,8.138
		c-2.128,1.177-4.505,0.811-6.775,1.138c-7.481,1.081-9.363,3.216-9.9,11c-0.113,1.647-0.155,3.309-0.091,4.958
		c0.312,7.98,3.156,11.738,10.946,12.807C1363.226,798.127,1377.584,801.493,1391.413,807.042z"/>
	<path class="st0" d="M996.793,1994.883c-245.498-3.454-463.469-81.718-650.943-241.382
		c-97.509-83.044-175.17-182.268-234.562-295.759c-1.384-2.643-2.696-5.339-3.8-8.107c-0.652-1.636-0.277-3.543,1.239-4.471
		c1.789-1.096,3.975-1.069,5.425,0.706c1.462,1.788,2.633,3.829,3.811,5.831c42.462,72.16,93.07,138.074,152.197,197.343
		c93.42,93.646,201.435,165.483,323.878,215.567c71.783,29.362,146.097,49.697,222.681,61.679
		c68.056,10.646,136.619,14.294,205.283,9.872c243.607-15.689,454.018-108.135,629.812-277.386
		c126.869-122.148,212.883-269.313,260.76-438.742c15.602-55.211,25.91-111.426,31.602-168.54
		c5.232-52.506,6.495-105.076,3.073-157.686c-8.238-126.664-39.316-247.473-94.281-361.994
		c-40.03-83.405-90.894-159.63-152.237-228.871c-1.542-1.741-3.177-3.44-4.445-5.371c-1.161-1.769-1.271-3.83,0.456-5.446
		c1.73-1.621,3.723-1.444,5.383,0.013c2.499,2.194,4.872,4.543,7.189,6.933c116.997,120.625,199.824,261.196,246.567,422.781
		c17.347,59.965,28.59,121.062,34.411,183.241c4.453,47.567,5.582,95.221,2.828,142.797
		c-12.906,222.966-89.655,421.25-233.7,592.267c-119.044,141.335-266.988,241.382-441.741,301.599
		c-62.507,21.538-126.672,36.187-192.208,44.658C1082.815,1991.928,1039.954,1994.887,996.793,1994.883z"/>
	<path class="st0" d="M309.652,1396.748c6.649,3.337,9.292,10.245,13.071,15.797c21.017,30.866,45.547,58.709,70.974,85.939
		c38.581,41.316,81.552,77.466,128.244,109.033c50.33,34.025,103.81,62.319,160.938,83.47c22.8,8.44,45.696,16.563,69.13,23.016
		c29.497,8.122,59.395,14.303,89.613,19.348c53.133,8.87,106.564,11.163,160.211,9.135c28.885-1.092,57.625-4.239,86.25-8.883
		c32.218-5.227,64.039-11.949,95.387-20.88c33.307-9.489,65.691-21.561,97.485-35.333c40.447-17.521,79.017-38.511,115.959-62.418
		c27.374-17.715,53.357-37.399,78.307-58.454c24.224-20.443,47.184-42.196,68.755-65.381c20.857-22.416,40.288-46.024,58.397-70.763
		c29.191-39.878,54.679-81.96,75.739-126.624c16.756-35.535,31.043-72.058,42.432-109.757
		c10.311-34.134,18.41-68.724,24.245-103.835c3.541-21.307,6.061-42.762,7.461-64.381c1.507-23.248,3.651-46.474,3.02-69.771
		c-0.694-25.589-2.554-51.121-4.948-76.632c-4.18-44.542-13.548-88.051-25.231-131.092c-6.45-23.76-14.667-46.995-23.594-69.96
		c-8.811-22.664-18.529-44.952-29.536-66.605c-19.936-39.221-42.104-77.095-69-112.106c-4.062-5.287-9.424-10.265-10.909-17.38
		c3.158,0.211,4.173,3.052,5.82,4.964c87.325,101.337,145.969,217.207,175.275,347.731c15.18,67.609,21.584,136.206,18.03,205.411
		c-10.029,195.322-79.912,366.174-213.53,509.394c-112.907,121.02-251.284,198.895-412.988,234.6
		c-73.285,16.182-147.64,21.654-222.448,15.889c-192.015-14.799-358.45-88.005-498.104-220.996
		c-37.258-35.48-70.15-74.816-99.725-116.932C331.812,1434.387,319.801,1416.156,309.652,1396.748z"/>
	<path class="st0" d="M111.8,1299.53c0.106,5.396-1.833,8.117-5.226,9.279c-14.787,5.063-29.647,9.914-44.49,14.814
		c-0.931,0.307-1.987,0.67-2.902,0.516c-8.752-1.475-8.189-9.486-10.418-15.368c-1.874-4.942,0.581-8.584,5.265-10.209
		c14.451-5.015,28.976-9.82,43.509-14.598c4.837-1.59,8.587,0.016,10.512,4.806C109.652,1292.757,110.891,1296.889,111.8,1299.53z"
		/>
	<path class="st0" d="M322.11,265.122c3.093,0.266,5.19,1.826,7.058,3.805c10.04,10.636,20.206,21.156,30.064,31.958
		c4.217,4.619,3.861,8.54-0.382,13.194c-1.562,1.713-3.346,3.239-5.13,4.729c-6.152,5.133-8.873,5.238-14.477-0.503
		c-9.983-10.229-19.818-20.613-29.441-31.182c-4.732-5.196-4.515-8.829,0.524-13.798C313.786,269.915,316.745,265.48,322.11,265.122
		z"/>
	<path class="st0" d="M777.38,81.188c0,1.071,0.081,1.747-0.013,2.398c-0.753,5.264-6.155,8.346-16.01,9.327
		c-4.99,0.497-8.504-1.201-9.824-6.255c-3.863-14.791-7.791-29.567-11.413-44.419c-1.165-4.778,0.758-8.533,5.758-10.112
		c2.213-0.698,4.479-1.247,6.742-1.771c8.938-2.069,11.519-0.794,13.812,7.751c3.617,13.479,6.913,27.045,10.343,40.574
		C777.019,79.645,777.241,80.614,777.38,81.188z"/>
	<path class="st0" d="M209.789,491.203c-2.246,5.211-4.771,11.062-10.245,14.699c-2.666,1.771-5.76,0.913-8.478-0.804
		c-12.646-7.985-25.411-15.787-37.908-23.998c-5.172-3.398-5.706-6.595-3.014-11.991c1.328-2.664,2.965-5.218,4.766-7.592
		c3.918-5.167,7.14-5.96,12.818-2.486c12.476,7.63,24.756,15.578,37.136,23.365C207.872,484.289,209.847,486.735,209.789,491.203z"
		/>
	<path class="st0" d="M1492.431,137.597c-0.011,2.445-1.515,4.672-2.806,6.98c-6.304,11.277-12.542,22.593-18.934,33.819
		c-4.523,7.943-7.932,8.789-16.178,4.406c-10.965-5.826-11.882-8.755-5.927-19.44c6.128-10.995,12.192-22.029,18.524-32.907
		c4.505-7.739,7.391-8.479,15.372-4.11C1486.957,128.794,1492.801,130.274,1492.431,137.597z"/>
	<path class="st0" d="M28.313,1203.253c-5.147,0.362-8.383-1.839-9.543-6.833c-0.675-2.903-1.261-5.847-1.589-8.806
		c-0.717-6.461,1.087-9.331,7.408-10.673c13.63-2.894,27.294-5.66,41.01-8.109c9.479-1.693,11.961,0.232,13.835,9.499
		c0.46,2.274,0.71,4.6,0.936,6.912c0.456,4.685-1.718,7.927-6.188,8.865C58.924,1197.309,43.607,1200.227,28.313,1203.253z"/>
	<path class="st0" d="M863.06,19.026c-0.342-7.344,1.193-9.379,7.853-10.94c1.614-0.378,3.256-0.683,4.901-0.875
		c9.895-1.158,12.701,0.995,13.853,10.69c1.568,13.192,3.189,26.38,4.586,39.592c0.907,8.576-0.631,10.407-9.093,11.971
		c-1.96,0.362-3.921,0.822-5.899,0.954c-6.929,0.462-10.146-1.703-11.065-8.488C866.231,47.452,864.696,32.917,863.06,19.026z"/>
	<path class="st0" d="M1123.26,8.276c2.348,0.236,5.032,0.297,7.628,0.809c6.079,1.199,8.486,4.225,7.757,10.555
		c-1.631,14.172-3.433,28.329-5.445,42.452c-1.116,7.828-3.507,9.534-11.31,9.093c-2.65-0.149-5.345-0.259-7.921-0.829
		c-5.437-1.201-8.066-4.507-7.423-9.998c1.702-14.499,3.567-28.982,5.648-43.431C1113.223,9.779,1115.721,8.046,1123.26,8.276z"/>
	<path class="st0" d="M524.735,119.316c3.386,0.611,5.965,1.833,7.555,4.751c7.321,13.431,14.718,26.819,22.023,40.258
		c2.486,4.574,1.301,8.4-2.97,11.173c-2.784,1.807-5.633,3.617-8.676,4.895c-5.217,2.19-9.025,1.094-11.843-3.886
		c-7.369-13.021-14.554-26.151-21.516-39.395c-2.833-5.387-1.849-8.607,3.197-11.838C516.389,122.789,520.375,120.3,524.735,119.316
		z"/>
	<path class="st0" d="M1597.471,204.885c0.161,2.883-1.434,5.05-3.009,7.192c-8.267,11.247-16.436,22.57-24.894,33.673
		c-4.733,6.214-7.944,6.564-14.387,2.342c-2.219-1.454-4.303-3.126-6.368-4.799c-4.011-3.248-4.744-7.472-1.871-11.479
		c9.1-12.693,18.464-25.199,27.893-37.652c2.445-3.229,6.078-4.414,9.751-2.201c3.676,2.215,7.078,4.922,10.419,7.638
		C1596.552,200.858,1597.389,202.775,1597.471,204.885z"/>
	<path class="st0" d="M621.128,79.429c0.01-3.039,0.59-5.787,3.273-7.055c4.187-1.978,8.461-3.964,12.913-5.128
		c4.008-1.048,7.188,1.192,8.721,4.988c5.851,14.478,11.617,28.99,17.275,43.545c1.157,2.977,0.684,6.127-1.904,8.227
		c-4.475,3.633-9.911,5.426-15.476,6.273c-3.138,0.478-5.851-1.599-7.062-4.605c-5.832-14.48-11.528-29.016-17.232-43.547
		C621.28,81.219,621.262,80.178,621.128,79.429z"/>
	<path class="st0" d="M279.849,395.639c-1.177,4.943-5.587,9.589-10.723,13.07c-4.716,3.197-8.671-0.466-12.326-3.509
		c-9.694-8.072-19.507-16.003-29.172-24.111c-7.844-6.58-8.073-9.502-1.816-17.313c7.817-9.76,10.361-10.042,20.185-2.032
		c9.521,7.764,19.012,15.566,28.47,23.406C277.26,387.465,280.376,389.668,279.849,395.639z"/>
	<path class="st0" d="M102.212,566.335c2.014,0.763,3.911,1.353,5.698,2.18c12.352,5.717,24.732,11.374,36.997,17.274
		c7.601,3.655,8.522,6.495,5.349,14.229c-0.755,1.841-1.521,3.691-2.462,5.441c-3.123,5.81-6.349,7.649-12.104,5.14
		c-13.992-6.104-27.728-12.799-41.551-19.289c-2.539-1.192-4.234-3.098-4.644-6.021c-0.573-4.102,4.543-15.629,8.059-17.539
		C98.95,566.992,100.649,566.791,102.212,566.335z"/>
	<path class="st0" d="M1238.938,94.807c-1.188-0.305-4.106-0.954-6.964-1.805c-7.78-2.314-9.524-5.219-7.466-13.276
		c3.371-13.193,6.862-26.358,10.518-39.476c2.385-8.556,4.914-9.846,13.801-7.746c2.259,0.533,4.494,1.18,6.716,1.858
		c5.048,1.544,6.935,5.278,5.737,10.057c-3.71,14.82-7.692,29.574-11.696,44.318C1248.396,93.109,1245.438,95.45,1238.938,94.807z"
		/>
	<path class="st0" d="M419.232,186.165c3.372-0.017,5.496,1.928,7.33,4.462c8.37,11.561,16.913,22.999,25.113,34.679
		c4.226,6.019,3.396,9.701-2.419,14.411c-2.061,1.669-4.148,3.373-6.446,4.667c-4.27,2.404-8.418,2.14-11.489-2.018
		c-9.072-12.278-18.169-24.547-26.918-37.055c-3.356-4.799-2.639-8.522,2.03-12.157C410.26,190.175,413.718,186.159,419.232,186.165
		z"/>
	<path class="st0" d="M57.056,682.834c2.384,0.697,4.952,1.388,7.481,2.198c10.761,3.448,21.515,6.915,32.262,10.406
		c11.78,3.827,12.977,6.289,8.957,18.248c-0.317,0.945-0.574,1.917-0.974,2.826c-2.464,5.616-5.284,7.571-10.908,5.892
		c-14.652-4.375-29.213-9.08-43.696-13.991c-5.097-1.729-6.673-5.086-5.522-10.182c0.802-3.551,1.942-7.071,3.358-10.426
		C49.607,684.037,52.75,682.392,57.056,682.834z"/>
	<path class="st0" d="M28.19,804.378c13.177,2.505,28.181,5.347,43.18,8.215c5.23,1.001,7.103,4.491,6.616,9.444
		c-0.259,2.635-0.743,5.269-1.377,7.84c-1.989,8.073-4.55,9.732-12.818,8.229c-13.386-2.434-26.768-4.9-40.127-7.477
		c-8.04-1.55-9.923-4.39-8.68-12.441c0.304-1.97,0.485-3.969,0.936-5.905C17.442,805.74,19.825,803.949,28.19,804.378z"/>
	<path class="st0" d="M25.034,928.727c9.617,0.623,19.243,1.145,28.849,1.901c7.09,0.56,9.312,3.002,9.498,10.032
		c0.061,2.319-0.045,4.668-0.349,6.968c-0.958,7.262-3.113,9.505-10.294,9.245c-14.613-0.53-29.219-1.354-43.809-2.342
		c-6.415-0.435-8.604-3.096-8.88-9.588c-0.098-2.319-0.053-4.667,0.184-6.975c0.781-7.617,3.157-9.688,10.84-9.683
		c4.65,0.002,9.301,0,13.952,0C25.028,928.434,25.031,928.581,25.034,928.727z"/>
	<path class="st0" d="M1352.521,133.041c-3.734-0.975-8.137-2.536-12.054-5.015c-3.584-2.27-4.174-6.101-2.744-9.742
		c5.692-14.498,11.608-28.909,17.519-43.32c1.252-3.053,3.742-4.753,7.064-4.466c5.725,0.494,10.974,2.618,15.44,6.144
		c2.976,2.348,2.848,5.983,1.569,9.197c-5.635,14.172-11.437,28.278-17.197,42.4
		C1360.507,132.194,1357.404,133.562,1352.521,133.041z"/>
	<path class="st0" d="M19.004,1078.917c-0.333,0.004-0.667-0.02-0.996,0.008c-17.44,1.413-16.183-1.601-17.069-17.317
		c-0.283-5.014,2.703-8.217,7.779-8.589c15.224-1.116,30.456-2.193,45.701-2.924c5.912-0.283,8.267,2.227,9.183,8.17
		c0.201,1.307,0.173,2.648,0.245,3.975c0.652,12.085-0.827,13.713-13.063,14.521C40.189,1077.458,29.598,1078.194,19.004,1078.917z"
		/>
	<path class="st0" d="M1013.869,31.375c0,7.301,0.188,14.606-0.054,21.898c-0.235,7.089-2.596,9.288-9.76,9.652
		c-2.976,0.151-5.987,0.168-8.95-0.112c-4.576-0.433-7.512-3.14-7.543-7.728c-0.11-15.924,0.076-31.85,0.173-47.774
		c0.004-0.65,0.104-1.368,0.39-1.938c4.076-8.155,11.619-4.528,17.745-4.8c5.492-0.243,7.792,2.318,8.038,7.911
		c0.334,7.617,0.083,15.26,0.083,22.891C1013.95,31.375,1013.91,31.375,1013.869,31.375z"/>
	<path class="st0" d="M1589.848,468.864c-3.738-0.547-5.34-3.067-5.98-6.477C1586.569,463.89,1588.481,466.125,1589.848,468.864z"/>
	<path class="st0" d="M305.381,1388.765c2.93,1.938,4.49,4.61,4.394,8.175C307.409,1394.699,305.847,1392.027,305.381,1388.765z"/>
	<path class="st0" d="M1580.307,458.692c-0.785-0.992-1.571-1.986-2.354-2.976C1579.311,456.259,1580.048,457.287,1580.307,458.692z
		"/>
	<path class="st0" d="M1592.242,472.732c-1.994-0.622-2.592-2.124-2.538-4.034C1591.367,469.528,1592.884,470.452,1592.242,472.732z
		"/>
	<path class="st0" d="M298.083,1375.769c0.344,0.795,0.688,1.59,1.026,2.379C298.1,1377.636,297.996,1376.744,298.083,1375.769z"/>
	<path class="st0" d="M299.974,1379.733c0.457,0.85,0.915,1.699,1.366,2.541C300.117,1381.832,300.005,1380.804,299.974,1379.733z"
		/>
	<path class="st0" d="M301.894,1383.176c0.658,1.201,1.316,2.402,1.976,3.605C302.715,1385.852,301.924,1384.723,301.894,1383.176z"
		/>
	<path class="st0" d="M1584.015,462.882c-0.738-0.845-1.477-1.688-2.219-2.533C1583.168,460.636,1583.939,461.454,1584.015,462.882z
		"/>
	<path class="st0" d="M1582.224,460.744c-0.796-0.813-1.592-1.626-2.392-2.439C1581.178,458.577,1581.954,459.412,1582.224,460.744z
		"/>
	<path class="st0" d="M303.828,1386.678c0.633,0.83,1.266,1.661,1.9,2.491C304.306,1388.943,303.904,1387.935,303.828,1386.678z"/>
	<path class="st2" d="M953.613,944.416c-2.677-2.918-5.361-5.828-8.029-8.755c-32.319-35.471-38.205-75.99-20.938-119.714
		c15.37-38.92,44.61-64.757,82.684-80.953c30.771-13.091,63.025-15.8,96.005-13.231c19.612,1.528,38.856,5.685,58.373,7.918
		c9.964,1.141,19.935,1.258,29.91,1.72c7.113,0.329,7.124,0.383,7.794,7.268c0.966,9.93,1.91,19.862,2.863,29.797
		c-0.047,1.654-0.278,3.324-0.11,4.953c2.888,28.055,5.769,56.121,10.379,83.949c0.985,5.951,0.195,9.657-5.523,11.787
		c-1.995,0.047-3.994,0.196-5.985,0.123c-8.933-0.331-10.862-1.85-13.219-10.463c-4.744-17.338-9.398-34.706-18.351-50.511
		c-0.153-1.003,0.065-2.385-1.741-1.726c0,0,0.566,0.153,0.563,0.152c0.339-2.067-0.485-3.417-2.489-4.039l0.063,0.063
		c-0.254-1.28-0.194-2.74-0.809-3.814c-14.455-25.306-35.05-42.008-64.579-46.585c-11.256-1.744-22.504-2.18-33.755-1.165
		c-17.47,1.575-34.104,5.827-47.31,18.409c-30.14,28.716-25.965,80.125,8.472,105.334c10.877,10.941,24.126,18.588,37.327,26.13
		c23.924,13.669,48.205,26.708,72.251,40.165c14.497,8.114,28.456,17.085,41.882,26.903c21.736,15.896,39.738,35.041,52.292,59.037
		c0.194,1.529-0.368,3.464,2.032,3.826l-0.122-0.14c-0.009,0.971-0.296,2.042,0.015,2.896c7.493,20.579,7.639,41.656,4.274,62.952
		c-7.006,44.348-28.254,79.736-66.247,104.378c-27.503,17.839-58.202,25.406-90.537,27.407
		c-31.867,1.972-62.896-3.266-93.749-10.567c-15.793-3.737-31.6-7.875-48.071-7.443c-5.745-2.358-11.818-1.183-17.739-1.605
		c-7.092-0.507-7.133-0.411-7.692-7.293c-1.968-24.218-3.836-48.443-5.89-72.653c-1.379-16.25-3.089-32.472-4.484-48.721
		c-0.65-7.58,0.704-9.429,6.955-10.899c8.776-2.064,14.673-0.19,16.938,5.952c3.894,10.561,6.588,21.576,12.152,31.493
		c6.346,20.915,18.22,38.746,31.3,55.884c0.441,0.579,1.842,0.426,2.796,0.614c0,0-0.03-0.432-0.031-0.431
		c-0.598,2.059,0.942,2.647,2.307,3.356c8.616,10.212,19.738,16.941,32.064,21.275c31.217,10.976,63.249,12.967,95.437,5.394
		c28.003-6.589,44.814-24.913,50.891-52.976c3.567-16.478,4.623-32.987-0.581-49.38c-0.385-1.215-1.215-2.287-1.838-3.428
		c-1.153-6.773-5.064-12.18-8.887-17.578c-8.566-12.103-19.656-21.603-31.664-30.095c-13.865-9.806-28.564-18.253-43.584-26.121
		c-38.508-20.173-77.854-38.921-111.903-66.583c0,0,0.095,0.153,0.095,0.152C955.73,945.456,954.85,944.77,953.613,944.416z"/>
	<path class="st2" d="M400.355,1139.484c-8.788-12.496-18.534-24.297-26.173-37.624c-62.114-108.367-33.512-246.377,66.636-321.068
		c38.088-28.407,80.861-45.634,127.478-54.059c42.031-7.597,84.099-6.541,126.367-2.488c33.119,3.176,66.015,8.82,99.396,9.256
		c6.696,0.087,6.618,0.362,7.515,7.626c1.221,9.888,1.538,19.907,4.188,29.595c-0.577,4.323,0.305,8.525,0.954,12.766
		c3.696,24.116,7.41,48.23,10.942,72.37c1.191,8.147,0.957,8.182-6.781,11.363c-1.971-0.041-3.944-0.166-5.913-0.107
		c-4.996,0.149-7.813-2.158-9.283-6.995c-2.472-8.139-4.777-16.408-10.028-23.379c-0.096-1.2-0.096-2.481-1.897-2.233
		c0,0,0.54,0.245,0.539,0.244c0.406-2.584-1.257-4.406-2.434-6.356c-9.932-16.447-22.677-30.364-38.011-41.906
		c-27.324-20.568-58.346-31.563-92.157-34.748c-48.27-4.548-92.802,5.348-131.18,36.316c-31.614,25.511-51.056,59.214-62.795,97.57
		c-14.166,46.286-16.609,93.54-9.494,141.231c5.264,35.28,16.829,68.4,37.384,97.927c3.534,5.076,6.398,10.848,12.038,14.19
		c0,0-0.076-0.168-0.076-0.167c-0.136,1.65,0.851,2.527,2.181,3.169c18.497,22.429,42.188,37.231,69.354,46.708
		c30.548,10.656,62.036,10.996,93.695,7.296c29.425-3.439,57.11-12.191,82.228-28.392c29.37-18.943,50.15-45.281,66.048-75.898
		c2.144-4.129,3.93-8.452,6.197-12.508c3.46-6.188,14.401-8.386,20.111-4.327c3.182,2.264,2.238,5.213,1.572,8.109
		c-3.498,15.222-7.165,30.406-10.502,45.663c-1.412,6.459-3.565,12.806-3.646,19.521c0.003-0.001,0.169,0.153,0.169,0.153
		c-1.579,1.119-1.381,2.689-1.09,4.284c-0.731,2.19-1.694,4.333-2.158,6.578c-2.756,13.349-5.424,26.716-8.064,40.087
		c-1.393,7.051-1.344,7.012-8.88,7.456c-4.982,0.294-9.966,0.646-14.93,1.155c-33.465,3.437-66.374,10.457-99.57,15.629
		c-47.876,7.46-95.479,7.26-142.922-2.776c-47.761-10.104-90.823-29.824-127.595-62.523c-3.798-3.377-6.65-8.023-11.717-9.939
		c0,0,0.135,0.519,0.136,0.517c0.818-2.394-1.066-3.008-2.552-3.886c-0.213-1.311-1.002-2.038-2.285-2.264
		C402.887,1141.067,401.71,1140.19,400.355,1139.484z"/>
	<path class="st2" d="M1354.294,766.202c-9.995-4.941-20.993-5.995-31.704-8.138c-10.39-2.079-14.094-7.087-12.643-17.373
		c1.119-7.934,3.519-10.06,11.707-10.183c20.332-0.306,40.578,1.376,60.819,2.896c46.265,3.472,92.468,2.428,138.642-1.465
		c13.619-1.148,27.26-1.391,40.906-1.358c6.474,0.016,8.178,1.555,9.215,7.872c0.479,2.92,0.515,6,0.193,8.946
		c-0.781,7.144-2.402,8.852-9.819,10.255c-10.458,1.979-20.978,3.648-31.138,6.943c-4.705,1.526-9.58,2.688-13.485,6.009
		c-14.2,4.933-21.776,15.559-25.379,29.58c-2.933,11.412-2.567,23.113-2.582,34.715c-0.115,92.797-0.087,185.594-0.02,278.391
		c0.006,8.97,0.073,17.99,0.979,26.899c1.863,18.324,9.27,33.146,27.766,40.118c10.482,6.119,22.334,7.839,33.886,10.506
		c2.893,0.668,5.853,1.049,8.784,1.55c4.17,0.714,8.885,0.509,10.218,6.019c1.597,6.594,1.804,13.105-1.599,19.254
		c-1.063,1.923-3.134,2.229-5.172,2.351c-2.935,0.175-5.946-0.831-8.795,0.562c-33.493-2.644-66.946-5.969-100.557-7.04
		c-19.644-0.626-39.249-0.073-58.801,2.011c-9.609,0.615-19.258,0.871-28.818,1.929c-14.922,1.651-29.897,1.888-44.861,2.447
		c-8.594,0.321-11.143-2.166-12.138-10.812c-1.11-9.65,2.038-14.998,9.851-16.387c13.104-2.329,26.112-4.862,38.697-9.475
		c20.148-7.383,31.582-21.221,33.73-42.743c0.729-7.302,1.329-14.579,1.327-21.915c-0.025-96.909-0.032-193.817-0.048-290.726
		c-0.001-6.998-0.356-13.964-2.044-20.8c-1.007-15.418-8.372-26.818-21.565-34.731
		C1364.962,769.378,1359.595,767.935,1354.294,766.202z"/>
	<path class="st0" d="M497.646,1138.974c-5.64-3.343-8.504-9.114-12.038-14.19c-20.555-29.526-32.12-62.646-37.384-97.927
		c-7.115-47.691-4.672-94.945,9.494-141.231c11.739-38.356,31.181-72.06,62.795-97.57c38.378-30.969,82.91-40.864,131.18-36.316
		c33.812,3.186,64.833,14.18,92.157,34.748c15.334,11.542,28.079,25.459,38.011,41.906c1.177,1.95,2.84,3.772,2.434,6.356
		c-6.906-5.143-13.674-10.487-20.746-15.395c-22.842-15.847-48.473-24.441-75.754-28.555c-25.959-3.914-51.746-2.769-77.11,3.888
		c-41.65,10.93-73.914,34.825-97.754,70.758c-21.249,32.027-32.636,67.294-37.514,105.071c-2.002,15.502-3.854,31.007-3.377,46.641
		c1.098,36.059,5.598,71.503,19.54,105.229C493.817,1127.8,498.242,1132.503,497.646,1138.974z"/>
	<path class="st0" d="M408.051,1148.251c5.066,1.916,7.919,6.563,11.717,9.939c36.771,32.699,79.834,52.42,127.595,62.523
		c47.443,10.036,95.046,10.236,142.922,2.776c33.196-5.172,66.105-12.192,99.57-15.629c4.964-0.51,9.947-0.861,14.93-1.155
		c7.536-0.444,7.487-0.405,8.88-7.456c2.641-13.371,5.309-26.738,8.064-40.087c0.464-2.245,1.427-4.388,2.158-6.576
		c1.664-1.097,2.342-2.445,1.09-4.286c0,0-0.166-0.154-0.169-0.153c4.619,0.449,5.074-3.703,6.568-6.329
		c4.442-7.807,8.517-15.821,12.777-23.732c3.587-6.662,12.891-9.846,19.411-6.514c3.525,1.802,3.998,5.012,3.184,8.575
		c-1.409,6.157-2.761,12.327-4.212,18.474c-7.642,32.349-14.649,64.832-20.951,97.468c-1.532,7.934-1.902,8.405-8.354,8.669
		c-27.011,1.105-53.434,6.42-79.963,10.998c-38.061,6.568-76.161,12.727-115.019,10.869c-20.963-1.002-41.73-3.381-62.321-7.636
		c-35.564-7.349-68.858-20.243-99.322-40.041c-25.66-16.676-47.138-37.822-64.827-62.783
		C410.112,1153.813,407.606,1151.674,408.051,1148.251z"/>
	<path class="st0" d="M939.229,1210.476c16.472-0.432,32.278,3.706,48.071,7.443c30.853,7.302,61.882,12.539,93.749,10.567
		c32.335-2.001,63.034-9.568,90.537-27.407c37.993-24.642,59.241-60.03,66.247-104.378c3.364-21.296,3.219-42.373-4.274-62.952
		c-0.311-0.854-0.023-1.925-0.015-2.896c11.206,7.545,17.243,19.183,23.198,30.572c11.194,21.413,12.78,44.438,9.736,68.053
		c-2.27,17.606-6.861,34.57-14.643,50.483c-16.65,34.046-42.781,58.189-77.901,72.375c-34.08,13.766-69.501,16.546-105.864,13.146
		c-27.301-2.553-53.432-10.719-80.323-15.079c-12.47-2.022-25.005-3.5-37.685-3.579c-7.619-0.048-7.321-0.314-8.618-7.494
		C939.716,1229.764,940.137,1220.079,939.229,1210.476z"/>
	<path class="st0" d="M1517.752,1180.309c-18.496-6.973-25.902-21.794-27.766-40.118c-0.906-8.909-0.974-17.93-0.979-26.899
		c-0.067-92.797-0.096-185.594,0.02-278.391c0.015-11.602-0.351-23.303,2.582-34.715c3.603-14.021,11.179-24.647,25.379-29.58
		c15.353,1.647,30.505-1.832,45.801-1.801c8.658,0.018,17.343,0.171,25.969-0.42c5.958-0.407,9.155,1.641,10.491,9.259
		c0.638,3.636,0.064,7.22-0.97,10.832c-1.152,4.025-3.317,5.982-7.528,6.73c-9.156,1.626-18.21,3.823-27.319,5.724
		c-7.235,1.509-13.974,4.434-20.543,7.614c-17.123,8.29-24.109,23.142-25.193,41.19c-0.917,15.268-1.698,30.54-1.649,45.871
		c0.209,64.952,0.076,129.906,0.094,194.859C1516.147,1120.422,1515.654,1150.389,1517.752,1180.309z"/>
	<path class="st0" d="M1395.717,1215.52c19.552-2.084,39.157-2.637,58.801-2.011c33.61,1.071,67.063,4.396,100.557,7.04
		c10.027,6.723,22.012,6.961,33.205,9.699c4.749,1.162,9.271,1.488,10.504,7.234c1.371,6.383,1.271,12.713-2.408,18.286
		c-1.777,2.691-5.171,2.572-8.255,2.377c-29.87-1.899-59.79-3.209-89.6-5.8c-29.683-2.579-59.11-0.269-88.626,1.988
		c-20.56,1.572-41.168,2.527-61.759,3.674c-6.116,0.342-9.306-2.229-10.276-8.418c-0.459-2.933-0.4-5.994-0.208-8.974
		c0.421-6.515,2.231-8.473,8.88-9.928c9.093-1.989,18.203-3.897,27.304-5.854C1381.727,1223.139,1388.983,1219.943,1395.717,1215.52
		z"/>
	<path class="st0" d="M1027.882,874.932c-34.437-25.209-38.611-76.618-8.472-105.334c13.206-12.582,29.84-16.834,47.31-18.409
		c11.251-1.015,22.499-0.579,33.755,1.165c29.529,4.577,50.124,21.279,64.579,46.585c0.614,1.074,0.555,2.534,0.809,3.814
		c-4.154,1.518-6.891-1.664-10.053-3.173c-28.451-13.582-57.738-14.71-87.213-4.616c-25.808,8.838-38.169,28.721-40.781,55.025
		C1026.997,858.221,1027.813,866.614,1027.882,874.932z"/>
	<path class="st0" d="M955.774,946.682c34.05,27.662,73.396,46.41,111.903,66.583c15.02,7.868,29.719,16.315,43.584,26.121
		c12.008,8.492,23.098,17.992,31.664,30.095c3.822,5.398,7.733,10.805,8.887,17.578c-4.791-1.233-7.508-5.375-11.215-8.113
		c-14.228-10.51-29.649-19.018-45.171-27.359c-27.237-14.637-55.333-27.713-81.334-44.598
		c-19.899-12.922-38.606-27.238-52.151-47.138C959.245,955.889,955.115,952.326,955.774,946.682z"/>
	<path class="st0" d="M1207.021,869.154c5.719-2.13,6.509-5.836,5.523-11.787c-4.61-27.828-7.491-55.895-10.379-83.949
		c-0.168-1.629,0.063-3.299,0.11-4.953c5.656,0.182,11.314,0.327,16.969,0.561c6.888,0.285,7.676,0.733,8.018,7.29
		c1.23,23.583,3.991,47.021,6.516,70.477c1.812,16.833,4.319,33.59,6.464,50.388c0.814,6.383-0.707,8.97-6.681,9.53
		c-9.636,0.905-16.552,1.418-18.901-11.779C1213.099,886.163,1209.633,877.734,1207.021,869.154z"/>
	<path class="st0" d="M810.877,867.22c7.738-3.182,7.973-3.216,6.781-11.363c-3.532-24.14-7.246-48.254-10.942-72.37
		c-0.649-4.24-1.531-8.442-0.954-12.766c5.316,0.102,10.636,0.346,15.95,0.264c4.733-0.073,7.248,1.478,7.744,6.708
		c3.604,37.978,9.726,75.61,15.889,113.234c0.268,1.636,0.395,3.306,0.433,4.964c0.158,6.754-1.073,8.16-7.685,8.948
		c-10.653,1.27-12.298,0.035-16.031-9.985C818.594,885.545,814.625,876.424,810.877,867.22z"/>
	<path class="st0" d="M1354.294,766.202c5.301,1.733,10.668,3.177,15.554,6.106c13.193,7.913,20.559,19.313,21.565,34.731
		c-13.829-5.547-28.188-8.912-42.939-10.936c-7.79-1.068-10.635-4.826-10.946-12.807c-0.064-1.649-0.022-3.311,0.091-4.958
		c0.537-7.784,2.419-9.919,9.9-11C1349.789,767.012,1352.166,767.378,1354.294,766.202z"/>
	<path class="st0" d="M973.564,1163.248c-0.954-0.188-2.354-0.035-2.796-0.614c-13.08-17.138-24.954-34.969-31.3-55.884
		c2.309,0.009,4.617,0.063,6.925,0.02c4.113-0.078,7.302,1.721,8.419,5.581C959.851,1129.772,968.289,1145.926,973.564,1163.248z"/>
	<path class="st0" d="M400.355,1139.484c1.354,0.706,2.531,1.583,2.994,3.135C401.822,1142.077,400.674,1141.177,400.355,1139.484z"
		/>
	<path class="st0" d="M1165.799,802.691c2.004,0.622,2.828,1.972,2.489,4.039C1166.178,806.175,1164.975,805.058,1165.799,802.691z"
		/>
	<path class="st0" d="M1233.666,1030.994c-2.4-0.362-1.838-2.297-2.032-3.826
		C1233.063,1028.046,1233.617,1029.385,1233.666,1030.994z"/>
	<path class="st0" d="M405.635,1144.882c1.485,0.878,3.37,1.492,2.552,3.886C406.388,1148.096,406.04,1146.47,405.635,1144.882z"/>
	<path class="st0" d="M975.84,1166.173c-1.364-0.709-2.904-1.298-2.307-3.356C975.062,1163.414,975.191,1164.971,975.84,1166.173z"
		/>
	<path class="st0" d="M783.755,834.505c1.802-0.248,1.802,1.033,1.897,2.233C785.02,835.995,784.387,835.25,783.755,834.505z"/>
	<path class="st0" d="M499.75,1141.976c-1.33-0.642-2.316-1.519-2.181-3.169C499.094,1139.314,499.367,1140.683,499.75,1141.976z"/>
	<path class="st0" d="M1167.725,806.578c1.807-0.659,1.588,0.723,1.741,1.726C1168.885,807.726,1168.305,807.152,1167.725,806.578z"
		/>
	<path class="st0" d="M953.613,944.416c1.236,0.354,2.117,1.04,2.256,2.419C954.554,946.554,954.04,945.526,953.613,944.416z"/>
	<path class="st1" d="M824.977,1148.301c1.252,1.841,0.574,3.189-1.09,4.286C823.596,1150.991,823.397,1149.42,824.977,1148.301z"/>
</g>
</svg>
