<?xml version="1.0" encoding="utf-8"?>
<!-- Generator: Adobe Illustrator 16.0.0, SVG Export Plug-In . SVG Version: 6.00 Build 0)  -->
<!DOCTYPE svg PUBLIC "-//W3C//DTD SVG 1.1//EN" "http://www.w3.org/Graphics/SVG/1.1/DTD/svg11.dtd">
<svg version="1.1" id="Layer_1" xmlns="http://www.w3.org/2000/svg" xmlns:xlink="http://www.w3.org/1999/xlink" x="0px" y="0px"
	 width="310.491px" height="81.873px" viewBox="0 0 310.491 81.873" style="enable-background:new 0 0 310.491 81.873;"
	 xml:space="preserve">
<style type="text/css">
<![CDATA[
	.st0{fill-rule:evenodd;clip-rule:evenodd;fill:#3A3F48;}
	.st1{fill-rule:evenodd;clip-rule:evenodd;fill:#3A3F49;}
	.st2{fill-rule:evenodd;clip-rule:evenodd;fill:#3B4049;}
	.st3{fill-rule:evenodd;clip-rule:evenodd;fill:#3C414A;}
	.st4{fill-rule:evenodd;clip-rule:evenodd;fill:#3E434C;}
	.st5{fill-rule:evenodd;clip-rule:evenodd;fill:#3F444D;}
	.st6{fill-rule:evenodd;clip-rule:evenodd;fill:#42474F;}
	.st7{fill-rule:evenodd;clip-rule:evenodd;fill:#434850;}
	.st8{fill-rule:evenodd;clip-rule:evenodd;fill:#454A53;}
	.st9{fill-rule:evenodd;clip-rule:evenodd;fill:#474C54;}
	.st10{fill-rule:evenodd;clip-rule:evenodd;fill:#141A25;}
	.st11{fill-rule:evenodd;clip-rule:evenodd;fill:#151B26;}
	.st12{fill-rule:evenodd;clip-rule:evenodd;fill:#4B4F58;}
	.st13{fill-rule:evenodd;clip-rule:evenodd;fill:#4B5058;}
	.st14{fill-rule:evenodd;clip-rule:evenodd;fill:#181E29;}
	.st15{fill-rule:evenodd;clip-rule:evenodd;fill:#E6E7E8;}
	.st16{fill-rule:evenodd;clip-rule:evenodd;fill:#191F2A;}
	.st17{fill-rule:evenodd;clip-rule:evenodd;fill:#4D525A;}
	.st18{fill-rule:evenodd;clip-rule:evenodd;fill:#4F545C;}
	.st19{fill-rule:evenodd;clip-rule:evenodd;fill:#1A202B;}
	.st20{fill-rule:evenodd;clip-rule:evenodd;fill:#EFF0F0;}
	.st21{fill-rule:evenodd;clip-rule:evenodd;fill:#53575F;}
	.st22{fill-rule:evenodd;clip-rule:evenodd;fill:#545860;}
	.st23{fill-rule:evenodd;clip-rule:evenodd;fill:#545961;}
	.st24{fill-rule:evenodd;clip-rule:evenodd;fill:#242A34;}
	.st25{fill-rule:evenodd;clip-rule:evenodd;fill:#F5F5F6;}
	.st26{fill-rule:evenodd;clip-rule:evenodd;fill:#282D37;}
	.st27{fill-rule:evenodd;clip-rule:evenodd;fill:#F6F6F6;}
	.st28{fill-rule:evenodd;clip-rule:evenodd;fill:#292E38;}
	.st29{fill-rule:evenodd;clip-rule:evenodd;fill:#F7F7F7;}
	.st30{fill-rule:evenodd;clip-rule:evenodd;fill:#F8F8F9;}
	.st31{fill-rule:evenodd;clip-rule:evenodd;fill:#F8F9F9;}
	.st32{fill-rule:evenodd;clip-rule:evenodd;fill:#F9F9F9;}
	.st33{fill-rule:evenodd;clip-rule:evenodd;fill:#2D323C;}
	.st34{fill-rule:evenodd;clip-rule:evenodd;fill:#2D333D;}
	.st35{fill-rule:evenodd;clip-rule:evenodd;fill:#FBFBFB;}
	.st36{fill-rule:evenodd;clip-rule:evenodd;fill:#2E333D;}
	.st37{fill-rule:evenodd;clip-rule:evenodd;fill:#2E343D;}
	.st38{fill-rule:evenodd;clip-rule:evenodd;fill:#FCFCFC;}
	.st39{fill-rule:evenodd;clip-rule:evenodd;fill:#FDFDFD;}
	.st40{fill-rule:evenodd;clip-rule:evenodd;fill:#696C73;}
	.st41{fill-rule:evenodd;clip-rule:evenodd;fill:#30353E;}
	.st42{fill-rule:evenodd;clip-rule:evenodd;fill:#323740;}
	.st43{fill-rule:evenodd;clip-rule:evenodd;fill:#323741;}
	.st44{fill-rule:evenodd;clip-rule:evenodd;fill:#333942;}
	.st45{fill-rule:evenodd;clip-rule:evenodd;fill:#343943;}
	.st46{fill-rule:evenodd;clip-rule:evenodd;fill:#353A44;}
	.st47{fill-rule:evenodd;clip-rule:evenodd;fill:#363B44;}
	.st48{fill-rule:evenodd;clip-rule:evenodd;fill:#363B45;}
	.st49{fill-rule:evenodd;clip-rule:evenodd;fill:#373C45;}
	.st50{fill-rule:evenodd;clip-rule:evenodd;fill:#383D46;}
	.st51{fill-rule:evenodd;clip-rule:evenodd;fill:#393E47;}
	.st52{fill-rule:evenodd;clip-rule:evenodd;fill:#0198C9;}
	.st53{fill-rule:evenodd;clip-rule:evenodd;fill:#0298CA;}
	.st54{fill-rule:evenodd;clip-rule:evenodd;fill:#D3D4D6;}
]]>
</style>
<g>
	<path class="st11" d="M0.14,41.524c7.229-14.099,19.694-20.969,34.323-24.833c1.816-0.479,3.651-1.23,5.656-0.22
		c-1.083,2.136-3.421,2.185-5.182,3.009c-5.584,2.611-10.647,5.884-14.935,10.346c-9.976,10.386-10.124,23.695-0.202,34.241
		c7.452,7.921,17.071,11.878,27.37,14.485c-1.075,2.666-3.024,1.253-4.722,1.013C24.29,77.18,8.949,70.305,0.14,53.018
		C0.14,49.187,0.14,45.354,0.14,41.524z"/>
	<path class="st5" d="M609.285,61.063c-0.716,0.792-1.434,1.583-2.15,2.374c-1.271,0.576-1.444-0.089-1.279-1.135
		c2.197-3.371-0.941-3.121-2.621-3.875c-2.277-1.021-5.108-1.998-3.466-5.249c1.579-3.124,4.254-2.968,7.103-1.549
		c-0.472,1.77-1.539,1.196-2.35,1.255c-1.088,0.08-2.512-0.264-2.845,1.148c-0.338,1.431,1.003,1.953,2.062,2.218
		c2.311,0.578,4.155,1.75,5.547,3.663C609.285,60.296,609.285,60.68,609.285,61.063z"/>
	<path class="st10" d="M243.628,45.617c3.674,5.128,7.126,9.921,10.548,14.738c0.636,0.896,1.81,1.734,1.353,2.957
		c-0.635,1.695-2.295,0.842-3.524,1.041c-3.625,0.591-6.178-0.843-8.156-3.915c-2.374-3.687-5.009-7.208-7.569-10.772
		c-0.865-1.204-1.601-2.388-3.396-2.73c-7.887-1.511-9.628-0.171-9.629,7.812c0,1.721-0.101,3.448,0.021,5.16
		c0.206,2.897-0.326,4.603-3.952,4.57c-3.371-0.03-4.792-0.808-4.751-4.445c0.155-13.759,0.146-27.521,0.002-41.282
		c-0.036-3.478,1.096-4.735,4.623-4.584c6.486,0.278,13.014-0.158,19.479,0.318c9.692,0.718,15.298,5.408,16.479,13.001
		C256.422,35.619,253.125,40.982,243.628,45.617z"/>
	<path class="st11" d="M127.371,44.916c0.364-6.041,2.988-8.17,8.814-7.962c11.81,0.422,11.821,0.117,11.82,11.789
		c-0.001,10.912-1.53,12.839-12.68,15.977c-12.064,3.394-24.514-0.864-30.299-10.366c-6.032-9.906-4.683-23.589,3.153-31.978
		c7.705-8.248,21.216-10.44,31.783-5.354c3.051,1.468,4.41,2.858,2.66,6.455c-1.515,3.113-2.475,3.797-5.753,1.805
		c-7.902-4.798-16.561-3.521-21.917,2.59c-5.529,6.309-6.018,16.667-1.104,23.426c4.676,6.432,13.519,8.217,21.785,5.079
		c5.286-2.007,3.783-6.127,3.563-9.579c-0.243-3.813-3.624-1.348-5.515-1.781C131.715,44.567,129.568,44.916,127.371,44.916z"/>
	<path class="st11" d="M271.312,39.236c0.001-7.07,0.067-14.143-0.034-21.213c-0.037-2.57,0.657-3.959,3.523-3.824
		c7.05,0.331,14.143-0.588,21.163,0.722c8.397,1.568,13.341,7.008,13.759,15.142c0.431,8.369-4.135,14.798-12.235,17.11
		c-4.466,1.275-9.074,1.366-13.649,1.078c-3.041-0.192-4.089,0.873-3.818,3.862c0.223,2.464-0.055,4.97,0.067,7.448
		c0.151,3.097-0.403,4.865-4.29,4.942c-4.226,0.084-4.619-1.858-4.535-5.201C271.428,52.618,271.311,45.926,271.312,39.236z"/>
	<path class="st11" d="M180.315,52.655c-1.722,0-3.49,0.255-5.157-0.048c-5.068-0.918-7.846,1.209-9.064,6.056
		c-0.405,1.608-0.846,3.621-2.476,4.332c-2.112,0.924-4.832,1.145-6.667,0.036c-2.237-1.349-0.047-3.381,0.616-4.923
		c5.649-13.138,11.479-26.196,17.078-39.355c1.259-2.961,2.696-4.63,6.244-4.603c3.381,0.025,4.557,1.751,5.715,4.451
		c5.786,13.492,11.797,26.888,17.542,40.397c0.633,1.489,3.542,3.958,0.199,5.045c-2.349,0.763-5.753,1.633-7.741-1.611
		c-0.099-0.162-0.14-0.359-0.242-0.52c-1.818-2.86-1.576-7.605-4.696-8.742c-3.37-1.227-7.533-0.277-11.351-0.277
		C180.315,52.814,180.315,52.734,180.315,52.655z"/>
	<path class="st11" d="M35.114,2.586c16.469-0.311,31.427,3.978,43.467,15.64c10.67,10.334,10.505,23.681-0.293,33.839
		c-9.784,9.204-21.737,13.725-35.108,14.62c8.117-3.233,15.991-6.81,22.329-13.044c11.585-11.397,11.32-26.088-0.689-37.234
		C58.08,10.15,48.756,5.937,35.114,2.586z"/>
	<path class="st53" d="M51.873,41.036c0.008,4.925-3.816,8.677-8.758,8.591c-4.702-0.082-8.344-3.654-8.489-8.327
		c-0.149-4.846,3.681-8.879,8.506-8.961C47.963,32.257,51.864,36.139,51.873,41.036z"/>
	<path class="st24" d="M451.916,64.049c0-4.489-0.048-8.979,0.022-13.466c0.03-1.925-0.8-4.503,2.725-4.348
		c4.119,0.181,8.781-0.74,10.527,4.583c1.015,3.095-0.932,5.018-3.387,6.479c-0.314,0.188-0.73,0.299-1.097,0.29
		c-4.517-0.121-8.406,0.45-6.256,7.981C453.606,65.062,452.76,64.555,451.916,64.049z"/>
	<path class="st41" d="M394.366,47.293c3.038-0.025,6.08-0.163,9.112-0.052c4.037,0.148,6.729,4.674,3.856,6.869
		c-4.553,3.48-1.88,5.549,0.161,8.241c0.308,0.406,0.39,0.983,0.613,1.58c-2.499,0.865-2.97-1.313-3.813-2.492
		c-1.727-2.41-3.404-4.523-6.859-3.85c-3.792,0.74-0.801,3.881-2.063,5.468c-0.175,0.222-0.665,0.193-1.008,0.282
		C393.438,57.991,393.438,52.643,394.366,47.293z"/>
	<path class="st51" d="M373.852,57.695c-0.642,4.279-2.828,6.923-7.14,6.817c-4.331-0.105-6.748-2.922-6.623-7.038
		c0.125-4.109,2.743-6.816,7.021-6.697C371.371,50.896,373.438,53.686,373.852,57.695z"/>
	<path class="st42" d="M587.355,55.773c-0.369-4.547-4.587-1.818-6.573-3.373c4.821-2.76,8.408-1.411,8.915,3.499
		c0.422,4.113,1.311,8.754-5.431,8.629c-2.922-0.054-5.607-0.398-5.961-3.804c-0.369-3.57,2.288-4.335,5.206-4.578
		C584.773,56.041,586.122,56.774,587.355,55.773z"/>
	<path class="st20" d="M492.859,22.17c1.488-0.479,2.977-0.958,4.464-1.436c3.489,2.227,6.043,5.039,3.655,9.32
		c-1.62,2.905-4.295,4.221-7.61,2.122C489.441,29.034,490.408,25.64,492.859,22.17z"/>
	<path class="st52" d="M332.628,69.359c0-20.132,0-40.264,0-60.396c0.21,0.001,0.42,0.001,0.63,0.002c0,20.18,0,40.36,0,60.54
		C333.049,69.457,332.838,69.409,332.628,69.359z"/>
	<path class="st37" d="M385.052,27.146c0.493-4.06,2.634-6.637,6.929-6.636c4.353,0.001,6.774,2.75,6.751,6.809
		c-0.023,4.102-2.706,6.82-6.883,6.785C387.701,34.069,385.382,31.463,385.052,27.146z"/>
	<path class="st36" d="M556.276,27.237c0.586-4.209,2.743-6.781,7.041-6.725c4.342,0.058,6.741,2.807,6.673,6.88
		c-0.071,4.114-2.786,6.781-6.952,6.713C558.87,34.035,556.652,31.331,556.276,27.237z"/>
	<path class="st26" d="M457.38,20.882c1.872,4.064,3.743,8.129,6.175,13.411c-3.94-1.931-4.623-5.86-8.989-5.493
		c-3.966,0.332-6.171,1.769-7.835,5.124c-0.427-0.276-0.854-0.552-1.279-0.828c2.22-4.826,4.441-9.651,6.662-14.478
		c1.012-0.084,1.396,0.572,1.651,1.389c0.105,0.731-0.038,1.442-0.139,2.17c-0.174,1.259-1.691,3.308,0.544,3.515
		c1.943,0.181,0.974-2.31,1.467-3.552C455.942,21.338,456.374,20.708,457.38,20.882z"/>
	<path class="st46" d="M550.495,63.45c-4.34-2.65-4.631-6.321-1.905-10.059c2.297-3.152,5.771-3.884,8.991-1.406
		c3.687,2.836,4.434,6.408,1.096,10.208c-1.078,0.452-1.435-0.269-1.748-1.066c-0.215-1.117,0.112-2.252-0.066-3.368
		c-0.316-1.974-1.552-3.101-3.499-2.884c-2.255,0.25-2.413,2.028-2.165,3.843c0.178,1.305,0.951,2.46,1.018,3.804
		C551.946,63.397,551.567,64.069,550.495,63.45z"/>
	<path class="st46" d="M480.389,63.451c-4.349-2.649-4.62-6.331-1.904-10.063c2.293-3.15,5.774-3.882,8.994-1.402
		c3.684,2.836,4.434,6.409,1.09,10.208c-1.076,0.455-1.436-0.265-1.75-1.063c-0.216-1.116,0.112-2.251-0.064-3.368
		c-0.314-1.973-1.548-3.101-3.495-2.889c-2.256,0.246-2.419,2.022-2.172,3.839c0.179,1.304,0.949,2.459,1.021,3.804
		C481.84,63.392,481.462,64.064,480.389,63.451z"/>
	<path class="st44" d="M474.549,22.154c-2.213,1.444-3.265-0.089-4.571,0.042c-1.064,0.107-1.903,0.433-2.17,1.451
		c-0.296,1.139,0.511,1.679,1.472,2.025c0.355,0.128,0.677,0.357,1.035,0.476c2.858,0.941,6.101,2.191,3.881,5.827
		c-2.015,3.303-5.29,2.387-8.229,0.885c0.254-1.138,0.648-1.404,1.308-1.247c1.768,0.421,4.101,1.785,4.99-0.577
		c1.04-2.762-1.919-2.625-3.501-3.221c-2.464-0.929-4.398-2.624-2.911-5.072C467.946,19.294,471.089,20.104,474.549,22.154z"/>
	<path class="st47" d="M500.584,46.314c-1.781,1.738-7.733,2.367-1.554,5.694c0.22,0.117,0.301,0.493,0.447,0.749
		c-3.635-0.022-2.718,2.651-2.884,4.763c-0.173,2.2,0.647,4.522-0.705,6.654c-2.066-3.298-2.597-14.398-0.799-16.819
		C496.498,45.46,498.221,44.958,500.584,46.314z"/>
	<path class="st43" d="M542.975,15.242c0.466,3.961,1.467,6.175,5.834,5.613c-2.763,1.854-5.854,1.387-5.126,4.869
		c0.59,2.823-1.313,6.611,4.195,7.035c-2.609,1.914-5.083,1.541-5.444-0.228C541.376,27.362,539.52,21.996,542.975,15.242z"/>
	<path class="st2" d="M377.719,64.066c0.563-5.252-2.131-10.322,0.149-15.71c1.264-2.987,3.143-3.297,6.063-2.173
		c-3.975,2.049-3.887,2.008-2.091,5.818c0.923,1.956-2.958,0.364-2.313,3.059c0.682,2.853,0.153,5.995,0.153,9.012
		C379.027,64.069,378.374,64.068,377.719,64.066z"/>
	<path class="st33" d="M361.544,29.738c-2.839-4.141-2.704-8.291,0.872-11.59c3.779-3.486,8.079-3.152,13.521,0.322
		c-4.697,0.774-8.216-2.45-11.599,0.654C360.899,22.283,362.539,26.172,361.544,29.738z"/>
	<path class="st45" d="M403.672,21.758c3.534-0.807,7.245-2.828,10.184,1.167c1.693,2.303,1.829,4.889,0.7,7.468
		c-1.803,4.114-5.365,3.285-8.719,2.966c-0.348-0.481-0.33-0.948,0.051-1.402c0.761-0.601,1.694-0.847,2.563-1.229
		c1.998-0.879,3.071-2.356,2.402-4.543c-0.775-2.533-2.729-2.182-4.685-1.618c-0.553,0.16-1.127,0.126-1.688-0.038
		C403.648,23.768,402.82,23.007,403.672,21.758z"/>
	<path class="st48" d="M424.251,62.239c2.075-3.443-1.189-3.08-2.781-3.857c-2.216-1.082-5.12-1.952-3.388-5.236
		c1.646-3.117,4.316-2.885,7.168-1.434c-0.497,1.725-1.54,1.147-2.337,1.153c-1.111,0.009-2.543-0.281-2.918,1.011
		c-0.522,1.795,1.202,1.983,2.355,2.54c5.377,2.594,5.371,2.606,3.096,6.978C424.21,63.878,424.019,63.277,424.251,62.239z"/>
	<path class="st6" d="M427.671,33.32c-1.609-0.495-2.924,0.658-4.397,0.793c-2.673,0.244-5.127-0.465-5.744-3.406
		c-0.66-3.145,1.683-4.207,4.183-5.095c1.654-0.586,3.917,1.227,5.035-1.301c3.12,1.049,0.721,2.445,0.24,3.725
		c-1.173,1.056-2.957,0.609-4.202,1.693c0.855,1.563,2.43,0.479,3.533,1C427.42,31.252,428.002,32.05,427.671,33.32z"/>
	<path class="st2" d="M534.977,24.324c-1.808-2.97-4.934-1.459-8.921-1.779c4.314-2.434,7.435-3.076,9.826-0.336
		c2.592,2.969,2.29,7.466,0.848,10.229c-0.812,1.556-5.71,2.865-9.047,1.03c-0.288-0.281-0.406-0.581-0.355-0.899
		c0.053-0.327,0.121-0.491,0.199-0.49c1.976-1.627,5.737-0.641,6.313-4.316C533.867,26.498,535.209,25.676,534.977,24.324z"/>
	<path class="st10" d="M433.855,58.905c-1.541,1.313-1.36,3.376-2.098,5.148c-1.929-3.383-2.102-12.93,0.59-17.916
		c0,3.778,0,7.557,0,11.336C432.801,58.001,433.616,58.15,433.855,58.905z"/>
	<path class="st14" d="M380.158,33.378c0-5.963,0-11.928,0-17.893c0.322-0.017,0.646-0.034,0.968-0.051c0,5.988,0,11.978,0,17.968
		C380.804,33.394,380.48,33.386,380.158,33.378z"/>
	<path class="st4" d="M493.177,31.254c2.616,1.415,5.092,1.522,6.854-1.235c1.684-2.631,0.916-4.932-1.331-6.958
		c-0.638-0.575-0.923-1.541-1.374-2.326c5.153,1.88,7.082,5.638,4.994,9.741c-1.925,3.784-5.811,4.496-10.384,1.901
		C492.095,31.72,492.516,31.355,493.177,31.254z"/>
	<path class="st10" d="M595.208,46.229c0,5.913,0,11.826,0,17.739c-0.289,0.02-0.58,0.041-0.871,0.063c0-5.896,0-11.792,0-17.688
		C594.628,46.305,594.919,46.267,595.208,46.229z"/>
	<path class="st34" d="M479.479,23.274c-0.175,2.143,1.627,2.425,2.963,2.891c2.722,0.947,5.459,2.021,3.885,5.542
		c-1.381,3.084-4.296,2.596-6.997,1.835c-0.957-0.27-1.727-0.779-2.053-1.78c0.823-1.028,1.643-0.392,2.487-0.067
		c1.865,0.72,4.249,1.349,4.877-0.994c0.551-2.057-2.06-2.275-3.57-2.891c-2.723-1.108-5.093-2.326-2.612-5.769
		C479.518,21.857,479.931,22.208,479.479,23.274z"/>
	<path class="st7" d="M524.595,51.968c-6.3,1.639-6.89,2.247-4.384,3.899c1.647,1.087,4.118,0.817,5.973,4.745
		c-3.942-2.064-7.318-1.676-9.24-4.909c-0.803-1.354-0.222-2.706,0.771-3.59C519.725,50.321,521.915,50.12,524.595,51.968z"/>
	<path class="st2" d="M426.542,27.731c0.271-1.128,1.8-2.18,0.206-3.42c-1.862-3.222-5.013-1.293-7.625-2.231
		c2.655-1.661,5.909-2.71,8.085-0.21c2.873,3.299,3.043,7.518,0.464,11.45c-0.399-0.768-0.8-1.535-1.2-2.303
		C425.496,29.9,425.664,28.809,426.542,27.731z"/>
	<path class="st51" d="M374.787,24.489c2.043,2.679,2.235,5.819-0.308,7.739c-3.789,2.864-8.127,3.24-12.646-0.531
		c4.372-1.621,11.921,4.815,11.829-5.108C373.692,25.704,374.183,25.066,374.787,24.489z"/>
	<path class="st50" d="M433.855,58.905c-0.503-0.478-1.006-0.955-1.508-1.432c3.119-0.978,3.942-4.984,7.536-5.727
		c0.937,2.849-4.53,3.279-2.312,6.354c1.349,1.869,2.689,3.742,4.435,6.173C437.331,64.102,437.65,58.695,433.855,58.905z"/>
	<path class="st19" d="M468.814,50.247c3.678,5.177,0.679,9.584,0.529,13.864C467.802,59.908,467.958,55.628,468.814,50.247z"/>
	<path class="st10" d="M413.335,64.022c-1.904-4.238-1.771-8.457,0-12.739C413.335,55.529,413.335,59.775,413.335,64.022z"/>
	<path class="st5" d="M503.555,55.896c-2.135-2.282-0.065-3.285,1.411-4.318c1.86-1.299,3.886-1.32,5.811-0.094
		c2.211,1.411,3.538,3.324,3.058,6.111c-1.085,0.955-1.982,0.396-2.862-0.346C509.193,53.01,506.123,55.824,503.555,55.896z"/>
	<path class="st3" d="M542.743,51.124c1.318,4.387,1.234,8.721-0.248,13.006C541.543,59.758,540.932,55.397,542.743,51.124z"/>
	<path class="st11" d="M564.754,63.961c-1.328-4.221-1.182-8.379-0.53-12.912C566.502,53.699,566.551,54.619,564.754,63.961z"/>
	<path class="st19" d="M405.934,32.155c-0.032,0.401-0.065,0.802-0.097,1.203c-2.014-0.175-4.314,0.582-3.963-3.187
		c0.456-4.874,0.111-9.824,0.111-16.103c2.508,3.264,1.641,5.547,1.687,7.688c0.329,0.799,0.658,1.597,0.988,2.396
		C405.352,26.778,406.083,29.396,405.934,32.155z"/>
	<path class="st10" d="M520.941,33.249c0-4.013,0-8.026,0-12.039c0.278-0.032,0.558-0.065,0.838-0.098c0,4.015,0,8.031,0,12.047
		C521.499,33.189,521.219,33.219,520.941,33.249z"/>
	<path class="st12" d="M527.832,31.965c-0.05,0.502-0.099,1.002-0.148,1.504c-3.09-3.787-2.246-6.69,2.166-7.896
		c1.702-0.465,3.891,1.048,5.128-1.249c1.432,1.29-0.085,2.235-0.388,3.321C532.58,29.465,529.457,29.544,527.832,31.965z"/>
	<path class="st10" d="M551.996,21.021c1.273,4.091,1.062,8.225,0.067,12.381C550.545,29.317,550.645,25.186,551.996,21.021z"/>
	<path class="st10" d="M583.735,34.706c-1.75-4.609,0.069-8.197-2.625-12.475C585.231,25.549,585.451,26.882,583.735,34.706z"/>
	<path class="st40" d="M511.517,56.343c0.42,1.071,1.261,1.36,2.317,1.253c-3.121,2.591-6.825,0.881-10.215,1.135
		c-1.619,0.121-2.117-1.845-0.08-2.957C506.245,55.321,509.002,54.146,511.517,56.343z"/>
	<path class="st1" d="M493.177,31.254c-0.413,0.375-0.825,0.749-1.24,1.123c-3.717-4.68-3.478-7.328,0.922-10.207
		C492.249,25.223,490.392,28.32,493.177,31.254z"/>
	<path class="st30" d="M511.517,56.343c-2.679,0.089-5.392,0.635-7.978-0.569c0,0,0.015,0.122,0.016,0.123
		C507.628,51.503,509.088,51.585,511.517,56.343z"/>
	<path class="st28" d="M535.92,59.9c-2.059-2.46-8.198-0.811-6.794-6.753c2.028-0.525,1.014,1.735,1.99,2.174
		c2.279,2.186,8.128,0.881,6.622,6.77C535.644,62.596,536.718,60.472,535.92,59.9z"/>
	<path class="st49" d="M508.016,32.393c-3.492-4.439-3.435-6.48,0.956-10.549c-0.893,3.609-2.251,6.715,0.301,9.38
		C509.492,32.299,509.284,32.915,508.016,32.393z"/>
	<path class="st22" d="M502.888,60.323c2.371,1.935,5.683,1.701,9.048,3.559C507.134,65.293,504.307,64.378,502.888,60.323z"/>
	<path class="st16" d="M567.974,52.352c7.36-0.566,8.917,3.22,6.373,11.717C571.458,60.614,576.802,53.829,567.974,52.352z"/>
	<path class="st54" d="M394.366,47.293c0,5.35,0,10.698,0,16.047c-2.535-5.22-0.74-10.688-0.898-16.042
		c-0.002-0.075,0.258-0.228,0.389-0.221C394.03,47.085,394.196,47.216,394.366,47.293z"/>
	<path class="st11" d="M434.432,15.416c0,5.952,0,11.903,0,17.855c-0.277,0.003-0.556,0.005-0.834,0.009c0-5.951,0-11.903,0-17.854
		C433.876,15.423,434.155,15.42,434.432,15.416z"/>
	<path class="st17" d="M535.92,59.9c0.606,0.729,1.212,1.46,1.818,2.19c-3.839,3.46-4.839,3.477-9.15-0.001
		C530.75,60.233,535.079,65.428,535.92,59.9z"/>
	<path class="st19" d="M574.17,34.557c-1.525-4.593-0.711-8.205-0.868-11.745c-0.056-1.244,0.275-2.429,1.911-1.221
		c0.539,0.398,2.546-0.073,1.437,1.275C574.065,26.017,575.877,29.876,574.17,34.557z"/>
	<path class="st8" d="M508.016,32.393c0.418-0.39,0.837-0.779,1.257-1.169c2.488,1.811,4.95,0.498,7.802-0.621
		C514.041,35.023,512.919,35.183,508.016,32.393z"/>
	<path class="st18" d="M531.117,55.321c-0.663-0.725-1.327-1.449-1.99-2.174c2.546-3.784,5.373-2.908,8.507-0.82
		C535.917,54.948,531.416,50.185,531.117,55.321z"/>
	<path class="st21" d="M424.251,62.239c0.398,0.385,0.797,0.77,1.195,1.154c-3.085,2.343-5.625,1.255-9.261-1.726
		C419.758,61.922,422.005,62.08,424.251,62.239z"/>
	<path class="st23" d="M524.353,63.767c-3.483,1.498-5.831,0.85-8.685-1.892C519.105,61.783,521.529,62.051,524.353,63.767z"/>
	<path class="st13" d="M605.855,62.302c0.426,0.379,0.853,0.757,1.279,1.135c-2.978,2.359-5.492,1.038-9.519-1.646
		C601.425,62.027,603.64,62.164,605.855,62.302z"/>
	<path class="st0" d="M453.121,19.964c-0.336-0.448-0.671-0.896-1.007-1.346c0.43-1.168,0.652-2.966,2.26-2.559
		c2.257,0.571,2.258,3.036,3.007,4.822c-0.357,0.441-0.714,0.882-1.071,1.322C454.521,22.488,454.167,20.733,453.121,19.964z"/>
	<path class="st9" d="M487.425,60.988c0.382,0.402,0.764,0.804,1.144,1.206c-2.36,2.802-5.062,3.384-8.18,1.257
		c0.438-0.395,0.874-0.789,1.313-1.184C483.333,60.604,485.252,60.227,487.425,60.988z"/>
	<path class="st9" d="M550.495,63.45c0.439-0.393,0.877-0.787,1.315-1.181c1.631-1.667,3.551-2.041,5.725-1.282
		c0.38,0.402,0.761,0.804,1.142,1.206C556.314,64.991,553.614,65.585,550.495,63.45z"/>
	<path class="st46" d="M42.449,79.565c1.518-0.601,3.364,0.328,4.722-1.013c2.136,0.346,4.271,0.69,6.407,1.036
		C49.777,80.489,46.069,81.112,42.449,79.565z"/>
	<path class="st16" d="M374.787,24.489c-0.034,0.883-0.201,1.694-1.125,2.1c-1.466-1.033-3.72,0.586-5.206-1.837
		C370.678,23.958,372.741,24.305,374.787,24.489z"/>
	<path class="st4" d="M479.479,23.274c-0.34-0.411-0.681-0.822-1.021-1.233c2.66-2.536,5.177-1.885,8.5,0.58
		C483.98,23.426,481.415,21.015,479.479,23.274z"/>
	<path class="st38" d="M231.64,39.149c-1.335,0-2.694-0.158-4.003,0.031c-3.542,0.512-4.917-0.873-4.411-4.424
		c0.581-4.066-1.894-10.573,1.13-11.778c5.374-2.139,12.106-1.694,17.874,0.691c5.435,2.25,5.595,10.435,0.521,13.677
		c-1.788,1.142-3.821,1.715-5.959,1.765c-1.717,0.038-3.435,0.008-5.152,0.008C231.64,39.129,231.64,39.139,231.64,39.149z"/>
	<path class="st39" d="M280.054,31.666c0.129-10.649-1.148-9.368,6.581-9.424c9.97-0.07,14.419,2.793,14.381,9.024
		c-0.039,6.27-4.723,8.508-14.978,9.244C277.257,41.141,280.745,35.206,280.054,31.666z"/>
	<path class="st32" d="M189.155,44.877c-5.134,0-9.443-0.104-13.745,0.036c-2.806,0.092-3.26-0.759-2.109-3.27
		c2.35-5.124,4.471-10.354,7.203-16.75C183.582,32.004,186.215,38.088,189.155,44.877z"/>
	<path class="st27" d="M457.51,56.204c-3.175,0.563-3.506-1.236-3.425-3.662c0.077-2.275-0.476-4.634,3.255-4.25
		c2.748,0.283,5.75,0.207,5.817,3.814C463.227,55.747,459.988,55.704,457.51,56.204z"/>
	<path class="st54" d="M398.574,55.512c-1.009,0.063-3.333,0.455-3.229-3.577c0.083-3.181,1.231-3.984,4.037-3.666
		c2.683,0.307,6.388-0.815,6.517,3.504C406.014,55.589,402.79,55.399,398.574,55.512z"/>
	<path class="st35" d="M371.451,56.755c-0.004,3.607-1.268,5.521-4.335,5.621c-3.005,0.1-4.676-1.652-4.791-4.535
		c-0.113-2.845,1.274-4.795,4.349-4.929C369.75,52.779,371.07,54.648,371.451,56.755z"/>
	<path class="st32" d="M583.963,57.628c1.467,0.286,3.481-0.491,3.481,1.899c-0.001,2.447-1.94,3.112-3.863,3.216
		c-1.499,0.081-3.137-0.41-3.082-2.446C580.56,57.989,582.357,57.818,583.963,57.628z"/>
	<path class="st29" d="M391.862,32.294c-2.874-0.472-4.482-2.077-4.519-5.013c-0.037-2.938,1.491-4.932,4.387-4.968
		c3.153-0.039,4.907,2.013,4.83,5.188C396.488,30.431,394.723,31.957,391.862,32.294z"/>
	<path class="st29" d="M567.895,27.124c-0.112,2.847-1.453,4.865-4.381,5.045c-2.912,0.179-4.649-1.534-4.871-4.485
		c-0.24-3.204,1.299-5.325,4.517-5.369C566.035,22.276,567.571,24.243,567.895,27.124z"/>
	<path class="st15" d="M453.121,19.964c2.47-1.255,1.934,1.767,3.188,2.24c-0.733,1.66,4.021,4.554-1.132,5.196
		c-3.478,0.434-5.683-0.194-3.234-4.327C452.5,22.135,452.737,21.006,453.121,19.964z"/>
	<path class="st32" d="M557.535,60.987c-1.675,1.471-3.671,1.506-5.725,1.282c-2.94-2.223-3.476-5.021-1.388-7.96
		c1.416-1.996,3.864-2.048,5.71-0.865C559.029,55.297,559.086,58.092,557.535,60.987z"/>
	<path class="st32" d="M487.425,60.988c-1.675,1.472-3.67,1.503-5.724,1.279c-2.935-2.228-3.471-5.023-1.377-7.96
		c1.423-1.994,3.865-2.048,5.71-0.86C488.921,55.304,488.996,58.095,487.425,60.988z"/>
	<path class="st27" d="M405.934,32.155c-1.579-2.482-2.938-5.001-1.273-8.001c2.022-1.488,4.093-2.888,6.549-0.891
		c2.04,1.659,2.138,3.979,1.342,6.15C411.413,32.521,408.617,32.369,405.934,32.155z"/>
	<path class="st31" d="M426.542,27.731c-0.022,1.095-0.046,2.19-0.07,3.286c-1.031,0.414-2.03,1.009-3.102,1.201
		c-1.585,0.283-3.26-0.03-3.535-1.91c-0.349-2.39,1.547-2.71,3.319-2.791C424.278,27.466,425.413,27.651,426.542,27.731z"/>
	<path class="st25" d="M527.832,31.965c-0.359-5.528,3.534-4.398,6.758-4.319C535.587,34.173,530.981,31.929,527.832,31.965z"/>
</g>
</svg>
