<?xml version="1.0" encoding="utf-8"?>
<!-- Generator: Adobe Illustrator 16.0.0, SVG Export Plug-In . SVG Version: 6.00 Build 0)  -->
<!DOCTYPE svg PUBLIC "-//W3C//DTD SVG 1.1//EN" "http://www.w3.org/Graphics/SVG/1.1/DTD/svg11.dtd">
<svg version="1.1" id="Layer_1" xmlns="http://www.w3.org/2000/svg" xmlns:xlink="http://www.w3.org/1999/xlink" x="0px" y="0px"
	 width="100px" height="100px" viewBox="0 0 100 100" style="enable-background:new 0 0 100 100;" xml:space="preserve">
<style type="text/css">
<![CDATA[
	.st0{fill:#32323C;stroke:#32323C;stroke-width:0.4;stroke-miterlimit:10;}
	.st1{fill:#32323C;}
]]>
</style>
<path class="st1" d="M44.339,80.74v0.013c0,0.192-0.096,0.355-0.236,0.465L32.741,92.581c-0.229,0.228-0.599,0.228-0.83,0
	c-0.228-0.229-0.228-0.601,0-0.829l11.227-11.229v-3.97c0-0.33,0.271-0.601,0.602-0.601s0.6,0.271,0.6,0.601v4.183
	C44.339,80.738,44.339,80.738,44.339,80.74z M28.028,93.695c-0.02,0.026-0.032,0.061-0.057,0.086
	c-0.118,0.118-0.274,0.172-0.429,0.168c-0.155,0.004-0.31-0.05-0.429-0.168c-0.025-0.025-0.038-0.06-0.057-0.086L17,83.639
	c-0.029-0.02-0.061-0.032-0.086-0.058c-0.118-0.117-0.171-0.273-0.168-0.429c-0.003-0.153,0.05-0.31,0.168-0.429
	C16.94,82.7,16.972,82.686,17,82.666l13.675-13.674c0.111-0.142,0.273-0.238,0.465-0.238h0.013c0.001,0,0.003,0,0.003,0h2.418
	c0.081-0.901,0.447-1.691,1.003-2.21l0.009,0.013c0.116-0.125,0.277-0.202,0.454-0.202c0.356,0,0.644,0.308,0.644,0.687
	c0,0.224-0.107,0.413-0.265,0.538c-0.288,0.267-0.493,0.684-0.562,1.175h2.864c0.002,0,0.004,0,0.005,0h0.013
	c0.191,0,0.356,0.097,0.465,0.238l3.498,3.497c0.141,0.109,0.236,0.274,0.236,0.465v0.013c0,0.002,0,0.002,0,0.004v6.566
	c0,0.001,0,0.001,0,0.003v0.013c0,0.193-0.094,0.355-0.236,0.465L28.028,93.695z M40.74,73.184l-3.229-3.229h-2.526
	c0.106,0.269,0.254,0.493,0.435,0.661l0,0c0.023,0.021,0.054,0.032,0.075,0.054l0.011-0.011c0.624,0.585,1.035,1.506,1.035,2.554
	c0,0.025-0.005,0.047-0.007,0.071c0.718,0.415,1.206,1.183,1.206,2.071c0,1.325-1.074,2.399-2.399,2.399
	c-1.325,0-2.399-1.074-2.399-2.399c0-1.288,1.017-2.332,2.292-2.39c-0.055-0.532-0.265-0.988-0.57-1.271
	c-0.023-0.021-0.055-0.031-0.077-0.054l-0.009,0.009c-0.447-0.417-0.776-1.011-0.931-1.695H31.37L18.172,83.152l9.37,9.37
	L40.74,79.324V73.184z M34.664,74.729c0.148-0.138,0.27-0.322,0.37-0.529c-0.513,0.136-0.892,0.599-0.892,1.155
	c0,0.661,0.538,1.199,1.2,1.199c0.664,0,1.2-0.538,1.2-1.199c0-0.284-0.102-0.542-0.268-0.748c-0.368,0.929-0.778,1.146-0.778,1.146
	c-0.116,0.123-0.275,0.2-0.454,0.2c-0.354,0-0.642-0.308-0.642-0.687C34.399,75.043,34.506,74.854,34.664,74.729z M23.514,82.124
	c0.23-0.229,0.6-0.229,0.829,0l4.229,4.229c0.228,0.229,0.228,0.599,0,0.827c-0.229,0.229-0.601,0.229-0.829,0l-4.229-4.229
	C23.286,82.724,23.286,82.354,23.514,82.124z M25.914,79.725c0.229-0.229,0.6-0.229,0.829,0l4.229,4.229
	c0.227,0.229,0.227,0.6,0,0.828c-0.229,0.229-0.601,0.229-0.828,0l-4.229-4.229C25.686,80.323,25.686,79.953,25.914,79.725z"/>
<path class="st1" d="M36.494,34.265L36.494,34.265H16.933l0,0c-1.501,0-2.717-1.216-2.717-2.717V19.05
	c0-0.3,0.243-0.544,0.544-0.544l0,0h1.629V15.79c0-1.2,0.973-2.173,2.174-2.173h5.434c1.2,0,2.173,0.973,2.173,2.173v0.544h12.498
	c0.3,0,0.544,0.244,0.544,0.544v14.67C39.211,33.049,37.994,34.265,36.494,34.265z M15.302,19.594v11.954l0,0
	c0,0.9,0.73,1.63,1.63,1.63h17.4c-0.343-0.456-0.555-1.015-0.555-1.63V19.594H15.302z M38.125,17.42H25.083v-1.63
	c0-0.6-0.487-1.086-1.086-1.086h-5.434c-0.6,0-1.086,0.487-1.086,1.086v2.717H34.32l0,0c0.151,0,0.288,0.063,0.387,0.162
	c0.097,0.099,0.157,0.233,0.157,0.382l0,0v12.498c0,0.9,0.729,1.63,1.63,1.63c0.9,0,1.63-0.73,1.63-1.63V17.42z"/>
<path class="st1" d="M90.234,34.116L90.234,34.116H70.329l0,0c-1.618,0-2.928-1.311-2.928-2.927V7.771
	c0-0.323,0.262-0.585,0.586-0.585l0,0h19.905l0,0c0.242,0,0.451,0.148,0.54,0.357c0.029,0.07,0.045,0.147,0.045,0.228l0,0v8.196
	h4.099c0.323,0,0.585,0.263,0.585,0.585v14.637C93.161,32.806,91.852,34.116,90.234,34.116z M87.307,31.189V8.356H68.572v22.833l0,0
	l0,0c0,0.97,0.786,1.756,1.757,1.756h17.576C87.536,32.455,87.307,31.851,87.307,31.189z M91.99,17.138h-3.513v14.051
	c0,0.97,0.786,1.756,1.757,1.756s1.756-0.786,1.756-1.756V17.138z M70.329,30.018c0-0.323,0.262-0.585,0.585-0.585h5.27
	c0.324,0,0.585,0.263,0.585,0.585c0,0.324-0.261,0.585-0.585,0.585h-5.27C70.591,30.604,70.329,30.342,70.329,30.018z
	 M73.061,20.484c-0.223,0.222-0.585,0.222-0.809,0c-0.224-0.223-0.224-0.585,0-0.809l3.457-3.457
	c0.019-0.027,0.031-0.059,0.056-0.084c0.115-0.115,0.268-0.168,0.419-0.165c0.15-0.003,0.303,0.049,0.418,0.165
	c0.025,0.025,0.036,0.057,0.056,0.084l2.453,2.453l1.282-1.282c0.019-0.027,0.031-0.059,0.056-0.084
	c0.115-0.115,0.268-0.168,0.419-0.165c0.15-0.004,0.303,0.049,0.418,0.165c0.024,0.025,0.037,0.057,0.057,0.084l2.285,2.286
	c0.224,0.223,0.224,0.585,0,0.809c-0.224,0.222-0.585,0.222-0.808,0l-1.952-1.953l-0.948,0.949l0.195,0.195
	c0.224,0.223,0.224,0.585,0,0.809c-0.222,0.222-0.585,0.222-0.808,0l-3.123-3.123L73.061,20.484z M79.696,23.578h5.269
	c0.324,0,0.586,0.262,0.586,0.585s-0.262,0.585-0.586,0.585h-5.269c-0.324,0-0.586-0.262-0.586-0.585S79.372,23.578,79.696,23.578z
	 M79.696,26.505h5.269c0.324,0,0.586,0.262,0.586,0.585s-0.262,0.585-0.586,0.585h-5.269c-0.324,0-0.586-0.262-0.586-0.585
	S79.372,26.505,79.696,26.505z M79.696,29.433h5.269c0.324,0,0.586,0.263,0.586,0.585c0,0.324-0.262,0.585-0.586,0.585h-5.269
	c-0.324,0-0.586-0.262-0.586-0.585C79.11,29.695,79.372,29.433,79.696,29.433z M80.281,15.674c0,0.486-0.393,0.878-0.878,0.878
	c-0.484,0-0.878-0.393-0.878-0.878c0-0.485,0.394-0.878,0.878-0.878C79.889,14.796,80.281,15.189,80.281,15.674z M82.038,12.454
	h-8.196c-0.324,0-0.586-0.262-0.586-0.585s0.262-0.585,0.586-0.585h8.196c0.323,0,0.585,0.262,0.585,0.585
	S82.361,12.454,82.038,12.454z M70.914,26.505h5.27c0.324,0,0.585,0.262,0.585,0.585s-0.261,0.585-0.585,0.585h-5.27
	c-0.323,0-0.585-0.262-0.585-0.585S70.591,26.505,70.914,26.505z M76.769,24.164c0,0.324-0.261,0.585-0.585,0.585h-5.27
	c-0.323,0-0.585-0.262-0.585-0.585s0.262-0.585,0.585-0.585h5.27C76.508,23.578,76.769,23.84,76.769,24.164z"/>
<path class="st1" d="M24.175,53.589c-0.022,0-0.044-0.006-0.067-0.007c-0.261,1.955-1.306,3.661-2.811,4.793v3.368
	c0,1.06-0.859,1.918-1.918,1.918h-4.797c-1.059,0-1.918-0.858-1.918-1.918v-3.368c-1.745-1.313-2.878-3.395-2.878-5.745
	c0-2.353,1.133-4.435,2.878-5.746v-3.368c0-1.059,0.859-1.918,1.918-1.918h4.797c1.059,0,1.918,0.859,1.918,1.918v3.368
	c1.505,1.133,2.55,2.837,2.811,4.794c0.023-0.002,0.044-0.007,0.067-0.007c0.53,0,0.959,0.429,0.959,0.959
	C25.135,53.159,24.705,53.589,24.175,53.589z M13.624,61.743c0,0.528,0.43,0.959,0.958,0.959h4.797c0.529,0,0.959-0.431,0.959-0.959
	V58.99c-1.003,0.53-2.145,0.834-3.358,0.834c-1.212,0-2.354-0.304-3.357-0.834V61.743z M20.339,43.516
	c0-0.528-0.43-0.959-0.959-0.959h-4.797c-0.529,0-0.958,0.431-0.958,0.959v2.753c1.002-0.53,2.145-0.834,3.357-0.834
	c1.213,0,2.355,0.304,3.358,0.834V43.516z M16.981,46.395c-3.444,0-6.235,2.791-6.235,6.235c0,3.443,2.792,6.234,6.235,6.234
	s6.235-2.791,6.235-6.234C23.216,49.186,20.425,46.395,16.981,46.395z M17.46,53.98v2.965c0,0.266-0.214,0.48-0.479,0.48
	c-0.265,0-0.479-0.215-0.479-0.48V53.98c-0.558-0.198-0.959-0.725-0.959-1.351c0-0.227,0.056-0.438,0.149-0.628l-1.451-1.451
	c-0.183-0.183-0.183-0.479,0-0.662c0.183-0.184,0.479-0.184,0.663,0l1.451,1.452c0.191-0.093,0.401-0.15,0.627-0.15
	c0.795,0,1.439,0.645,1.439,1.439C18.42,53.256,18.019,53.782,17.46,53.98z M16.981,52.149c-0.265,0-0.479,0.215-0.479,0.48
	c0,0.264,0.214,0.479,0.479,0.479c0.266,0,0.479-0.216,0.479-0.479C17.46,52.364,17.247,52.149,16.981,52.149z"/>
<path class="st1" d="M84.028,90.424H64.699c-1.221,0-2.209-0.989-2.209-2.209V77.643c-0.952-0.245-1.657-1.102-1.657-2.13V73.87
	c0,0,0-0.001,0-0.002v-0.013c0-0.087,0.023-0.166,0.06-0.239c0.003-0.005,0.006-0.008,0.009-0.013
	c0.037-0.069,0.088-0.127,0.15-0.177l3.771-3.771c0.101-0.13,0.251-0.219,0.428-0.219h0.012c0.001,0,0.003,0,0.003,0h3.311
	c0.001,0,0.003,0,0.003,0h3.311c0.001,0,0.003,0,0.004,0h3.311c0,0,0.002,0,0.004,0h3.31c0.001,0,0.002,0,0.004,0h5.507
	c1.22,0,2.209,0.989,2.209,2.209l0,0v16.568C86.237,89.435,85.248,90.424,84.028,90.424z M68.565,89.319L68.565,89.319v-4.971h-2.21
	v4.971l0,0H68.565z M61.938,75.513c0,0.609,0.495,1.104,1.104,1.104c0.61,0,1.104-0.494,1.104-1.104v-1.104h-2.209V75.513z
	 M65.462,70.542L62.7,73.304h1.788l2.762-2.762H65.462z M65.251,75.513c0,0.609,0.495,1.104,1.104,1.104
	c0.61,0,1.104-0.494,1.104-1.104v-1.104h-2.209V75.513z M68.775,70.542l-2.762,2.762h1.789l2.761-2.762H68.775z M68.565,75.513
	c0,0.609,0.495,1.104,1.104,1.104c0.61,0,1.104-0.494,1.104-1.104v-1.104h-2.208V75.513z M72.089,70.542l-2.762,2.762h1.789
	l2.762-2.762H72.089z M71.879,75.513c0,0.609,0.495,1.104,1.104,1.104c0.61,0,1.104-0.494,1.104-1.104v-1.104h-2.208V75.513z
	 M75.402,70.542l-2.761,2.762h1.788l2.762-2.762H75.402z M77.954,71.305l-2.762,2.762v1.446c0,1.22-0.989,2.209-2.21,2.209
	c-0.662,0-1.251-0.299-1.656-0.762c-0.404,0.463-0.993,0.762-1.657,0.762c-0.663,0-1.252-0.299-1.656-0.762
	c-0.405,0.463-0.993,0.762-1.657,0.762s-1.253-0.299-1.657-0.763c-0.288,0.326-0.668,0.571-1.104,0.684v10.572
	c0,0.609,0.495,1.104,1.105,1.104h0.552l0,0v-5.522c0-0.306,0.246-0.552,0.553-0.552h3.313c0.306,0,0.552,0.246,0.552,0.552v5.522
	l0,0h7.18c0.61,0,1.105-0.495,1.105-1.104V71.305z M85.133,71.646c0-0.609-0.495-1.104-1.104-1.104h-4.971v17.673
	c0,0.404-0.116,0.779-0.306,1.104h5.276c0.609,0,1.104-0.495,1.104-1.104V71.646z M75.744,84.349L75.744,84.349h-4.418l0,0
	c-0.306,0-0.553-0.247-0.553-0.552v-3.866c0-0.306,0.247-0.553,0.553-0.553h4.418c0.306,0,0.552,0.247,0.552,0.553v3.866
	C76.296,84.102,76.05,84.349,75.744,84.349z M75.192,80.483h-3.313v2.762h3.313V80.483z"/>
<path class="st1" d="M66.206,61.245H39.425c-1.557,0-2.819-1.262-2.819-2.819V43.626c0-1.557,1.262-2.819,2.819-2.819h10.572v-2.819
	c0-1.557,1.262-2.819,2.818-2.819s2.819,1.262,2.819,2.819v2.819h10.571c1.558,0,2.819,1.262,2.819,2.819v14.799
	C69.025,59.983,67.764,61.245,66.206,61.245z M47.893,55.951c0,0.003,0,0.003,0,0.003c-0.003,0-0.013-0.551-0.013-0.551
	s0.822-0.424,1.432-0.971c0.357-0.294,0.521-0.96,0.521-0.96c0.097-0.584,0.168-2.027,0.168-2.61c0-1.452-0.728-3.016-2.824-3.016
	v-0.006v0.005c-2.096,0-2.824,1.564-2.824,3.017c0,0.583,0.071,2.026,0.167,2.61c0,0,0.165,0.666,0.522,0.959
	c0.609,0.548,1.431,0.972,1.431,0.972s-0.01,0.551-0.013,0.551c0,0,0-0.001,0-0.004c0,0,0.021,0.808,0.021,1.049
	c0,0.959-0.962,1.422-1.567,1.422c-0.001,0-0.001,0-0.002,0c-1.828,0.08-2.259,0.688-2.262,0.693
	c-0.111,0.179-0.267,0.356-0.408,0.722h9.869c-0.142-0.365-0.297-0.543-0.41-0.72c-0.004-0.007-0.435-0.614-2.262-0.694
	c-0.001,0-0.001,0-0.002,0c-0.604,0-1.567-0.461-1.567-1.422C47.871,56.76,47.893,55.951,47.893,55.951z M54.226,37.988
	c0-0.778-0.632-1.409-1.41-1.409c-0.777,0-1.409,0.631-1.409,1.409v4.229c0,0.778,0.632,1.41,1.409,1.41
	c0.778,0,1.41-0.631,1.41-1.41V37.988z M67.616,43.626c0-0.778-0.632-1.41-1.41-1.41H55.635c0,1.557-1.263,2.819-2.819,2.819
	s-2.818-1.262-2.818-2.819H39.425c-0.778,0-1.409,0.632-1.409,1.41v14.799c0,0.778,0.631,1.41,1.409,1.41h1.267
	c0.163-0.414,0.462-1.092,0.817-1.579c0.018-0.01,0.598-1.225,3.522-1.261c0.004-0.016,0.007-0.735,0.016-0.724
	c-0.226-0.143-0.519-0.364-0.741-0.576c-0.18-0.109-0.818-0.725-1.023-1.819c-0.061-0.383-0.344-2.185-0.344-2.936
	c0-2.235,0.892-4.497,4.195-4.497c0.015,0,0.071,0,0.085,0c3.304,0,4.196,2.262,4.196,4.497c0,0.751-0.284,2.553-0.345,2.936
	c-0.205,1.095-0.844,1.71-1.023,1.819c-0.221,0.212-0.514,0.434-0.74,0.576c0.01-0.012,0.012,0.71,0.016,0.724
	c2.926,0.036,3.505,1.251,3.522,1.261c0.354,0.487,0.654,1.165,0.817,1.579h12.543c0.778,0,1.41-0.632,1.41-1.41V43.626z
	 M64.092,49.969h-8.457c-0.39,0-0.704-0.315-0.704-0.705c0-0.389,0.314-0.705,0.704-0.705h8.457c0.39,0,0.705,0.315,0.705,0.705
	C64.797,49.654,64.481,49.969,64.092,49.969z M55.635,52.788h1.41c0.389,0,0.704,0.315,0.704,0.705s-0.315,0.704-0.704,0.704h-1.41
	c-0.39,0-0.704-0.314-0.704-0.704S55.245,52.788,55.635,52.788z M55.635,55.607h4.229c0.39,0,0.705,0.315,0.705,0.704
	c0,0.39-0.315,0.705-0.705,0.705h-4.229c-0.39,0-0.704-0.315-0.704-0.705C54.931,55.923,55.245,55.607,55.635,55.607z
	 M58.454,53.493c0-0.39,0.315-0.705,0.705-0.705h2.818c0.39,0,0.705,0.315,0.705,0.705s-0.315,0.704-0.705,0.704h-2.818
	C58.77,54.197,58.454,53.883,58.454,53.493z M52.111,37.988h1.409v1.41h-1.409V37.988z"/>
<path class="st1" d="M55.306,28.051h-5.981c-0.734,0-1.329-0.595-1.329-1.329V14.096c0-0.734,0.595-1.33,1.329-1.33h5.981
	c0.733,0,1.329,0.596,1.329,1.33v12.626C56.635,27.457,56.039,28.051,55.306,28.051z M55.971,14.096
	c0-0.367-0.299-0.665-0.665-0.665h-5.981c-0.367,0-0.665,0.298-0.665,0.665v1.328h7.311V14.096z M55.971,16.089H48.66v8.64h7.311
	V16.089z M55.971,25.393H48.66v1.329c0,0.366,0.298,0.665,0.665,0.665h5.981c0.366,0,0.665-0.299,0.665-0.665V25.393z
	 M52.314,27.054c-0.366,0-0.664-0.298-0.664-0.664c0-0.367,0.298-0.665,0.664-0.665c0.367,0,0.666,0.298,0.666,0.665
	C52.98,26.756,52.682,27.054,52.314,27.054z M49.989,17.086h0.665c0.184,0,0.332,0.148,0.332,0.332v0.664
	c0,0.184-0.148,0.333-0.332,0.333h-0.665c-0.184,0-0.333-0.149-0.333-0.333v-0.664C49.657,17.235,49.806,17.086,49.989,17.086z
	 M49.989,19.413h0.665c0.184,0,0.332,0.148,0.332,0.332v0.664c0,0.184-0.148,0.332-0.332,0.332h-0.665
	c-0.184,0-0.333-0.148-0.333-0.332v-0.664C49.657,19.561,49.806,19.413,49.989,19.413z M49.989,21.738h0.665
	c0.184,0,0.332,0.148,0.332,0.333v0.664c0,0.184-0.148,0.332-0.332,0.332h-0.665c-0.184,0-0.333-0.148-0.333-0.332v-0.664
	C49.657,21.886,49.806,21.738,49.989,21.738z M51.982,17.086h0.665c0.184,0,0.333,0.148,0.333,0.332v0.664
	c0,0.184-0.149,0.333-0.333,0.333h-0.665c-0.184,0-0.332-0.149-0.332-0.333v-0.664C51.65,17.235,51.799,17.086,51.982,17.086z
	 M51.982,19.413h0.665c0.184,0,0.333,0.148,0.333,0.332v0.664c0,0.184-0.149,0.332-0.333,0.332h-0.665
	c-0.184,0-0.332-0.148-0.332-0.332v-0.664C51.65,19.561,51.799,19.413,51.982,19.413z M51.982,21.738h0.665
	c0.184,0,0.333,0.148,0.333,0.333v0.664c0,0.184-0.149,0.332-0.333,0.332h-0.665c-0.184,0-0.332-0.148-0.332-0.332v-0.664
	C51.65,21.886,51.799,21.738,51.982,21.738z M53.977,17.086h0.664c0.184,0,0.332,0.148,0.332,0.332v0.664
	c0,0.184-0.148,0.333-0.332,0.333h-0.664c-0.184,0-0.332-0.149-0.332-0.333v-0.664C53.645,17.235,53.793,17.086,53.977,17.086z
	 M53.977,19.413h0.664c0.184,0,0.332,0.148,0.332,0.332v0.664c0,0.184-0.148,0.332-0.332,0.332h-0.664
	c-0.184,0-0.332-0.148-0.332-0.332v-0.664C53.645,19.561,53.793,19.413,53.977,19.413z M51.318,14.096h1.994
	c0.184,0,0.332,0.148,0.332,0.332c0,0.183-0.148,0.332-0.332,0.332h-1.994c-0.184,0-0.333-0.149-0.333-0.332
	C50.986,14.245,51.135,14.096,51.318,14.096z"/>
<path class="st0" d="M83.667,60.167c-4.163,0-7.537-3.374-7.537-7.537c0-4.162,3.374-7.537,7.537-7.537s7.537,3.375,7.537,7.537
	C91.204,56.793,87.83,60.167,83.667,60.167z M83.667,45.812c-3.766,0-6.818,3.052-6.818,6.818c0,3.765,3.053,6.818,6.818,6.818
	s6.818-3.054,6.818-6.818C90.485,48.863,87.433,45.812,83.667,45.812z M89.409,52.989H89.05c-0.199,0-0.359-0.162-0.359-0.359
	c0-0.198,0.16-0.358,0.359-0.358h0.359c0.197,0,0.359,0.16,0.359,0.358C89.769,52.827,89.606,52.989,89.409,52.989z M87.249,55.934
	c-0.013,0.068-0.042,0.132-0.095,0.184c-0.109,0.109-0.273,0.128-0.404,0.062l0.021,0.023l0.002,0.002l0,0l0,0
	c-0.059-0.025-0.108-0.048-0.166-0.07c-1.861-0.778-2.947-1.385-3.542-1.773c-0.471-0.308-0.637-0.478-0.643-0.484
	c-0.017-0.017-0.894-0.866-2.327-4.352l0,0l0,0l0.023,0.023c-0.003-0.007-0.004-0.014-0.008-0.021
	c-0.033-0.076-0.036-0.16-0.013-0.237c0.016-0.054,0.039-0.104,0.082-0.146c0.106-0.106,0.265-0.126,0.394-0.065
	c0.006,0.002,0.009,0.002,0.011,0.005l-0.008-0.009l-0.015-0.016l0,0l0,0c3.486,1.434,4.336,2.311,4.351,2.326
	c0.017,0.017,0.894,0.867,2.328,4.352h-0.001c0.001,0,0.001,0,0.001,0l-0.017-0.016l-0.008-0.007
	c0.008,0.016,0.012,0.034,0.018,0.053C87.251,55.819,87.258,55.877,87.249,55.934z M84.401,51.888
	c-0.007-0.008-0.723-0.691-3.298-1.82c1.13,2.574,1.814,3.29,1.829,3.304c0.007,0.009,0.723,0.693,3.298,1.821
	C85.101,52.618,84.416,51.902,84.401,51.888z M83.667,52.271c0.199,0,0.359,0.16,0.359,0.358c0,0.197-0.16,0.359-0.359,0.359
	s-0.359-0.162-0.359-0.359C83.308,52.432,83.468,52.271,83.667,52.271z M83.667,47.605c-0.199,0-0.359-0.16-0.359-0.358v-0.359
	c0-0.198,0.16-0.359,0.359-0.359s0.359,0.162,0.359,0.359v0.359C84.026,47.445,83.866,47.605,83.667,47.605z M83.667,57.654
	c0.199,0,0.359,0.159,0.359,0.359v0.359c0,0.198-0.16,0.359-0.359,0.359s-0.359-0.161-0.359-0.359v-0.359
	C83.308,57.813,83.468,57.654,83.667,57.654z M78.284,52.989h-0.359c-0.197,0-0.359-0.162-0.359-0.359
	c0-0.198,0.162-0.358,0.359-0.358h0.359c0.199,0,0.359,0.16,0.359,0.358C78.644,52.827,78.483,52.989,78.284,52.989z"/>
</svg>
