<?xml version="1.0" encoding="utf-8"?>
<!-- Generator: Adobe Illustrator 16.0.0, SVG Export Plug-In . SVG Version: 6.00 Build 0)  -->
<!DOCTYPE svg PUBLIC "-//W3C//DTD SVG 1.1//EN" "http://www.w3.org/Graphics/SVG/1.1/DTD/svg11.dtd">
<svg version="1.1" xmlns="http://www.w3.org/2000/svg" xmlns:xlink="http://www.w3.org/1999/xlink" x="0px" y="0px" width="100px"
	 height="100px" viewBox="0 0 100 100" style="enable-background:new 0 0 100 100;" xml:space="preserve">
<style type="text/css">
<![CDATA[
	.st0{fill:#32323C;stroke:#32323C;stroke-width:0.2138;stroke-miterlimit:10;}
	.st1{fill:#32323C;}
]]>
</style>
<g id="Layer_1">
</g>
<g id="Layer_2">
	<g>
		<g id="Icons" transform="translate(-20.000000, -382.000000)">
			<path id="Icon" class="st1" d="M102.303,470.785c-4.45-1.548-9.243-1.502-13.603,0.098v-15.724h-2.094v15.724
				c-4.358-1.604-9.154-1.646-13.602-0.098v-19.674c4.771-1.878,10.046-1.676,14.599,0.563l0.016,0.037
				c0.013-0.006,0.024-0.01,0.033-0.014c0.012,0.004,0.024,0.008,0.034,0.014l0.017-0.037c4.552-2.239,9.826-2.441,14.6-0.563
				V470.785z M103.766,449.46c-5.196-2.263-11.009-2.271-16.113-0.063c-5.099-2.212-10.916-2.199-16.112,0.063l-0.629,0.273v24.175
				l1.465-0.639c4.934-2.147,10.476-2.03,15.228,0.304l0.016,0.039c0.013-0.006,0.024-0.011,0.033-0.015
				c0.012,0.004,0.024,0.009,0.034,0.015l0.017-0.039c4.752-2.334,10.294-2.451,15.226-0.304l1.465,0.639v-24.175L103.766,449.46z
				 M76.143,461.352h6.278v-7.324h-6.278V461.352z M78.235,459.259h2.094v-3.14h-2.094V459.259z M76.143,466.583h6.278v-2.093
				h-6.278V466.583z M91.837,456.119h8.373v-2.092h-8.373V456.119z M93.931,461.352h6.279v-2.093h-6.279V461.352z M91.837,466.583
				h8.373v-2.093h-8.373V466.583z"/>
		</g>
		<g>
			<path class="st1" d="M32.637,84.099l-0.271,0.118l-0.27-0.118c-3.465-2.124-7.107-6.96-7.107-9.646
				c0.012-2.199,1.813-3.984,4.024-3.984c1.397,0,2.632,0.714,3.353,1.794c0.722-1.08,1.956-1.794,3.354-1.794
				c2.212,0,4.013,1.785,4.024,3.984C39.744,77.139,36.102,81.975,32.637,84.099z M35.72,71.137c-1.124,0-2.169,0.559-2.795,1.495
				l-0.559,0.836l-0.558-0.836c-0.626-0.937-1.671-1.495-2.795-1.495c-1.839,0-3.344,1.489-3.354,3.316
				c0,2.369,3.432,6.978,6.706,9.026c3.274-2.049,6.707-6.657,6.707-9.023C39.063,72.626,37.559,71.137,35.72,71.137z"/>
			<path class="st1" d="M32.366,84.763l-0.47-0.206c-3.768-2.305-7.407-7.293-7.407-10.104c0.013-2.474,2.043-4.484,4.524-4.484
				c1.29,0,2.501,0.545,3.353,1.483c0.853-0.938,2.064-1.483,3.354-1.483c2.481,0,4.511,2.011,4.524,4.481
				c0,2.813-3.639,7.802-7.346,10.075L32.366,84.763z M29.014,71.637c-1.565,0-2.845,1.265-2.854,2.819
				c0,2.105,3.196,6.414,6.206,8.428c3.011-2.014,6.207-6.321,6.207-8.428c-0.008-1.554-1.289-2.819-2.854-2.819
				c-0.957,0-1.847,0.476-2.379,1.273l-0.975,1.458l-0.973-1.459C30.86,72.112,29.971,71.637,29.014,71.637z"/>
		</g>
		<path class="st1" d="M74.364,39.467V21.638c0-1.459,1.183-2.642,2.642-2.642l0,0v-2.641c0-0.729,0.592-1.321,1.32-1.321h1.32
			V9.752c0-0.364,0.296-0.66,0.661-0.66c0.364,0,0.66,0.296,0.66,0.66v5.283h1.32c0.729,0,1.32,0.592,1.32,1.321v2.641l0,0l0,0
			c1.459,0,2.642,1.183,2.642,2.642v5.282h4.622v-3.962h2.642v-1.981h3.962v1.981h0.66v16.508H74.364z M82.288,17.016
			c0-0.364-0.295-0.66-0.66-0.66h-2.642c-0.365,0-0.66,0.296-0.66,0.66v1.981h3.962V17.016z M84.93,21.638
			c0-0.729-0.592-1.321-1.321-1.321h-6.603c-0.729,0-1.321,0.592-1.321,1.321v16.508h9.245V21.638z M90.872,28.241H86.25v9.905
			h4.622V28.241z M96.815,24.279h-4.622v13.867h4.622V24.279z M94.174,26.26h0.66c0.365,0,0.661,0.295,0.661,0.66v0.661
			c0,0.365-0.296,0.66-0.661,0.66h-0.66c-0.365,0-0.66-0.295-0.66-0.66V26.92C93.514,26.556,93.809,26.26,94.174,26.26z
			 M94.174,30.222h0.66c0.365,0,0.661,0.295,0.661,0.66v0.661c0,0.365-0.296,0.66-0.661,0.66h-0.66c-0.365,0-0.66-0.295-0.66-0.66
			v-0.661C93.514,30.518,93.809,30.222,94.174,30.222z M94.174,34.184h0.66c0.365,0,0.661,0.295,0.661,0.661v0.66
			c0,0.365-0.296,0.66-0.661,0.66h-0.66c-0.365,0-0.66-0.295-0.66-0.66v-0.66C93.514,34.479,93.809,34.184,94.174,34.184z
			 M88.231,30.222h0.66c0.365,0,0.66,0.295,0.66,0.66v0.661c0,0.365-0.295,0.66-0.66,0.66h-0.66c-0.365,0-0.661-0.295-0.661-0.66
			v-0.661C87.57,30.518,87.866,30.222,88.231,30.222z M88.231,34.184h0.66c0.365,0,0.66,0.295,0.66,0.661v0.66
			c0,0.365-0.295,0.66-0.66,0.66h-0.66c-0.365,0-0.661-0.295-0.661-0.66v-0.66C87.57,34.479,87.866,34.184,88.231,34.184z
			 M82.288,36.165h-0.66c-0.365,0-0.66-0.295-0.66-0.66v-0.66c0-0.365,0.295-0.661,0.66-0.661h0.66c0.365,0,0.66,0.296,0.66,0.661
			v0.66C82.948,35.87,82.653,36.165,82.288,36.165z M82.288,32.203h-0.66c-0.365,0-0.66-0.295-0.66-0.66v-0.661
			c0-0.364,0.295-0.66,0.66-0.66h0.66c0.365,0,0.66,0.296,0.66,0.66v0.661C82.948,31.908,82.653,32.203,82.288,32.203z
			 M82.288,28.241h-0.66c-0.365,0-0.66-0.295-0.66-0.66V26.92c0-0.364,0.295-0.66,0.66-0.66h0.66c0.365,0,0.66,0.296,0.66,0.66
			v0.661C82.948,27.946,82.653,28.241,82.288,28.241z M82.288,24.279h-0.66c-0.365,0-0.66-0.295-0.66-0.66v-0.661
			c0-0.364,0.295-0.66,0.66-0.66h0.66c0.365,0,0.66,0.296,0.66,0.66v0.661C82.948,23.984,82.653,24.279,82.288,24.279z
			 M78.986,36.165h-0.66c-0.365,0-0.66-0.295-0.66-0.66v-0.66c0-0.365,0.295-0.661,0.66-0.661h0.66c0.365,0,0.66,0.295,0.66,0.661
			v0.66C79.646,35.87,79.352,36.165,78.986,36.165z M78.986,32.203h-0.66c-0.365,0-0.66-0.295-0.66-0.66v-0.661
			c0-0.365,0.295-0.66,0.66-0.66h0.66c0.365,0,0.66,0.295,0.66,0.66v0.661C79.646,31.908,79.352,32.203,78.986,32.203z
			 M78.986,28.241h-0.66c-0.365,0-0.66-0.295-0.66-0.66V26.92c0-0.364,0.295-0.66,0.66-0.66h0.66c0.365,0,0.66,0.296,0.66,0.66
			v0.661C79.646,27.946,79.352,28.241,78.986,28.241z M78.986,24.279h-0.66c-0.365,0-0.66-0.295-0.66-0.66v-0.661
			c0-0.364,0.295-0.66,0.66-0.66h0.66c0.365,0,0.66,0.296,0.66,0.66v0.661C79.646,23.984,79.352,24.279,78.986,24.279z"/>
		<path class="st1" d="M18.739,68.15c-7.939,0-14.375-6.436-14.375-14.373c0-7.939,6.436-14.375,14.375-14.375
			s14.375,6.436,14.375,14.375C33.113,61.715,26.678,68.15,18.739,68.15z M26.701,64.044c-0.107-0.157-0.243-0.354-0.352-0.509
			c-0.189-0.268-0.379-0.537-0.549-0.804c-0.008-0.014-0.945-1.271-4.323-1.425c-1.176,0-2.03-0.882-2.031-2.1l-0.022-0.639
			c0-0.093-0.011,0.103,0,0v-0.685l0.685-0.685c0.5-0.233,1.135-0.622,1.639-1.001l0.092-0.064c0.398-0.253,0.954-0.786,1.006-0.988
			l0.025-0.262c0.255-1.315,0.66-3.71,0.66-4.53c0-3.224-1.568-4.792-4.792-4.792c-3.269,0-4.792,1.522-4.792,4.792
			c0,0.844,0.405,3.226,0.66,4.53l0.024,0.241c0.043,0.214,0.547,0.719,0.992,0.998l0.066,0.045c0.54,0.378,1.185,0.797,1.68,1.031
			l0.685,0.685v0.685c0.01,0.095,0-0.102,0,0l-0.022,0.639c0,1.214-0.853,2.098-1.974,2.098c0,0-0.001,0-0.002,0
			c-3.393,0.137-4.376,1.421-4.377,1.421c-0.172,0.272-0.361,0.542-0.553,0.812c-0.107,0.153-0.243,0.35-0.351,0.507
			c2.203,1.711,4.96,2.737,7.963,2.737C21.742,66.781,24.5,65.755,26.701,64.044z M18.739,40.771
			c-7.183,0-13.005,5.823-13.005,13.006c0,3.687,1.54,7.007,4.004,9.373c0.262-0.386,0.541-0.773,0.788-1.161
			c0,0,1.142-1.876,5.476-2.052c0.442,0,0.662-0.288,0.662-0.73h0c0-0.354,0-0.639,0-0.639c0-0.089-0.015-0.17-0.019-0.255
			c-0.496-0.234-1.07-0.559-1.738-1.022c0,0-1.643-1.011-1.643-2.146c0,0-0.685-3.502-0.685-4.792c0-3.179,1.359-6.159,6.161-6.159
			c4.737,0,6.16,2.98,6.16,6.159c0,1.26-0.685,4.792-0.685,4.792c0,1.103-1.642,2.146-1.642,2.146
			c-0.654,0.492-1.233,0.822-1.741,1.058c-0.004,0.074-0.017,0.144-0.017,0.22c0,0,0,0.284,0,0.639h0
			c-0.001,0.442,0.22,0.73,0.661,0.73c4.396,0.197,5.476,2.052,5.476,2.052c0.247,0.388,0.526,0.775,0.786,1.161
			c2.465-2.366,4.006-5.687,4.006-9.373C31.745,46.594,25.921,40.771,18.739,40.771z"/>
		<path class="st1" d="M66.096,30.361v4.516l-3.915,2.258l-2.257,3.913H59.35c0,0,0,0.002,0,0.004v16.846
			c0,0.004-0.002,0.008-0.002,0.012c0.004,0.286-0.099,0.574-0.316,0.79c-0.218,0.219-0.506,0.323-0.792,0.319
			c-0.003,0-0.008,0.002-0.013,0.002c-0.358,0-0.664-0.181-0.869-0.444l-5.869-5.867l-5.868,5.867
			c-0.204,0.264-0.508,0.444-0.871,0.444c-0.005,0-0.007-0.002-0.011-0.002c-0.285,0.004-0.574-0.101-0.792-0.319
			c-0.216-0.216-0.322-0.504-0.318-0.79c0-0.004-0.002-0.008-0.002-0.012V41.051c0-0.002,0.002-0.004,0.002-0.004h-0.571
			l-2.259-3.913l-3.914-2.258v-4.516l-2.257-3.911l2.257-3.913V18.02l3.914-2.261l2.259-3.908h4.522l3.908-2.259l3.913,2.259h4.521
			l2.257,3.908l3.915,2.261v4.518l2.256,3.913L66.096,30.361z M45.874,41.051v14.171l4.706-4.704
			c0.036-0.054,0.061-0.115,0.106-0.163c0.222-0.22,0.513-0.322,0.803-0.316c0.29-0.006,0.582,0.097,0.804,0.316
			c0.047,0.048,0.069,0.109,0.106,0.163l4.705,4.704V41.051c0-0.002,0.002-0.004,0.002-0.004h-1.704l-3.913,2.259l-3.907-2.259
			h-1.708C45.874,41.047,45.874,41.049,45.874,41.051z M63.843,23.138v-3.822l-3.311-1.914l-1.908-3.304h-3.825l-3.309-1.911
			l-3.305,1.911h-3.824l-1.91,3.304l-3.312,1.914v3.822l-1.911,3.312l1.911,3.31v3.818l3.312,1.912l1.91,3.308h3.823l3.306,1.909
			l3.309-1.909h3.823l1.907-3.308l3.313-1.912v-3.816l1.908-3.312L63.843,23.138z"/>
		<g>
			<path class="st1" d="M85.489,45.519c0.002,0.075-0.024,0.149-0.08,0.206c-0.014,0.012-0.028,0.018-0.042,0.027l-0.774,0.773
				l0.199,0.199c0.014,0.01,0.029,0.016,0.041,0.027c0.057,0.057,0.082,0.131,0.081,0.205c0.001,0.074-0.024,0.148-0.081,0.206
				c-0.012,0.012-0.027,0.018-0.041,0.026l-9.121,9.123c-0.032,0.061-0.083,0.112-0.15,0.139l-2.818,1.105
				c-0.018,0.008-0.034,0.014-0.053,0.02l-0.004,0.002c-0.002,0-0.004,0-0.007,0.001c-0.026,0.007-0.054,0.013-0.082,0.013
				c-0.028,0.001-0.054-0.004-0.081-0.012c-0.006-0.002-0.012,0-0.018-0.002c-0.002-0.002-0.004-0.004-0.006-0.004
				c-0.025-0.01-0.047-0.024-0.069-0.041c-0.011-0.008-0.022-0.016-0.032-0.025c-0.01-0.009-0.017-0.021-0.025-0.031
				c-0.016-0.021-0.03-0.045-0.04-0.069c-0.001-0.003-0.003-0.004-0.003-0.007c-0.003-0.005-0.002-0.011-0.004-0.018
				c-0.006-0.025-0.012-0.053-0.012-0.08c0-0.029,0.006-0.056,0.014-0.082c0.001-0.003,0-0.005,0.001-0.008l0.002-0.003
				c0.005-0.019,0.011-0.036,0.021-0.052l1.105-2.819c0.025-0.067,0.077-0.118,0.139-0.15l7.984-7.984
				c-0.076-0.24-0.297-0.415-0.563-0.415c-0.176,0-0.331,0.077-0.439,0.198l-0.001,0l-0.935,0.935l0,0l-1.966,1.967
				c-0.11,0.109-0.288,0.109-0.397,0s-0.109-0.287,0-0.396l2.891-2.891c0.005-0.005,0.011-0.006,0.016-0.011
				c0.21-0.22,0.504-0.359,0.832-0.359c0.418,0,0.776,0.226,0.977,0.559l0.723-0.723c0.01-0.013,0.016-0.029,0.027-0.041
				c0.058-0.057,0.133-0.083,0.207-0.081c0.073-0.002,0.148,0.024,0.205,0.081c0.012,0.012,0.018,0.028,0.027,0.041l0.198,0.199
				l0.773-0.774c0.009-0.014,0.016-0.029,0.027-0.041c0.058-0.057,0.132-0.083,0.206-0.081c0.074-0.002,0.148,0.024,0.205,0.081
				c0.013,0.012,0.018,0.027,0.027,0.041l0.795,0.794c0.014,0.009,0.029,0.015,0.041,0.027
				C85.465,45.371,85.491,45.445,85.489,45.519z M73.086,56.773l1.834-0.719l-1.114-1.115L73.086,56.773z M82.901,45.629
				l-8.807,8.807l1.329,1.328l8.807-8.807L82.901,45.629z M84.34,45.054l-0.609,0.609l0.466,0.466l0.609-0.61L84.34,45.054z"/>
			<path class="st1" d="M72.55,57.742c-0.048,0-0.087-0.01-0.115-0.018l-0.036-0.011c-0.042-0.016-0.075-0.038-0.104-0.061
				c-0.02-0.014-0.035-0.025-0.05-0.039l-0.031-0.038c-0.033-0.044-0.052-0.076-0.064-0.107l-0.026-0.043l0.008-0.021
				c-0.006-0.023-0.014-0.062-0.014-0.103s0.007-0.076,0.015-0.104l0.015-0.053c0.007-0.021,0.017-0.044,0.031-0.066l1.093-2.795
				c0.033-0.088,0.1-0.165,0.187-0.217l7.899-7.898c-0.137-0.248-0.517-0.302-0.714-0.082l-0.076,0.085l-0.007-0.003l-2.823,2.826
				c-0.164,0.162-0.446,0.162-0.61,0c-0.081-0.082-0.126-0.189-0.126-0.305s0.045-0.223,0.126-0.305l2.932-2.92
				c0.222-0.24,0.556-0.384,0.913-0.384c0.392,0,0.752,0.175,0.997,0.476l0.596-0.596l0,0c-0.005,0,0.007-0.02,0.025-0.039
				c0.182-0.177,0.475-0.153,0.627-0.002l0.119,0.134l0.667-0.668l-0.001,0c-0.005,0,0.008-0.021,0.028-0.042
				c0.178-0.175,0.472-0.151,0.624,0l0.043,0.059l0.779,0.777c-0.004-0.009,0.021,0.007,0.043,0.029
				c0.081,0.083,0.125,0.194,0.122,0.313c0.003,0.111-0.041,0.223-0.123,0.307l-0.712,0.696l0.094,0.093
				c-0.005-0.007,0.019,0.005,0.041,0.027c0.082,0.082,0.126,0.193,0.125,0.313c0.001,0.115-0.043,0.226-0.124,0.309l-0.063,0.045
				l-9.087,9.091c-0.052,0.086-0.127,0.152-0.216,0.187l-2.818,1.105c-0.017,0.008-0.038,0.016-0.063,0.022l-0.031,0.017
				L72.65,57.73c-0.03,0.007-0.061,0.012-0.094,0.012H72.55z M72.55,57.458l0.001,0.002l0.001-0.019
				c0.018,0,0.034-0.004,0.049-0.008l0.013-0.003c0.013-0.005,0.021-0.008,0.028-0.011l2.824-1.108
				c0.037-0.015,0.061-0.046,0.072-0.069l0.026-0.036l9.17-9.156c0.023-0.024,0.03-0.063,0.029-0.091
				c0.001-0.031-0.006-0.07-0.037-0.101l-0.041-0.027l-0.305-0.305l0.929-0.914c0.024-0.024,0.03-0.063,0.029-0.089
				c0.001-0.044-0.012-0.079-0.037-0.104l-0.04-0.026l-0.829-0.844c-0.062-0.06-0.141-0.042-0.192,0.009l-0.026,0.04l-0.88,0.88
				l-0.339-0.353c-0.025-0.025-0.064-0.03-0.084-0.03c-0.051,0-0.085,0.014-0.109,0.038l-0.026,0.04l-0.858,0.858l-0.1-0.165
				c-0.183-0.304-0.5-0.486-0.848-0.486c-0.274,0-0.531,0.111-0.724,0.313l-0.042,0.032l-2.866,2.873
				c-0.025,0.024-0.038,0.057-0.038,0.092s0.013,0.067,0.038,0.092c0.049,0.051,0.135,0.049,0.186,0l2.977-2.978l0.003,0.002
				c0.132-0.108,0.294-0.167,0.467-0.167c0.323,0,0.606,0.208,0.705,0.52l0.028,0.087l-8.086,8.076
				c-0.023,0.013-0.054,0.034-0.067,0.07l-1.127,2.876c-0.004,0.014-0.006,0.025-0.006,0.035c0,0.013,0.005,0.033,0.008,0.046
				l0.021,0.036l-0.002,0.001c0.001,0.001,0.002,0.002,0.002,0.003c0.021,0.018,0.034,0.028,0.043,0.035L72.55,57.458z
				 M72.82,57.038l0.93-2.367l1.438,1.439L72.82,57.038z M73.861,55.208l-0.51,1.301l1.301-0.51L73.861,55.208z M75.424,55.976
				l-1.541-1.54l0.105-0.106l8.913-8.912l1.541,1.54l-0.105,0.106L75.424,55.976z M74.307,54.436l1.117,1.116l8.595-8.595
				l-1.117-1.116L74.307,54.436z M84.196,46.341l-0.678-0.678l0.821-0.821l0.678,0.677L84.196,46.341z M83.942,45.663l0.254,0.253
				l0.397-0.397l-0.254-0.253L83.942,45.663z"/>
		</g>
	</g>
	<path class="st0" d="M30.694,33.821H14.848c-0.199,0-0.36-0.161-0.36-0.36c0-0.199,0.161-0.36,0.36-0.36h15.846
		c0.199,0,0.36,0.161,0.36,0.36C31.054,33.661,30.893,33.821,30.694,33.821z M19.89,30.22c0.199,0,0.36,0.161,0.36,0.36
		c0,0.2-0.161,0.36-0.36,0.36h-2.881c-0.199,0-0.36-0.161-0.36-0.36c0-0.199,0.161-0.36,0.36-0.36h0.36v-4.682h-0.36
		c-0.199,0-0.36-0.161-0.36-0.36c0-0.198,0.161-0.36,0.36-0.36h2.881c0.199,0,0.36,0.162,0.36,0.36c0,0.2-0.161,0.36-0.36,0.36
		h-0.36v4.682H19.89z M18.81,25.539h-0.72v4.682h0.72V25.539z M24.211,30.22c0.199,0,0.36,0.161,0.36,0.36
		c0,0.2-0.161,0.36-0.36,0.36h-2.881c-0.199,0-0.36-0.161-0.36-0.36c0-0.199,0.161-0.36,0.36-0.36h0.36v-4.682h-0.36
		c-0.199,0-0.36-0.161-0.36-0.36c0-0.198,0.161-0.36,0.36-0.36h2.881c0.199,0,0.36,0.162,0.36,0.36c0,0.2-0.161,0.36-0.36,0.36
		h-0.36v4.682H24.211z M23.131,25.539h-0.72v4.682h0.72V25.539z M29.974,32.021c0,0.2-0.161,0.36-0.36,0.36H15.929
		c-0.199,0-0.36-0.161-0.36-0.36c0-0.199,0.161-0.36,0.36-0.36h13.685C29.813,31.661,29.974,31.821,29.974,32.021z M28.533,30.22
		c0.199,0,0.36,0.161,0.36,0.36c0,0.2-0.161,0.36-0.36,0.36h-2.881c-0.199,0-0.36-0.161-0.36-0.36c0-0.199,0.161-0.36,0.36-0.36
		h0.36v-4.682h-0.36c-0.199,0-0.36-0.161-0.36-0.36c0-0.198,0.161-0.36,0.36-0.36h2.881c0.199,0,0.36,0.162,0.36,0.36
		c0,0.2-0.161,0.36-0.36,0.36h-0.36v4.682H28.533z M27.453,25.539h-0.72v4.682h0.72V25.539z M15.208,23.378l7.563-4.119l7.563,4.119
		v0.72H15.208V23.378z M28.728,23.378l-5.957-3.08l-5.979,3.08H28.728z"/>
</g>
</svg>
